<svg width="353" height="119" viewBox="0 0 353 119" fill="none" xmlns="http://www.w3.org/2000/svg">
<g clip-path="url(#clip0_213_190)">
<path d="M2.49714 50.9805L3.62425 51.842C4.28115 52.3451 5.00721 52.8965 5.74017 53.4479L6.97101 54.3783L7.28217 54.6402C7.60025 54.9159 7.92525 55.2054 8.24333 55.2743C8.44386 55.3156 8.65821 55.3294 8.87949 55.3294C9.10076 55.3294 9.29437 55.3156 9.50182 55.3087L10.0757 55.2881H10.4906H11.4034C11.3896 55.612 11.3481 55.9566 11.3066 56.2943C11.2443 56.8043 11.1821 57.3419 11.2098 57.8244C11.2305 58.2035 11.3342 58.5825 11.431 58.9547L11.5693 59.4992L11.68 59.9954C11.7699 60.3814 11.8598 60.7467 11.8805 61.0913C11.9082 61.5186 11.8805 62.001 11.8459 62.4559L11.8183 63.1107L11.7975 63.6827C11.7284 65.5712 11.6592 67.3562 11.756 69.2033L11.7699 69.4446C11.8044 70.0235 11.8321 70.5749 11.7906 71.1194L11.7768 71.2641C11.6247 73.3042 11.4794 75.2409 11.2167 77.1569L11.2029 77.2534L11.2374 77.3499C11.355 77.6807 11.4449 78.0322 11.5417 78.4113L11.68 78.9282L11.8528 79.4864C11.9704 79.8173 12.0949 80.2032 12.1087 80.4651C12.1225 80.7477 12.0603 81.0716 11.9911 81.4162L11.8874 81.9814L11.8044 82.4983C11.7353 82.8774 11.6661 83.2633 11.6592 83.6493C11.6523 84.1524 11.7076 84.6693 11.7699 85.1587L11.8528 85.9444C12.0257 88.1843 11.9842 90.2933 11.9289 92.3334L11.9151 92.8572L11.5486 93.1811L11.2927 93.381L10.4215 94.1461C9.97202 94.5527 9.50182 94.9731 9.01778 95.3384C7.9045 94.7663 6.78431 94.0771 5.49124 93.1811L5.22156 92.9813C4.78593 92.6436 4.41945 92.3817 4.09445 92.3196H3.42372L3.1817 92.3472C2.74607 92.3679 2.3381 92.3885 1.93704 92.4161C1.41843 92.4437 0.91365 92.4713 0.381211 92.4919L0.0078125 92.5057V96.6548L0.180682 96.772C0.650888 97.0821 1.14875 97.3923 1.68811 97.7231L2.06151 97.9712C2.48331 98.2607 2.96043 98.5915 3.36149 98.6811C3.63808 98.7431 4.01839 98.7569 4.41253 98.7569C4.57849 98.7569 4.74444 98.7569 4.9104 98.7569H5.3322L5.99602 98.7707L6.65293 98.7845H7.01941C7.42738 98.75 7.86301 98.6811 8.2779 98.6191L8.79651 98.5364L9.32203 98.4743C9.7715 98.4192 10.2348 98.3709 10.5805 98.2607L11.2029 97.8885L11.438 97.7162L11.7491 97.5163L12.2055 97.2131L12.7725 96.8685C13.139 96.6548 13.5262 96.4274 13.789 96.1723L14.3007 95.4487L14.5081 95.111L15.1719 94.1116C15.6698 93.381 16.0086 92.6711 16.382 91.8785L16.5411 91.5546C16.8522 90.8998 17.1703 90.2313 17.3639 89.4249L17.5506 88.7495L17.7166 88.1361L17.8203 87.7639C17.9171 87.4193 18.0139 87.0678 18.0485 86.7232C18.0831 86.3097 18.0347 85.8961 17.9794 85.4964L17.9171 84.9312C17.7857 83.0772 17.9448 81.3197 18.1384 79.2797L18.2075 78.5491L18.2698 77.9839C18.3182 77.6049 18.3666 77.212 18.3666 76.833C18.3666 76.2816 18.2836 75.7302 18.2006 75.1995C18.1246 74.6826 18.0485 74.1519 18.0485 73.6281C18.0485 73.0767 18.1246 72.5185 18.2075 71.9326C18.2767 71.4364 18.3458 70.9264 18.3666 70.4164C18.4081 69.2791 18.3597 68.1419 18.3043 67.0461C18.2767 66.474 18.249 65.9227 18.2352 65.392L18.2006 64.7579C18.1799 64.4477 18.1522 64.1514 18.173 63.8688C18.2075 63.3932 18.3389 62.9108 18.4772 62.4008C18.6293 61.8287 18.7884 61.236 18.8091 60.6226C18.8368 59.9885 18.7538 59.3682 18.6639 58.7755C18.5879 58.2586 18.5187 57.7692 18.5256 57.2937C18.5256 56.7699 18.6017 56.2736 18.6777 55.7429L18.7746 54.9504C19.6666 55.0468 20.5862 55.1571 21.5543 55.2881L21.6718 55.3018L21.7756 55.2605C22.4394 54.9572 23.117 54.6816 23.7947 54.399C24.6106 54.0682 25.4473 53.7235 26.2425 53.3445L27.5425 52.7173L26.1042 52.6001C25.15 52.5243 24.2303 52.4347 23.3107 52.3382C22.716 52.2762 22.1282 52.2142 21.5197 52.1659C20.9527 52.1108 20.4134 52.0005 19.8394 51.8833L19.39 51.7868L18.74 51.6421C18.2352 51.5249 17.7235 51.4078 17.2049 51.3664C16.9836 51.3526 16.7554 51.3458 16.5342 51.3458C16.3129 51.3458 16.0985 51.3457 15.8842 51.3595C15.7113 51.3595 15.5315 51.3595 15.3586 51.3595C15.0959 51.3595 14.84 51.3595 14.5773 51.3458C14.3353 51.3389 14.0863 51.3251 13.8443 51.3251C13.6991 51.3251 13.5608 51.3251 13.4156 51.3389C12.9938 51.3664 12.5236 51.4698 12.0326 51.5801L11.4587 51.7041L10.8433 51.8489C10.4077 51.9592 9.91671 52.0763 9.57097 52.0763H9.56405L8.77577 51.9523L8.21567 51.842C7.70397 51.7593 7.15079 51.6697 6.59069 51.5732C5.65028 51.4147 4.68221 51.2493 3.90084 51.1597L2.49022 50.9943L2.49714 50.9805Z" fill="#0C0C0C"></path>
<path d="M62.5103 54.6836L62.3444 54.8283C61.5492 55.49 60.7332 56.3033 59.938 57.089L59.5508 57.4749L59.6476 57.7161C60.0625 58.7293 60.4566 59.7631 60.8508 60.7969L60.996 61.176L61.3071 61.1347C62.2545 61.0037 63.1741 60.8383 64.0661 60.6798C64.4879 60.604 64.9097 60.5281 65.3315 60.4523L65.5943 60.411L65.9262 58.8534C66.0991 58.047 66.265 57.2475 66.4448 56.448L66.5209 56.1034L66.1821 55.9931C65.5805 55.7932 64.9927 55.5796 64.405 55.3659C63.8518 55.1592 63.2848 54.9524 62.7108 54.7594L62.5034 54.6905L62.5103 54.6836Z" fill="#0C0C0C"></path>
<path d="M106.923 62.5742C106.722 62.5742 106.528 62.588 106.369 62.6018L106.21 62.6156C105.83 62.6294 105.436 62.6294 105.056 62.6362C104.378 62.6362 103.673 62.6362 103.023 62.7396L101.584 62.9464L101.031 63.0015C100.72 63.0291 100.388 63.0567 100.084 63.1325C99.7104 63.2221 99.3163 63.3944 98.9291 63.5598L98.3759 63.7941L97.7328 64.0078C97.3387 64.1318 96.9653 64.249 96.6334 64.4351C96.3015 64.6212 95.9972 64.9313 95.7068 65.2277L95.2919 65.6274L94.8424 66.0341L94.6419 66.2271L94.393 66.4269L93.9435 66.8129C93.6946 67.1024 93.4733 67.447 93.2659 67.7778L92.9339 68.2947L92.6228 68.722C92.3393 69.0873 92.0558 69.4733 91.9036 69.8454C91.7031 70.3624 91.5925 70.9964 91.4888 71.6029L91.3436 72.4093L91.2675 72.685L91.143 73.3398C91.1361 73.6775 91.2122 74.0566 91.2951 74.4218L91.4058 75.0215L91.4749 75.6349C91.5095 76.0001 91.551 76.3861 91.634 76.7376C91.71 77.0684 91.8414 77.413 91.9728 77.7439L92.1802 78.3297L92.36 78.95C92.4637 79.3359 92.5606 79.6943 92.7127 79.9976L93.093 80.5076L93.2935 80.7419L93.5563 81.1072L93.8052 81.4449L94.1648 81.9619C94.386 82.2996 94.6073 82.6166 94.8908 82.8992C95.1813 83.1818 95.5961 83.4437 95.9626 83.678L96.4052 83.9675L96.8477 84.2983C97.2142 84.5809 97.6014 84.8772 97.9748 85.0358C98.3551 85.2012 98.8184 85.3114 99.2679 85.4217L99.7727 85.5527L100.139 85.6492L100.658 85.787L100.927 85.8697L101.647 86.0351H101.66L102.324 85.9386L102.615 85.8835L103.099 85.787L103.514 85.7043L104.191 85.6147C104.585 85.5733 105 85.5251 105.387 85.3942L106.017 85.0358L106.238 84.8841L106.639 84.6222L106.999 84.3879L107.503 84.0846C107.884 83.8641 108.278 83.6435 108.575 83.3816L108.976 82.8785L109.135 82.6511C110.338 81.0659 111.611 79.3773 112.683 77.8403L113.257 77.0202L113.54 77.9024L113.734 78.44L113.92 79.0878C114.01 79.4187 114.107 79.7495 114.225 80.0527C114.439 80.6248 114.722 81.1624 114.992 81.6793C115.269 82.21 115.531 82.7062 115.711 83.2231L115.773 83.3885L115.933 83.4575C116.472 83.678 116.984 83.9744 117.523 84.2776C118.131 84.6222 118.754 84.9806 119.445 85.2563C120.047 85.4906 120.676 85.6767 121.292 85.8559C121.859 86.0213 122.446 86.1936 123.02 86.4073L123.124 86.4418L123.235 86.4211C123.864 86.3039 124.472 86.235 125.06 86.173C125.724 86.0972 126.346 86.0282 126.975 85.8904C127.404 85.7939 127.84 85.6354 128.269 85.4769L128.863 85.2632L129.403 85.0909C129.873 84.9462 130.315 84.8083 130.668 84.6222C131 84.4499 131.318 84.1329 131.65 83.8021L132.175 83.3058L132.639 82.9405C133.033 82.6373 133.441 82.3271 133.704 81.9756C133.925 81.6862 134.091 81.314 134.257 80.9625L134.526 80.4042L134.824 79.8804C135.01 79.5565 135.197 79.2326 135.363 78.888C135.543 78.5089 135.667 78.1022 135.778 77.7025L135.958 77.1098L136.165 76.5377C136.331 76.1035 136.497 75.6555 136.546 75.2696C136.587 74.9181 136.58 74.5597 136.573 74.222V73.5396L136.58 73.4363C136.601 72.8918 136.635 72.2784 136.573 71.7339C136.525 71.3273 136.386 70.8862 136.248 70.452L136.11 69.9971L135.965 69.4319C135.868 69.0253 135.764 68.6049 135.619 68.274C135.467 67.9363 135.183 67.5641 134.914 67.2057L134.568 66.7371L134.063 65.9996L133.897 65.7515L133.517 65.2208L132.943 64.7728L132.673 64.5867L131.968 64.0422C131.698 63.8424 131.435 63.6356 131.117 63.3806L130.938 63.229L130.115 62.719L129.271 62.6983C129.084 62.7052 128.905 62.7121 128.725 62.7121C128.469 62.7121 128.227 62.7121 127.985 62.7052C127.702 62.7052 127.432 62.6914 127.155 62.6914C126.747 62.6914 126.339 62.7052 125.897 62.7465C125.489 62.7879 125.06 62.8844 124.631 62.974L123.981 63.1049C122.322 63.4151 120.78 63.8148 119.459 64.1732L119.148 64.249L118.512 64.4282L117.862 64.9176L117.682 65.083L117.322 65.4L116.984 65.7033L116.527 66.0616C116.147 66.3511 115.746 66.6544 115.511 67.0266C115.317 67.3298 115.144 67.702 114.971 68.1017L114.605 68.8943C114.432 69.2596 114.252 69.6387 114.107 70.004C113.955 70.383 113.851 70.8241 113.754 71.2583L113.644 71.7339L113.485 72.2991C113.367 72.7195 113.257 73.1123 113.215 73.4914C113.174 73.8774 113.187 74.2702 113.201 74.6493V75.1731V75.69V76.5033L112.129 77.3372C111.265 78.0127 109.578 79.3153 108.029 80.48L107.628 80.804L106.722 81.4587C106.48 81.5552 106.127 81.6104 105.782 81.6655L105.228 81.762L104.779 81.8792C104.468 81.9688 104.053 82.0859 103.811 82.0859C103.79 82.0859 103.769 82.0859 103.749 82.0859L103.355 81.9067L103.161 81.8033C102.843 81.6517 102.552 81.4932 102.255 81.3416C101.861 81.1348 101.474 80.9349 101.086 80.7557L100.616 80.0941L100.188 79.4945L99.8349 79.0258L99.2679 78.1987C99.1503 77.9368 99.0674 77.6198 98.9706 77.289L98.8046 76.71C98.4174 75.497 98.12 74.2358 97.795 72.7195L97.7052 72.368L97.6153 71.982L97.6982 71.5409L97.7674 71.2583L97.9264 70.4657L98.0232 69.9006C98.0785 69.5491 98.127 69.2183 98.2307 68.9288L98.445 68.6049L98.6456 68.3292L98.9982 67.7502C99.2817 67.2816 99.5791 66.7991 99.8764 66.3856L100.015 66.3511C100.9 66.1375 101.792 65.9238 102.656 65.6964C103.859 66.5165 105.118 67.3367 106.369 68.15C107.13 68.6462 107.891 69.1424 108.672 69.6594L109.322 69.8592L109.571 69.7972L109.619 69.5491C109.73 68.9564 109.827 68.3223 109.924 67.6813C109.965 67.3643 110.013 67.0541 110.069 66.744L110.138 66.4407L110.228 65.6619L109.688 64.9451L109.529 64.7935L108.873 64.056L108.319 63.4357L108.202 63.2979C107.946 62.9877 107.725 62.7465 107.462 62.6707C107.303 62.6294 107.123 62.6156 106.943 62.6156M124.949 82.8165L124.037 82.5684L123.56 82.4167L123.027 82.2927C122.695 82.2238 122.384 82.1617 122.142 82.0377L121.464 81.2589L121.215 80.928L120.863 80.5007L120.254 79.7219L119.805 78.8673L119.57 78.3779L119.3 77.8955L118.899 77.0684C118.844 76.8754 118.844 76.5722 118.837 76.2552L118.816 75.6693L118.788 75.2144C118.761 74.8423 118.733 74.4908 118.726 74.1599C118.726 73.8429 118.761 73.5259 118.802 73.1881L118.851 72.6988L118.885 72.0371C118.885 71.7063 118.899 71.3755 118.961 71.155L119.48 70.4106L119.805 69.9971L120.088 69.5629L120.655 68.7841L121.347 68.343L121.928 68.0121L122.377 67.702L123.145 67.2333C123.38 67.1575 123.726 67.1299 124.064 67.0955L124.638 67.0403L125.164 66.9645C125.496 66.9163 125.814 66.868 126.125 66.8405C126.678 67.1437 127.224 67.4539 127.764 67.7709C128.096 67.9639 128.428 68.1638 128.766 68.3498C129.029 68.7634 129.333 69.1907 129.638 69.6249L130.122 70.3141L130.26 70.5002L130.53 70.9137C130.633 71.1618 130.696 71.4858 130.765 71.8304L130.889 72.4231L131.041 72.9469C131.138 73.2846 131.228 73.6086 131.263 73.898C131.297 74.1806 131.263 74.5666 131.235 74.9732L131.2 75.4488L131.18 76.0415C131.18 76.4068 131.166 76.779 131.117 77.0133C131.062 77.3028 130.896 77.6474 130.737 77.9782L130.537 78.4124L130.336 78.8948C130.191 79.2395 130.059 79.5703 129.921 79.8115L129.271 80.5145L128.856 80.9143L128.538 81.2864L127.847 82.0032C127.619 82.1204 127.224 82.2031 126.872 82.2789L126.388 82.3892L125.627 82.5959L125.337 82.6855L124.956 82.7889L124.949 82.8165Z" fill="#0C0C0C"></path>
<path d="M84.2774 62.7871C84.2014 62.7871 84.1253 62.7871 84.0562 62.7871C83.5099 62.8009 82.9636 62.856 82.3897 62.9181C81.8642 62.9732 81.3179 63.0283 80.7717 63.049C80.26 63.0697 79.6722 63.0766 79.0983 63.0766L78.711 63.0628C78.5174 63.0628 78.2962 63.049 78.0818 63.049C77.7983 63.049 77.5217 63.0628 77.3143 63.1179L76.6228 63.6073L76.4568 63.7589L75.7031 64.393L75.0877 64.903L74.9148 65.0408L74.3132 65.668C74.1265 66.1229 73.9606 66.6192 73.7808 67.1498C73.6148 67.6392 73.4489 68.1492 73.2622 68.6179L73.2207 68.7075L73.2345 68.804C73.3521 69.8585 73.4281 70.8716 73.5319 72.0295L73.5664 72.4844L73.7324 72.5878C74.1611 72.8634 74.5898 73.1943 75.0116 73.5182C75.5717 73.9455 76.1595 74.3935 76.7818 74.7519L77.5563 75.1172L78.0196 75.3239C79.1605 75.8615 80.3775 76.4336 81.6775 76.9229L82.2099 77.0952L82.9222 77.3571L83.2333 77.6673L83.3785 77.8258L83.6344 78.1084L83.8902 78.391L84.1392 78.6253L84.8168 79.3283L84.7891 80.0726L84.7407 80.5413V81.3684V81.7474C84.4088 81.9887 84.0769 82.2506 83.7104 82.5469L83.4269 82.795L82.6732 83.3809L81.8849 83.3395L81.394 83.2844L80.9653 83.2637L80.1355 83.2155C78.7041 81.9128 77.3972 80.4379 76.1318 79.0181C75.5717 78.3772 75.0047 77.75 74.4308 77.1228L73.7462 76.3853V84.2079L73.9882 84.3113C74.41 84.4905 74.8664 84.6904 75.3228 84.8903C75.8137 85.1039 76.3047 85.3245 76.7611 85.5174L77.0308 85.6415L77.7914 85.9241C78.1025 85.9861 78.4483 85.9999 78.8009 85.9999C78.9323 85.9999 79.0568 85.9999 79.1813 85.9999H79.7413L80.4812 86.0344L81.3456 86.0688L81.7259 86.055L82.3828 85.9379L82.694 85.8689C83.0674 85.8 83.4477 85.7242 83.828 85.6553C84.3812 85.545 84.9274 85.4347 85.4599 85.3451L85.5567 85.3314L85.6327 85.2693C86.0753 84.9316 86.5248 84.5319 86.9604 84.139L87.7763 83.436L88.0391 83.2499L88.5785 82.7813L88.8758 82.2023L88.9933 81.9335L89.7885 80.3759L89.9061 80.1691L90.2173 79.4317L90.1827 78.6666L90.155 78.4254L90.0859 77.7362C90.0582 77.3916 90.0236 77.0677 89.996 76.7024V76.3922L89.9061 75.7099L89.3875 75.0483L89.2008 74.8553L88.5024 74.0489L87.9008 73.3528L87.7141 73.1253L87.1471 72.5464C86.7944 72.3328 86.345 72.2018 85.9093 72.0708L85.3147 71.8916C84.7131 71.6849 84.0977 71.4712 83.5307 71.2714C82.7769 71.0163 81.9887 70.8578 81.228 70.7131C80.6956 70.6097 80.1908 70.5132 79.6999 70.3823C79.043 69.6379 78.4483 68.9556 77.9089 68.2319L78.2823 67.4738C78.4483 67.1154 78.6142 66.7708 78.8009 66.4468L79.4717 66.3435L79.928 66.2677L80.3291 66.1918C80.6057 66.1436 80.8823 66.0885 81.1174 66.0885H81.2073L81.5185 66.2125L81.7674 66.3297C82.445 66.6054 83.1158 66.8811 83.7519 67.1223C84.0631 67.4945 84.3743 67.8735 84.6785 68.2526C85.2455 68.9487 85.8264 69.6724 86.4349 70.3547L87.0019 70.9819L87.1194 70.1479C87.4306 67.9631 87.8386 65.8266 88.2465 63.7589L88.3918 63.0283H87.9146C87.3061 63.0145 86.6976 62.9801 86.0891 62.925C85.5083 62.8698 84.8998 62.8216 84.3397 62.8216" fill="#0C0C0C"></path>
<path d="M35.2305 63.311C35.1337 63.311 35.03 63.311 34.9263 63.311C34.5667 63.3317 34.2002 63.3317 33.8337 63.3386C33.239 63.3386 32.6305 63.3524 32.0566 63.4351C31.6694 63.4902 31.2752 63.6143 30.888 63.7452L30.3487 63.9175L29.7817 64.0691C29.3944 64.1656 28.9864 64.269 28.6545 64.4L28.0668 64.7583L27.8524 64.91L26.9604 65.5027C26.5179 65.7991 26.0753 66.0954 25.6328 66.378L25.5429 66.4331L25.4945 66.5296C25.1349 67.2602 24.7546 68.0459 24.3881 68.804L23.8902 69.8034L23.752 70.4513L23.8349 70.6856L24.0908 70.7063C25.9578 70.8855 27.9285 71.0302 29.6088 71.1474L29.9407 71.1681L30.0168 70.8441C30.1965 70.1205 30.3832 69.3968 30.5699 68.68L30.8534 67.5704C31.296 67.467 31.7316 67.3636 32.1742 67.2602C32.6167 67.1637 33.0593 67.0603 33.4949 66.9501C33.7231 67.2533 33.9789 67.5566 34.2417 67.8598L34.8778 68.6386L35.0231 68.8109L35.2858 69.1555C35.355 69.4519 35.3411 69.8034 35.3204 70.1411L35.3066 70.6511L35.3273 71.237L35.3411 71.8917C34.9747 72.002 34.5874 72.0778 34.1864 72.1674C33.5226 72.3122 32.838 72.4569 32.2295 72.7326L31.4481 73.0979L30.7912 73.408L30.3694 73.5941C30.0098 73.7457 29.6364 73.9111 29.3114 74.111C28.9934 74.3109 28.7099 74.5866 28.4333 74.8554L27.9907 75.262L27.5343 75.6342L26.6493 76.413L26.0407 77.2469L25.6674 77.7914L25.3908 78.1291C24.9897 78.5978 24.6993 78.9562 24.6163 79.2801C24.5264 79.6247 24.5333 80.1141 24.5402 80.5138V80.8584L24.4918 81.4512C24.4573 81.8509 24.4158 82.2713 24.4918 82.6435L24.8791 83.3672L25.0243 83.5739L26.0131 85.1316L26.1099 85.297C26.3243 85.6829 26.4971 85.9655 26.7668 86.0551L26.995 86.0896L27.479 86.0275L27.728 85.9862L28.6131 85.8966L29.2769 85.8552C29.6987 85.8346 30.0997 85.8139 30.4662 85.7105L30.9295 85.4831L31.1439 85.359C32.5061 84.6905 33.9374 83.9668 35.2443 83.2362L35.9151 83.9599C36.2055 84.27 36.4959 84.5802 36.7863 84.911L36.9315 85.0902L37.5954 85.6416C37.6853 85.6623 37.789 85.676 37.8996 85.676C38.0656 85.676 38.2523 85.6554 38.4459 85.6347L38.7709 85.6002C39.5868 85.5451 40.4097 85.5037 41.2256 85.4624L42.1315 85.4141L42.2352 85.3177C42.899 84.6974 43.5697 84.0013 44.2266 83.3327C44.5586 82.995 44.8835 82.6573 45.2085 82.3402L45.2915 82.2644C45.4436 82.1335 45.7894 81.8371 45.5889 81.4649L45.4921 81.2857L45.2915 81.2651C44.5862 81.1824 43.8602 81.1134 43.1479 81.0445C42.3112 80.9618 41.4884 80.8791 40.6932 80.7826C40.6655 80.3967 40.5964 80.0176 40.5272 79.6454C40.4304 79.1285 40.3405 78.646 40.3613 78.1429C40.382 77.5984 40.5203 77.0264 40.6655 76.4199C40.8038 75.834 40.949 75.2275 40.9974 74.6004C41.1288 72.8429 41.1634 70.6787 41.1911 69.5208L41.2256 68.8868C41.2602 68.4457 41.3017 67.9908 41.2118 67.5704L40.9214 66.9294L40.7692 66.6537L40.4512 65.992C40.1469 65.358 39.8358 64.6963 39.4762 64.0967L39.3794 63.9382L39.1927 63.9106C38.7156 63.8486 38.2315 63.7383 37.7613 63.628C36.9592 63.4488 36.1363 63.2559 35.2789 63.2559M32.4508 81.0238C32.1119 80.9342 31.78 80.8446 31.455 80.7482C31.0816 80.6379 30.7013 80.5345 30.3072 80.438L30.3487 80.0589L30.404 79.5076L30.4178 79.0665L30.48 78.3841L30.9848 77.7501L31.3306 77.3641L31.5588 77.0609L31.7731 76.7783L31.9391 76.5646L32.1811 76.2683L32.8034 75.8754L33.2114 75.6273L33.7369 75.2758L34.0135 75.0897L34.4353 75.8616L34.6704 76.2683L34.9677 76.861L34.8571 77.6811L34.7465 78.1774L34.6981 78.6323L34.5598 79.48L33.8061 80.0452L33.5018 80.2519L33.0731 80.569L32.4438 81.0238H32.4508Z" fill="#0C0C0C"></path>
<path d="M53.9558 51.085H53.3957C51.1 51.6226 49.1777 52.0361 47.5181 52.3601L47.2 52.4014L46.55 52.5324L45.9 53.132L45.7064 53.3663C45.3745 53.7178 45.091 54.0349 44.8075 54.3519C44.524 54.662 44.2543 54.9653 43.9086 55.3237C43.791 55.4202 43.5283 55.6407 43.6043 55.9922L43.6527 56.199L43.8602 56.2679C44.5448 56.5091 45.2431 56.7366 45.9485 56.9571C46.6468 57.1777 47.3383 57.4051 48.0229 57.6395C48.0021 58.0254 47.9399 58.4183 47.8708 58.8318C47.7947 59.3349 47.7048 59.8587 47.7048 60.3894C47.7048 61.0166 47.774 61.6507 47.8431 62.2641C47.8915 62.719 47.9399 63.167 47.9607 63.615C48.0644 65.6619 48.0506 67.7985 47.933 70.1349C47.9123 70.5209 47.8777 70.9069 47.8362 71.2859C47.774 71.9889 47.7048 72.7126 47.7394 73.4087C47.7601 73.7878 47.8224 74.1669 47.8846 74.5321L47.9745 75.0628L48.0644 75.6142C48.1335 75.9726 48.1958 76.3103 48.1958 76.6274C48.1958 76.9444 48.1335 77.2683 48.0713 77.6198L47.9745 78.1919L47.8639 78.7846C47.8016 79.1154 47.7256 79.46 47.7117 79.8184C47.691 80.3629 47.7186 80.9212 47.7532 81.4588C47.774 81.8309 47.7947 82.21 47.8016 82.5891C47.449 82.7545 47.0963 82.9199 46.7367 83.0853C45.8516 83.4988 44.9666 83.9055 44.1022 84.3397L43.1895 84.7946L44.1714 85.0702C44.7591 85.2357 45.333 85.408 45.9208 85.5803C46.6953 85.8077 47.4628 86.042 48.2511 86.2488L48.3548 86.2626H48.8388C50.2633 86.2626 51.6946 86.2075 53.2989 86.0834L53.8659 86.0627C54.1909 86.0558 54.5228 86.0489 54.834 85.9938L55.5808 85.7457L55.8919 85.6216C56.8946 85.2563 57.9387 84.8704 58.8929 84.4982L59.5222 84.257L59.4185 84.3604L59.1142 85.0702L59.2041 85.2977L59.453 85.3184C60.0823 85.3666 60.7115 85.4838 61.3823 85.6147C62.1083 85.7526 62.862 85.8904 63.6365 85.9387L64.0929 85.9524L64.8812 85.9318C65.1577 85.9249 65.4412 85.918 65.7178 85.918C65.8907 85.918 66.0705 85.918 66.2503 85.918C66.4577 85.918 66.6652 85.9249 66.8726 85.9249C67.1838 85.9249 67.4949 85.9111 67.7923 85.8697L68.5736 85.6492L68.9056 85.532C69.2306 85.4286 69.5625 85.3321 69.8875 85.2357C70.6481 85.0082 71.4295 84.767 72.1071 84.5258L73.0683 84.1812L72.1209 83.7952C71.6922 83.6229 71.2635 83.4506 70.8279 83.2783C69.9428 82.9268 69.03 82.5684 68.1726 82.1755C68.1864 81.7758 68.2279 81.3692 68.2694 80.9694C68.3316 80.3353 68.3939 79.6737 68.38 79.0327C68.3731 78.378 68.2763 77.7232 68.1795 77.0891C68.1034 76.5929 68.0274 76.076 67.9997 75.5729C67.9582 74.8974 67.9997 74.1875 68.0274 73.4983L68.055 72.878C68.0896 72.1406 68.0412 71.41 67.9997 70.7001L67.9582 70.0453C67.8614 68.2396 67.9375 66.4339 68.0205 64.5868L68.0343 64.1594L67.6056 64.1732C66.838 64.2077 65.9599 64.2766 65.1163 64.3455L64.3418 64.4076L63.9684 64.4213L63.2631 64.4765L62.5025 64.8004L62.1706 64.9658C61.161 65.4276 60.0823 65.9445 59.128 66.4132L58.4919 66.7302L59.1004 67.0955C59.8748 67.5711 60.7392 68.1155 61.569 68.6531L61.7003 68.7358L61.9631 68.8875L62.3711 69.1218C62.4402 69.3079 62.3987 69.8248 62.3711 70.2039L62.3434 70.8173C62.3434 72.0923 62.3849 73.0021 62.5025 74.1737L62.5716 74.6975C62.62 75.0284 62.6615 75.3592 62.6615 75.6693C62.6615 75.9795 62.62 76.3172 62.5716 76.6687L62.5025 77.2476L62.4541 77.8197C62.4264 78.185 62.3918 78.5503 62.3503 78.9087C62.3019 79.2808 62.219 79.6668 62.1291 80.0665L62.0323 80.5283L61.9354 81.0728C61.8801 81.4312 61.8179 81.8378 61.7142 82.0446L61.3339 82.4305L61.1264 82.6097C60.6424 83.0646 60.1791 83.5333 59.7435 83.9813L59.6812 84.0433L58.8584 83.7401C58.3951 83.5678 57.9249 83.4092 57.4478 83.2438C56.0786 82.7752 54.6611 82.2927 53.5755 81.5759C53.5686 79.143 53.5893 76.7721 53.9212 74.4563L54.0595 73.6499C54.1632 73.133 54.26 72.5954 54.2808 72.0579C54.2946 71.6512 54.26 71.2308 54.2255 70.8173L54.1909 70.2521C54.1148 68.984 53.9904 67.957 53.7691 66.8198L53.6377 66.2684C53.5547 65.9376 53.4717 65.5861 53.451 65.2622C53.4372 64.7522 53.4787 64.2077 53.5271 63.6287C53.5686 63.1256 53.61 62.6087 53.61 62.078C53.61 61.5473 53.5824 61.0235 53.5478 60.4928C53.5063 59.8656 53.4717 59.2798 53.4856 58.7077C53.4994 58.1426 53.5893 57.5774 53.6723 56.9847C53.7622 56.4127 53.8451 55.8199 53.8659 55.2134C53.8866 54.5793 53.8935 53.9522 53.9005 53.3181C53.9005 52.7047 53.9005 52.0982 53.9281 51.4848L53.942 51.0781L53.9558 51.085Z" fill="#0C0C0C"></path>
<path d="M237.6 49.8164L237.351 49.8853C235.906 50.5539 234.454 51.2155 233.001 51.8772C232.614 51.7324 232.234 51.5532 231.84 51.374C231.349 51.1466 230.851 50.9054 230.305 50.7262C229.924 50.6021 229.475 50.5056 229.039 50.416L228.638 50.3333L228.127 50.2093C227.719 50.1059 227.297 50.0025 226.896 49.9749C226.813 49.9749 226.723 49.9749 226.633 49.9749C226.273 49.9749 225.9 50.0163 225.534 50.0576L225.008 50.1128C223.839 50.2093 222.851 50.4022 221.73 50.6573L221.15 50.7675C220.769 50.8296 220.375 50.8985 220.064 51.0294L219.469 51.5394L219.303 51.7117C218.204 52.8145 217.208 53.807 216.143 54.8408L215.742 55.1992C215.39 55.5093 215.03 55.8264 214.816 56.1296C214.615 56.426 214.435 56.8051 214.249 57.2186L213.972 57.7906L213.765 58.2524L213.599 58.6246L213.433 58.9209L213.149 59.4516C213.011 59.8031 212.935 60.2167 212.852 60.6095L212.7 61.2919L212.527 61.8984C212.409 62.2843 212.292 62.6841 212.229 63.1045C212.153 63.6076 212.146 64.1797 212.133 64.7793L212.112 65.6477C212.015 67.7636 212.07 69.7623 212.119 71.8782L212.133 72.5467V73.1257C212.105 73.4496 212.091 73.7598 212.133 74.0286L212.375 74.6488L212.506 74.9383L212.852 75.793L213.108 76.4546C213.253 76.8406 213.384 77.2058 213.564 77.5367L213.896 78.0053L214.11 78.2741L214.753 79.1908C215.403 80.1143 216.012 80.9759 216.696 81.9201L216.945 82.2854C217.291 82.823 217.588 83.2503 217.872 83.4364C218.169 83.6293 218.577 83.7603 218.978 83.8843L219.49 84.0498C220.569 84.4426 221.578 84.7459 222.754 85.0422L223.328 85.2007C223.736 85.311 224.123 85.4213 224.489 85.4695L224.946 85.4902L225.596 85.4626C225.831 85.4489 226.073 85.442 226.329 85.442C226.474 85.442 226.619 85.442 226.764 85.4489C226.937 85.4489 227.11 85.4626 227.276 85.4626C227.539 85.4626 227.781 85.4489 227.995 85.3937L228.624 85.118L228.929 84.9595L229.288 84.7941C231.204 83.9395 233.015 83.1193 234.689 82.1406C235.083 82.6438 235.477 83.1882 235.864 83.7189C236.224 84.2152 236.583 84.7045 236.922 85.1387L237.254 85.442L237.468 85.4764L237.8 85.249V85.0284C237.503 79.6043 237.468 75.2278 237.704 72.0023L237.787 70.8582L237.019 71.7128C236.487 72.3055 235.947 72.9809 235.429 73.6426C234.972 74.2146 234.516 74.7936 234.053 75.3243L233.838 75.7447C233.638 76.1582 233.451 76.558 233.25 76.9508L233.022 77.4195C232.856 77.7641 232.69 78.1156 232.483 78.4395C232.296 78.7428 231.985 79.0323 231.667 79.3493L231.404 79.6112L230.989 80.0937L230.346 80.7346L229.558 80.9L228.963 80.9965L228.431 81.1275C228.12 81.2102 227.829 81.2929 227.573 81.2998L226.778 81.224L226.177 81.1413L225.603 81.1206C225.271 81.1137 224.932 81.1068 224.683 81.031L223.998 80.6588L223.508 80.3624L222.947 80.0799L222.284 79.7422C221.226 78.3844 220.161 76.7647 219.158 75.214L218.992 74.9866L218.771 74.6351C218.695 74.3594 218.66 73.9941 218.626 73.6081L218.577 73.1119C218.446 71.9954 218.308 70.8926 218.169 69.8175L218.093 69.3212C218.038 68.9215 217.976 68.5493 217.969 68.2116C217.969 67.8945 218.003 67.5224 218.052 67.1226L218.107 66.5781C218.204 65.5719 218.321 64.5932 218.515 63.3044L218.591 62.6496C218.626 62.2912 218.66 61.9466 218.736 61.664C218.812 61.347 218.93 61.0231 219.047 60.6991L219.22 60.2029L219.393 59.6515C219.497 59.3138 219.594 58.9968 219.704 58.7486L220.195 57.9354L220.52 57.4391L220.797 56.9705C220.977 56.6534 221.17 56.3295 221.336 56.1158L222.042 55.4542L222.477 55.082L222.899 54.6685L223.584 54.0758L224.393 53.9103L224.973 53.8139L225.54 53.6691L226.349 53.5037L226.723 53.5864L227.082 53.6829C227.449 53.7587 227.808 53.8276 228.161 53.8897L228.77 53.9999L229.095 54.0482L229.523 54.1309L229.738 54.3514L229.966 54.5927C230.533 55.1372 231.135 55.7092 231.646 56.2054C232.186 56.7292 232.614 57.3909 233.015 58.0319L233.458 58.7004C234.571 60.3476 235.726 62.0155 236.86 63.6628L237.337 64.0211L237.579 64.0074L237.787 63.7179V63.5732C237.586 60.9679 237.524 58.0112 237.489 55.2061C237.489 54.8546 237.524 54.4962 237.572 54.124L237.634 53.5657C237.683 53.0488 237.731 52.525 237.787 52.015C237.849 51.443 237.911 50.8709 237.952 50.2437L237.925 50.037L237.614 49.8233L237.6 49.8164Z" fill="#0C0C0C"></path>
<path d="M300.717 56.3223V56.7358C300.696 57.8523 300.745 58.8379 300.793 59.8786C300.814 60.3404 300.835 60.8022 300.855 61.2846L300.869 61.7257L301.305 61.6568C301.996 61.5465 302.667 61.4225 303.331 61.2984C303.842 61.195 304.354 61.0985 304.88 61.0089L305.149 60.9676L305.198 60.6988C305.315 60.0785 305.454 59.4858 305.599 58.893C305.737 58.3279 305.875 57.7558 305.979 57.17L306.062 56.7427L305.626 56.7082C304.091 56.5773 302.695 56.4601 301.118 56.3567L300.703 56.3292L300.717 56.3223Z" fill="#0C0C0C"></path>
<path d="M289.688 57.7559L289.252 58.2521C288.713 58.8655 288.187 59.4996 287.655 60.1337C287.378 60.4645 287.109 60.7884 286.832 61.1123C286.293 61.7533 285.864 62.4839 285.449 63.1869C285.242 63.5453 285.027 63.9106 284.834 64.2138L284.045 65.0615C283.416 65.7232 282.773 66.4124 282.178 67.143L281.867 67.522L282.31 67.7426C282.621 67.9011 282.939 68.0459 283.257 68.1906C283.845 68.4732 284.453 68.7626 285.02 69.0728C285.069 69.4587 285.172 69.8309 285.276 70.1893C285.387 70.5959 285.497 70.9819 285.518 71.3541L285.47 72.0364L285.428 72.4499C285.352 73.5527 285.249 74.6692 285.145 75.7582C285.034 76.8816 284.979 77.943 284.972 79.1147L284.958 79.5075C284.951 79.8177 284.937 80.1416 284.972 80.4379C285.02 80.8032 285.145 81.1547 285.276 81.4924L285.442 81.9956C285.594 82.4918 285.739 82.9949 285.878 83.5118L285.919 83.6773L286.071 83.7531L286.908 84.208C287.627 84.5939 288.367 84.9937 289.135 85.3589L289.225 85.4003H289.328C289.778 85.3727 290.22 85.3107 290.67 85.2556L290.981 85.2211L291.582 85.166C291.928 85.1384 292.295 85.1108 292.64 85.035C293 84.9592 293.339 84.8283 293.664 84.6973L294.189 84.4974L294.777 84.3113C295.109 84.2149 295.441 84.1115 295.745 83.9874L295.856 83.9461L295.925 83.8565C296.236 83.4085 296.561 82.9674 296.886 82.5194C297.529 81.6372 298.193 80.7274 298.753 79.8383L299.438 78.7494L298.262 79.2732C297.349 79.6798 296.409 80.0796 295.462 80.4724L294.964 80.6861L294.577 80.8653L293.92 81.1341C293.754 81.1616 293.581 81.1685 293.408 81.1685C293.145 81.1685 292.882 81.1478 292.606 81.1203C292.288 81.0927 291.963 81.0651 291.617 81.0651C291.534 81.0651 291.458 81.0651 291.375 81.0651L291.209 80.4793L291.002 79.735L290.843 79.2111C290.725 78.8252 290.601 78.4254 290.573 78.1291C290.552 77.8258 290.587 77.4881 290.628 77.1297L290.69 76.4405L290.725 75.8753C290.753 75.4273 290.787 74.9656 290.773 74.5038C290.767 73.9593 290.704 73.4079 290.649 72.8841C290.58 72.1674 290.511 71.4988 290.538 70.8578C290.566 70.2444 290.69 69.6173 290.801 69.0245C290.87 68.6593 290.939 68.2871 290.988 67.9218C291.181 67.9218 291.368 67.9218 291.555 67.9218C293.36 67.9218 294.791 67.7357 296.409 67.5152L296.893 67.4462L296.928 67.1499C297.011 66.4193 297.121 65.7094 297.225 65.0064C297.301 64.4826 297.377 63.9588 297.446 63.4212L297.515 62.9181L295.676 63.1662C294.293 63.3523 292.952 63.5384 291.541 63.7038C291.161 61.774 290.531 60.0785 289.902 58.383L289.674 57.7627L289.688 57.7559Z" fill="#0C0C0C"></path>
<path d="M273.576 63.2559L273.424 63.3317C273.085 63.504 272.698 63.697 272.248 63.9106L271.799 64.1587L271.225 64.4413H271.08L270.748 64.4758C270.291 64.5929 269.932 64.9238 269.69 65.4407C269.24 65.5716 268.791 65.7026 268.342 65.8335L267.519 66.0748L267.201 65.7164L267.104 65.6268L267.076 65.4062L266.972 64.8342L266.876 64.5929H264.836L264.255 64.5723C264.041 64.5585 263.826 64.5447 263.612 64.5447C263.384 64.5447 263.162 64.5585 262.948 64.6067L262.194 64.9927L261.938 65.1512L261.088 65.6543C260.445 66.0334 259.843 66.3849 259.255 66.7019L258.882 66.8949L259.11 67.2464C259.449 67.7909 259.919 68.3354 260.369 68.8592L260.908 69.4933L261.109 69.7345L261.475 70.2032C261.607 70.4375 261.703 70.727 261.814 71.0371L262.035 71.6367L262.27 72.133L262.616 72.9876C262.664 73.3253 262.658 73.7388 262.651 74.1317V74.5797L262.644 75.0346C262.644 76.0132 262.644 76.8954 262.616 77.7432V78.2463C262.616 78.584 262.616 78.9424 262.561 79.2112L262.402 79.5076L262.243 79.797L261.897 80.5L261.676 80.9825C261.53 81.2995 261.385 81.6304 261.226 81.8716L260.798 82.354L260.507 82.6504C260.182 83.0019 259.864 83.3603 259.553 83.7187C259.242 84.0633 258.944 84.4079 258.647 84.7387L258.557 84.8283L258.26 85.4693L258.329 85.7794H258.654C260.438 85.7794 262.208 85.6898 263.923 85.6071C265.742 85.5175 267.643 85.4279 269.559 85.4279H270.423L270.202 84.9593C270.831 85.0282 271.481 85.1247 272.138 85.2143C273.666 85.4279 275.229 85.6554 276.881 85.6554C277.338 85.6554 277.794 85.6416 278.257 85.6002C279.018 85.5382 279.786 85.3797 280.539 85.2212C281.182 85.0902 281.791 84.9593 282.365 84.8972L283.022 84.8214L282.648 84.2838C282.247 83.7118 281.77 83.1328 281.307 82.5746L280.712 81.8509L280.463 81.5752L280.138 81.1479C280.055 80.9067 280.014 80.5965 279.972 80.2588L279.889 79.673L279.765 79.094C279.689 78.7632 279.613 78.4531 279.599 78.1912L279.64 77.4813L279.682 76.9713L279.709 76.4061L279.737 75.6549C279.779 74.9725 279.737 74.3247 279.689 73.6286L279.654 73.1599C279.571 71.9469 279.474 70.5409 279.329 69.2038L279.301 68.7972C279.281 68.4663 279.26 68.1286 279.177 67.8391L278.845 67.2189L278.7 66.9914L278.32 66.3229C278.008 65.7784 277.704 65.2408 277.386 64.6963L277.31 64.5654L277.158 64.5171C276.494 64.3173 275.865 64.0898 275.222 63.8624C274.724 63.6832 274.219 63.5109 273.707 63.3386L273.548 63.2903L273.576 63.2559ZM269.773 84.3321L269.642 84.2149L269.469 84.0495C268.998 83.5739 268.577 83.1673 268.065 82.6849L267.851 82.4988L267.512 82.1611C267.45 81.9267 267.45 81.6028 267.45 81.2926V80.7482L267.422 80.2381C267.415 79.9073 267.408 79.5627 267.353 79.2388L267.214 78.522L267.09 77.9086L266.972 77.3779L266.834 76.6335L266.91 76.2338L266.972 75.9719L267.007 75.7789L267.118 75.2275L267.235 74.7313C267.325 74.3867 267.415 74.0352 267.415 73.6837C267.415 73.346 267.339 73.0083 267.263 72.7119L267.18 72.2984C267.118 71.94 267.055 71.5885 266.993 71.2094C268.528 70.1273 270.285 69.2176 271.986 68.3285L272.483 68.0735L272.691 68.3492L273.147 68.9695L273.417 69.3278L273.956 70.148C274.074 70.3892 274.171 70.7339 274.281 71.0991L274.433 71.5747L274.592 72.0227C274.738 72.4155 274.883 72.8222 274.917 73.1392C275.063 74.6141 275.014 76.2407 274.973 77.6811V77.8259V78.329C274.973 78.7012 274.973 79.0527 274.924 79.3215L274.613 80.1072L274.364 80.6586L274.33 80.7413C274.164 81.1824 273.998 81.6028 273.853 82.0025C272.463 82.7676 271.142 83.5395 270.029 84.2011L269.794 84.3459L269.773 84.3321Z" fill="#0C0C0C"></path>
<path d="M325.375 63.4004L325.002 63.4142C324.746 63.4762 324.407 63.5451 324.061 63.6209C323.695 63.7036 323.307 63.7864 322.996 63.8553L322.74 63.9035L322.229 64.0276L321.786 64.4549L321.758 64.5445C321.309 64.6823 320.86 64.8133 320.41 64.9442C319.774 65.1303 319.138 65.3164 318.515 65.5163L318.488 65.3164L318.405 64.8133L318.363 64.4756H316.33L315.791 64.448C315.591 64.4342 315.383 64.4204 315.183 64.4204C314.968 64.4204 314.754 64.4342 314.553 64.4825L313.896 64.8546L313.647 65.0269C313.212 65.3026 312.776 65.5714 312.347 65.8333C311.974 66.0608 311.614 66.2882 311.269 66.5019L310.916 66.7155L311.151 67.0532C311.58 67.6666 312.05 68.3145 312.507 68.9279L312.666 69.1485L312.894 69.4241L313.143 69.755C313.253 69.9893 313.329 70.2857 313.419 70.5958L313.592 71.1885L313.793 71.7399L314.083 72.5945C314.152 72.884 314.187 73.2148 314.228 73.5663L314.304 74.1866L314.394 74.7173C314.463 75.0757 314.533 75.4479 314.533 75.7374C314.533 76.0199 314.456 76.3508 314.387 76.6678L314.27 77.233L314.194 77.8739C314.159 78.2047 314.125 78.5287 314.049 78.8113L313.654 79.6728L313.399 80.169L313.17 80.6928C313.032 81.0167 312.901 81.3269 312.749 81.5681L312.119 82.3607L311.767 82.7605L311.324 83.3118L311.054 83.6427L309.18 82.8776C308.344 82.5399 307.479 82.1884 306.65 81.8231C306.677 81.4303 306.753 81.0305 306.816 80.6101C306.919 80.0243 307.023 79.4247 307.03 78.8113C307.03 78.2599 306.995 77.6878 306.947 77.1365C306.926 76.8056 306.899 76.4748 306.885 76.1509C306.857 75.5099 306.836 74.8758 306.816 74.2349C306.788 73.1941 306.76 72.1121 306.677 71.0231L306.594 70.1616C306.532 69.5896 306.47 69.052 306.504 68.5488C306.539 67.9423 306.629 67.3358 306.712 66.75C306.795 66.1848 306.878 65.599 306.906 64.958L306.885 64.7581L306.746 64.6548L306.415 64.5789L306.166 64.6203C305.73 64.6754 305.308 64.7168 304.893 64.7581C304.423 64.8064 303.967 64.8477 303.51 64.9029L303.199 64.9305L302.459 65.0269L301.816 65.344L301.54 65.5025C300.71 65.9298 299.776 66.4123 298.995 66.8671L298.49 67.1635L298.954 67.5219C299.258 67.7493 299.569 67.9837 299.873 68.2111C300.454 68.6453 301.049 69.0864 301.602 69.5551C301.74 71.092 301.706 72.6497 301.678 74.2969C301.664 75.0068 301.65 75.7305 301.65 76.4472C301.65 76.7643 301.664 77.0813 301.671 77.3984C301.692 77.936 301.719 78.446 301.671 78.9422C301.643 79.2455 301.574 79.5901 301.505 79.9485L301.415 80.4033L301.339 80.8927C301.291 81.2235 301.242 81.575 301.152 81.7956L300.848 82.1264L300.648 82.3263L300.15 82.8501C299.811 83.2153 299.479 83.5668 299.099 83.939C299.002 84.0148 298.767 84.194 298.794 84.518L298.822 84.8143L299.119 84.8626C300.786 85.152 302.577 85.4346 304.575 85.4898L305.177 85.5242L305.937 85.5656L306.352 85.538L307.092 85.2899L307.396 85.1589C308.565 84.7316 309.499 84.3732 310.259 84.0631L310.93 83.7874L310.743 84.3388L310.799 84.6213L311.082 84.6558L311.912 84.7661L312.617 84.8626L313.115 84.9384C313.495 85.0004 313.883 85.0693 314.284 85.0693C314.346 85.0693 314.401 85.0693 314.456 85.0693C314.975 85.0693 315.452 84.9591 315.943 84.8695C316.441 84.7799 316.904 84.6972 317.375 84.6834C317.458 84.6834 317.54 84.6834 317.623 84.6834C318.094 84.6834 318.55 84.7316 319.027 84.773C319.504 84.8143 319.995 84.8626 320.5 84.8626H321.274L321.005 84.2974C320.839 83.9597 320.597 83.6358 320.369 83.3256L320.099 82.9534L319.822 82.5744L319.228 81.6577L318.965 80.9203L318.778 80.3689L318.578 79.8933L318.308 79.1352C318.28 78.8802 318.301 78.5562 318.308 78.2392L318.329 77.8464C318.356 76.9504 318.398 75.9993 318.529 74.9999L318.612 74.483C318.674 74.1246 318.744 73.7524 318.737 73.3871C318.737 72.8702 318.619 72.3671 318.522 71.8915C318.446 71.5331 318.37 71.1885 318.343 70.8577L319.117 70.2305C319.477 69.9204 319.843 69.6102 320.251 69.3759C320.618 69.1691 321.026 68.9968 321.454 68.8245L322.256 68.4868L324.02 67.6666L324.421 68.1629L324.78 68.6178L325.112 68.983L325.7 69.7274C325.935 70.1685 326.094 70.6578 326.267 71.1816C326.419 71.6503 326.578 72.1328 326.799 72.6083C326.613 74.0832 326.426 75.6546 326.35 77.2881V77.9497C326.35 78.315 326.35 78.6596 326.295 78.9767L326.136 79.3626L326.032 79.597L325.769 80.2242C325.562 80.6997 325.361 81.1684 325.195 81.6164C324.794 81.8921 324.358 82.1746 323.923 82.4572C323.501 82.7398 323.079 83.0086 322.657 83.2981L322.249 83.7943L322.236 84.001L322.436 84.2147L322.54 84.2423C322.92 84.3526 323.335 84.449 323.757 84.5524L324.435 84.7178L325.022 84.8833C325.465 85.0142 325.921 85.152 326.371 85.2003C326.709 85.2347 327.083 85.2416 327.442 85.2485L328.023 85.2623L328.535 85.2968L329.33 85.3381L329.704 85.3243C330.112 85.283 330.513 85.1451 330.9 85.0073L331.425 84.8419C331.737 84.7523 332.034 84.6765 332.331 84.6076L333.14 84.4008L333.61 84.2698L333.382 83.8356C332.49 82.1471 331.46 80.1139 330.623 77.8395C330.692 77.488 330.748 77.1296 330.789 76.7712L330.865 76.2543L330.969 75.6891C331.045 75.3031 331.121 74.9034 331.135 74.4968C331.142 74.097 331.087 73.6973 331.031 73.3044L330.962 72.7462C330.796 71.1058 330.679 69.3345 330.616 67.6253V67.5012L330.54 67.4047C330.305 67.0946 330.042 66.7431 329.766 66.3985C329.51 66.0745 329.261 65.7437 329.026 65.4336L328.874 65.1992L328.445 64.6686L327.864 64.4204L327.608 64.3308L326.958 64.0758C326.405 63.8622 325.866 63.6485 325.34 63.4417" fill="#0C0C0C"></path>
<path d="M251.09 63.9531C251.007 63.9531 250.924 63.9531 250.841 63.9669C250.454 64.022 250.053 64.0496 249.658 64.0772C249.064 64.1185 248.455 64.1668 247.902 64.2977C247.584 64.3735 247.28 64.4976 246.989 64.6217L246.498 64.8078L245.98 64.9732C245.669 65.0697 245.357 65.1661 245.074 65.2971C244.707 65.4556 244.369 65.6831 244.044 65.9036L243.629 66.1793C243.11 66.4963 242.654 66.7858 242.232 67.1097L242.135 67.1855L242.101 67.3027C241.824 68.1504 241.568 69.0326 241.312 69.9079C241.195 70.3077 241.077 70.7074 240.967 71.1072L240.814 71.6172H241.347C241.561 71.6103 241.769 71.6103 241.969 71.6103C242.592 71.6103 243.159 71.6103 243.726 71.6241C244.286 71.631 244.839 71.6379 245.427 71.6379C245.599 71.6379 245.786 71.6379 245.966 71.6379H246.319L246.353 71.2864C246.381 70.9487 246.422 70.6178 246.464 70.2939L246.526 69.7701L246.561 69.2463C246.581 68.9155 246.602 68.5433 246.678 68.3296L247.114 67.8817L247.425 67.5991L247.957 67.0753C248.379 67.3647 248.808 67.6404 249.237 67.9092C249.624 68.1504 250.011 68.3986 250.391 68.6536C250.454 69.1085 250.53 69.5564 250.606 69.9975C250.689 70.5489 250.779 71.0934 250.855 71.6517C249.617 72.334 248.137 73.0508 246.823 73.6849L246.692 73.7469L246.146 73.9881C245.807 74.1328 245.461 74.2776 245.15 74.4706L244.611 74.9254L244.403 75.1253L243.719 75.7318L242.979 76.3935L242.764 76.5658L242.197 77.1447C241.997 77.5169 241.9 77.9856 241.803 78.4473L241.672 79.0194L241.568 79.364L241.409 79.9016L241.319 80.1635L241.153 80.9285L241.375 81.6935L241.464 81.9279L241.796 82.8376C241.997 83.4028 242.197 83.9611 242.391 84.5055L242.446 84.6709L242.605 84.7399L242.944 85.0362C243.221 85.305 243.497 85.5807 243.85 85.6221H243.933C244.127 85.6221 244.355 85.56 244.666 85.4567L244.943 85.374L245.489 85.2223L245.876 85.1052L246.644 84.9329C247.059 84.8501 247.453 84.7674 247.826 84.6227L248.407 84.3126L248.614 84.1885L249.202 83.8508C249.658 83.5889 250.108 83.3201 250.537 83.0926C250.862 83.389 251.18 83.6854 251.491 83.9955C251.913 84.3953 252.328 84.8019 252.777 85.181L252.908 85.2912L253.081 85.2706C253.69 85.2016 254.326 85.1534 254.948 85.1052C255.536 85.0638 256.124 85.0156 256.677 84.9535L256.836 84.9329L256.933 84.8157C257.714 83.899 258.572 82.8583 259.36 81.8727L259.609 81.1146L259.519 80.9009L259.284 80.8803C258.005 80.7631 256.642 80.6735 255.412 80.5908H255.253C255.391 78.785 255.619 76.9793 255.84 75.2287L256.006 73.933L256.124 73.1886C256.221 72.6372 256.317 72.0583 256.297 71.5483C256.283 71.1416 256.186 70.735 256.096 70.3422L255.972 69.7839C255.619 67.8817 255.156 66.2827 254.713 64.8284L254.644 64.5941L254.395 64.5596C254.042 64.5114 253.697 64.4356 253.351 64.3598L252.763 64.2426L252.348 64.153C251.933 64.0634 251.477 63.96 251.083 63.96M248.116 80.8941L247.259 80.4116L246.409 79.9291C246.561 79.4605 246.72 79.0056 246.879 78.5507C247.045 78.0545 247.218 77.5651 247.377 77.062L247.708 76.807C248.31 76.3383 248.912 75.8766 249.527 75.4148L249.99 76.1936L250.336 76.8001C250.246 77.1447 250.163 77.4618 250.066 77.7857L249.852 78.5783L249.797 78.8953L249.735 79.1917L249.133 79.8189L248.856 80.0808L248.172 80.8389L248.123 80.8941H248.116Z" fill="#0C0C0C"></path>
<path d="M344.833 63.9795C344.681 63.9795 344.535 63.9795 344.39 64.0002C344.058 64.0278 343.726 64.0416 343.401 64.0623C342.834 64.0829 342.254 64.1174 341.693 64.2139C341.161 64.3035 340.649 64.4482 340.158 64.593C339.661 64.7377 339.183 64.8755 338.706 64.9513L338.603 64.9651L338.52 65.0272C338.112 65.358 337.704 65.7233 337.303 66.0885L336.625 66.6882L336.411 66.8536L335.899 67.3636L335.712 68.0046L335.643 68.3147C335.546 68.6249 335.456 68.9281 335.36 69.2245C335.187 69.7759 335 70.341 334.855 70.9544L334.744 71.4231L335.228 71.4369C336.162 71.4644 337.047 71.5058 337.883 71.5471C338.45 71.5678 338.997 71.5954 339.522 71.6161H339.806L339.903 71.3611C340.082 70.8855 340.255 70.4099 340.428 69.9275C340.622 69.3761 340.822 68.8247 341.03 68.294L341.714 68.0528C342.164 67.8874 342.62 67.7289 343.07 67.5704L343.457 68.0873L343.754 68.487L343.968 68.7489L344.522 69.5071V70.2238L344.487 70.7752V71.9331C344.093 72.1054 343.685 72.257 343.263 72.4155C342.758 72.6016 342.233 72.7946 341.721 73.0358C341.216 73.2771 340.691 73.5872 340.179 73.8905L339.349 74.3729L339.038 74.5245L338.492 74.814L337.953 75.3585L337.773 75.5722C337.455 75.9168 337.178 76.2062 336.881 76.5164L336.293 77.1298L335.712 77.9017L335.643 78.5909V78.8666L335.602 79.4042L335.581 79.7833L335.526 80.3346C335.463 80.824 335.401 81.3202 335.47 81.6924L335.802 82.4505L335.913 82.6504L336.072 82.9743C336.3 83.443 336.514 83.8703 336.756 84.3803L336.825 84.5457C337.033 85.0282 337.178 85.3246 337.455 85.4073L337.704 85.4417L338.395 85.3315L338.651 85.2763C339.412 85.1729 340.02 85.0971 340.705 85.0144L341.002 84.9868L341.818 84.8559L342.447 84.4837L342.682 84.3114C343.194 83.9737 343.713 83.6498 344.217 83.3258L344.715 83.0157L344.957 83.3603C345.268 83.7876 345.573 84.2149 345.891 84.656L345.988 84.7939L346.624 85.4142H347.364L347.633 85.3728L348.29 85.3315C348.594 85.3108 348.899 85.2832 349.286 85.2625H349.563L350.254 85.2143L351.042 84.5802L351.208 84.4079L351.941 83.636C352.294 83.2638 352.626 82.9054 353.054 82.5195V81.4925C352.543 81.3685 352.017 81.2582 351.492 81.1479C350.717 80.9825 349.915 80.8102 349.161 80.6034C349.168 80.2037 349.148 79.8315 349.127 79.4662C349.099 78.9838 349.072 78.5358 349.12 78.0464C349.168 77.502 349.307 76.9575 349.452 76.3785C349.563 75.9099 349.687 75.4343 349.756 74.9519C349.811 74.6073 349.846 74.2351 349.874 73.8629L349.936 73.2288L350.019 72.643C350.088 72.2639 350.15 71.8711 350.136 71.492C350.123 71.1129 350.033 70.7132 349.943 70.3341L349.811 69.7069C349.493 67.8323 349.065 66.2402 348.608 64.6343L348.532 64.3586L348.242 64.3448C347.737 64.331 347.205 64.2414 346.693 64.1656C346.098 64.0691 345.49 63.9727 344.888 63.9727M343.346 80.3277L342.814 80.2313C342.122 80.1072 341.431 79.99 340.732 79.8798V79.3491C340.732 78.9907 340.732 78.6598 340.808 78.329C340.884 77.9844 341.092 77.626 341.306 77.2401C341.5 76.9023 341.7 76.5508 341.825 76.1856L342.558 75.7307L343.139 75.3654C343.498 76.0477 343.858 76.7507 344.238 77.5089C344.045 78.074 343.872 78.653 343.692 79.225C343.574 79.5903 343.464 79.9625 343.346 80.3346" fill="#0C0C0C"></path>
<path d="M157.221 10.8066L157.152 11.1237C158.694 21.2207 160.305 30.9042 162.304 40.5256C164.019 48.7686 166.003 57.2805 167.815 65.3443C168.085 66.5504 168.493 67.7841 168.603 68.9213C168.631 69.2039 168.645 69.4934 168.645 69.7759C168.645 71.0234 168.437 72.3123 168.389 73.5666C168.244 77.2539 168.223 80.7345 168.389 84.2564C168.437 84.5665 168.458 84.8629 168.465 85.1523V85.3178C168.465 85.4211 168.465 85.5245 168.465 85.6348C168.499 86.1724 168.534 86.7169 168.576 87.2682C168.582 87.3923 168.596 87.5232 168.603 87.6473C168.769 91.3346 169.253 94.7462 169.82 98.0751C160.713 82.9331 149.933 69.2521 138.973 55.7366C141.788 60.4922 145.238 64.8963 148.281 69.4934C151.337 74.118 154.456 78.7082 157.581 83.319C152.139 77.8673 146.455 72.4156 140.84 66.9571C145.3 71.4094 149.767 75.9169 154.366 80.3003C154.946 80.8585 155.583 81.4237 156.157 81.9957C156.724 82.5609 157.408 83.1192 157.878 83.6912C158.604 84.5734 159.165 85.6693 159.808 86.6411C161.702 89.4944 163.459 92.3753 165.505 95.2356C165.54 95.2769 165.568 95.3252 165.602 95.3734L165.028 95.0012C151.945 83.5189 139.824 70.7202 129.956 56.3638C131.014 57.3563 132.072 58.3625 133.13 59.3757C132.211 58.459 131.298 57.5355 130.385 56.6188L129.666 55.9847C139.022 69.8173 150.984 82.6367 163.521 93.8089C164.399 94.5877 165.443 95.2769 166.1 96.0695C166.785 96.9035 167.386 97.8684 168.251 98.6472C169.032 99.3502 170.332 100.088 170.83 100.908C171.293 101.673 171.362 102.348 172.116 102.665C172.448 102.81 172.96 102.845 173.485 102.845C173.921 102.845 174.363 102.817 174.695 102.789C174.744 102.7 174.813 102.617 174.875 102.548C174.792 102.61 174.709 102.672 174.619 102.727C174.564 102.714 174.502 102.714 174.432 102.714H174.37C174.225 102.714 174.052 102.741 173.872 102.762C173.782 102.769 173.692 102.782 173.603 102.789C173.513 102.789 173.423 102.803 173.333 102.803H173.257C173.215 102.803 173.167 102.803 173.125 102.803C172.966 102.796 172.814 102.769 172.697 102.707C172.669 102.7 172.648 102.686 172.621 102.665C172.558 90.6109 172.047 78.2188 172.047 67.3568C172.047 66.6469 172.047 65.9439 172.054 65.234C172.109 56.8945 172.524 48.6928 173.119 40.7806C173.305 38.2305 173.395 35.6942 173.81 33.213C173.858 32.9098 173.914 32.6065 173.976 32.3033C173.969 32.3033 173.955 32.3033 173.948 32.3033C173.561 32.3033 173.43 33.8609 173.326 34.3778C172.87 36.7901 172.393 39.5263 172.04 41.4147L171.971 40.9116C171.701 44.3783 171.065 47.8382 170.539 51.3394C170.021 54.82 169.668 58.3556 169.177 61.8913C167.836 55.5505 166.273 49.4027 164.959 43.0482C162.255 32.4204 159.953 21.4343 157.228 10.8135M210.763 61.7535C198.558 74.3454 186.347 86.9374 176.05 101.204C175.753 101.618 175.456 102.024 175.082 102.362C175.58 102.024 176.306 101.928 176.908 101.645C178.609 100.839 179.819 99.2123 180.988 97.8753C183.027 95.525 184.95 92.9336 186.858 90.5903C189.5 87.3509 192.203 84.1599 194.803 80.9757C197.459 77.7295 200.135 74.5453 202.818 71.4232C205.583 68.2183 208.308 65.0272 210.763 61.7466" fill="#B5CBDA"></path>
<path d="M210.264 37.3819C210.181 37.5197 209.87 37.8988 209.815 37.8988C209.801 37.8988 209.815 37.8437 209.905 37.692C209.545 38.1814 209.192 38.6707 208.84 39.1601C197.859 54.3228 188.137 70.6297 178.629 87.1984C178.138 88.0599 176.88 89.7761 176.7 90.6583C176.589 91.1752 176.555 91.761 176.555 92.3331C176.555 92.9396 176.596 93.5254 176.624 93.9872H176.7C178.2 90.9822 180.524 88.2943 182.349 85.3789C184.133 82.5324 185.724 79.5964 187.646 76.7706C187.563 76.8326 187.515 76.8602 187.487 76.8602C187.411 76.8602 187.577 76.5983 187.646 76.4535C188.4 74.8477 189.575 73.2694 190.502 71.6152C194.201 65.0539 198.136 58.5684 201.884 52.076C204.712 47.1756 207.602 42.1788 210.257 37.375" fill="#B5CBDA"></path>
<path d="M202.604 21.7999C194.61 33.4407 187.868 46.1843 182.067 59.7481C183.056 51.5188 184.245 43.4206 185.144 35.2465C185.448 32.4827 186.043 29.6983 185.794 26.8311C181.97 40.3742 179.087 54.9925 176.915 70.0519C176.604 72.1953 176.21 74.3595 176.065 76.4822C176.065 76.5167 176.065 76.5512 176.065 76.5856C176.051 76.882 176.037 77.1715 176.037 77.4609C176.037 80.0386 176.708 82.5542 176.708 85.125C177.102 84.3531 177.496 83.6501 177.925 82.9264C178.333 82.2372 178.997 81.548 179.211 80.7898C179.432 79.9835 179.439 79.053 179.564 78.2122C179.999 75.414 180.4 72.5813 180.788 69.7348C181.106 67.4122 181.41 65.0826 181.714 62.7531C181.756 62.4153 181.776 62.0638 181.797 61.7123C181.832 61.1885 181.866 60.6578 181.998 60.1754C182.212 59.3759 182.772 58.5144 183.146 57.6666C188.636 44.9644 195.06 32.8893 202.472 22.2341C194.797 41.5735 187.087 60.8715 179.494 80.2867L180.138 79.3425L179.785 79.7216C187.045 61.6572 194.036 43.3792 201.262 25.3769C201.739 24.1845 202.396 23.0542 202.618 21.793" fill="#B5CBDA"></path>
<path d="M202.457 22.2422C195.051 32.9044 188.621 44.9725 183.13 57.6748C182.764 58.5294 182.197 59.3909 181.983 60.1904C181.851 60.6729 181.817 61.1967 181.789 61.7205C181.768 62.072 181.747 62.4235 181.699 62.7612C181.395 65.0838 181.091 67.4134 180.772 69.7361C180.385 72.5825 179.984 75.4152 179.549 78.2134C179.417 79.0543 179.417 79.9916 179.189 80.7911C178.975 81.5423 178.311 82.2315 177.903 82.9276C177.467 83.6513 177.08 84.3543 176.686 85.1262C176.686 82.5555 176.022 80.0398 176.015 77.4622C176.015 77.1727 176.015 76.8763 176.036 76.5869C176.036 76.5524 176.036 76.5179 176.036 76.4835C176.181 74.3538 176.575 72.1965 176.886 70.0531C179.058 54.9868 181.941 40.3686 185.765 26.8324C185.896 26.5291 185.813 26.0329 185.834 25.64C183.953 30.6231 182.453 36.1781 180.752 41.8504C179.265 46.8196 177.792 52.1748 176.458 57.4335C176.43 57.5645 176.278 58.1434 176.209 58.1434C176.188 58.1434 176.174 58.0814 176.174 57.9367C175.808 60.1491 175.317 62.2512 174.674 64.2154C174.404 60.5419 173.871 56.8133 173.878 53.0363C173.878 52.7813 173.878 52.5332 173.885 52.2782C173.346 45.903 173.65 38.4663 173.954 32.2978C173.892 32.6011 173.837 32.9044 173.789 33.2145C173.374 35.6957 173.291 38.232 173.104 40.7821C172.509 48.6943 172.101 56.9029 172.039 65.2355C172.039 65.9385 172.039 66.6484 172.039 67.3583C172.039 78.2203 172.544 90.6055 172.613 102.667C172.634 102.681 172.661 102.694 172.682 102.701C172.807 102.756 172.952 102.784 173.111 102.798C173.152 102.798 173.201 102.798 173.249 102.798H173.325C173.415 102.798 173.505 102.798 173.595 102.784C173.685 102.784 173.775 102.77 173.865 102.756C174.044 102.736 174.21 102.715 174.362 102.715C174.383 102.715 174.404 102.715 174.425 102.715C174.494 102.715 174.563 102.715 174.618 102.729C175.234 102.35 175.642 101.791 176.05 101.219C176.036 101.219 176.022 101.219 176.008 101.226C175.967 101.24 175.925 101.268 175.891 101.302C175.815 101.378 175.752 101.495 175.704 101.598C175.655 101.695 175.607 101.771 175.545 101.785C175.538 101.785 175.531 101.785 175.517 101.785C175.503 101.785 175.496 101.785 175.483 101.778C176.319 99.5584 176.285 96.5741 176.7 93.9896H176.624C176.596 93.5209 176.554 92.9419 176.554 92.3354C176.554 91.7703 176.589 91.1844 176.7 90.6675C176.879 89.7922 178.138 88.0692 178.629 87.2077C188.137 70.6389 197.859 54.3321 208.84 39.1624C209.192 38.6731 209.552 38.1838 209.904 37.7013C210.098 37.3016 210.382 36.9845 210.554 36.571C199.878 50.3622 189.451 64.374 180.136 79.3506L179.486 80.2948C187.079 60.8796 194.789 41.5816 202.464 22.2422" fill="#A4B7C4"></path>
<path d="M156.792 10.0499C158.845 26.8667 161.245 43.7112 164.094 59.6183C161.57 50.3966 158.984 41.2369 156.148 32.2909C157.393 45.1447 159.08 57.9435 161.155 69.86C160.65 68.84 160.2 67.7648 159.578 66.8412C162.171 71.9139 164.709 76.9245 167.309 82.0453C167.682 82.7759 168.277 83.5892 168.381 84.237C168.215 80.7289 168.229 77.2484 168.381 73.5542C168.429 72.2998 168.637 71.011 168.637 69.7635C168.637 69.474 168.623 69.1915 168.595 68.9089C168.484 67.7717 168.083 66.538 167.807 65.3319C165.988 57.268 164.004 48.7562 162.296 40.5132C160.304 30.8917 158.686 21.2083 157.144 11.1113C157.089 10.746 157.02 10.0499 156.785 10.043M168.464 85.6293C168.464 85.8843 168.45 86.1255 168.45 86.3736C168.45 86.7665 168.471 87.1524 168.574 87.5384C168.574 87.5729 168.588 87.6073 168.602 87.6418C168.595 87.5177 168.581 87.3868 168.574 87.2627C168.533 86.7182 168.498 86.1737 168.464 85.6293Z" fill="#A4B7C4"></path>
<path d="M215.417 47.4327C205.356 56.5028 196.042 66.2414 187.647 76.7657C185.725 79.5915 184.135 82.5275 182.358 85.374C180.532 88.2894 178.209 90.9773 176.701 93.9823C176.286 96.5669 176.321 99.5512 175.484 101.77C175.498 101.77 175.505 101.77 175.519 101.77C175.519 101.77 175.533 101.77 175.54 101.77C175.602 101.757 175.65 101.674 175.699 101.577C175.754 101.481 175.809 101.364 175.885 101.281C175.92 101.247 175.961 101.219 176.003 101.205C176.017 101.205 176.031 101.198 176.044 101.198C186.341 86.9247 198.552 74.3397 210.757 61.7477C211.089 61.4444 211.504 60.9068 211.476 60.4864C211.082 60.6656 210.964 61.0791 210.688 61.3686L209.754 62.2508C207.894 64.091 205.847 65.7451 203.883 67.4613C202.57 68.6054 201.083 69.6047 199.735 70.7351C198.372 71.8585 197.086 73.0577 195.51 73.933C195.205 74.5464 194.362 74.6912 194.078 75.3183C192.813 75.8766 192.018 77.193 190.863 77.641C199.05 67.6129 207.458 57.447 215.41 47.4258" fill="#8EA7BB"></path>
<path d="M129.957 56.3496C139.824 70.706 151.946 83.5047 165.029 94.9871L165.603 95.3661C165.575 95.3179 165.541 95.2765 165.506 95.2283C163.466 92.3611 161.703 89.4802 159.808 86.6337C159.165 85.6551 158.605 84.5661 157.879 83.6839C157.409 83.1119 156.724 82.5536 156.157 81.9884C155.59 81.4164 154.954 80.8443 154.366 80.293C149.775 75.9027 145.308 71.3952 140.841 66.9497C138.276 64.3928 135.717 61.8564 133.131 59.3753C132.08 58.3621 131.022 57.3559 129.957 56.3634" fill="#A4B7C4"></path>
<path d="M169.322 0C168.824 1.64723 168.7 3.37027 168.465 5.08641C166.778 17.1821 165.45 29.9809 164.959 43.0346C166.28 49.3961 167.836 55.537 169.184 61.8778C169.675 58.3352 170.021 54.8064 170.539 51.3259C171.065 47.8247 171.701 44.3717 171.971 40.8981C171.12 27.2447 170.076 13.743 169.329 0" fill="#8EA7BB"></path>
<path d="M181.278 15.832C178.105 27.3488 175.539 39.4032 173.9 52.2709C173.9 52.5259 173.9 52.774 173.9 53.029C173.9 56.8128 174.426 60.5415 174.696 64.2081C175.339 62.2438 175.83 60.1417 176.196 57.9362C177.89 43.9451 179.743 29.768 181.278 15.8458" fill="#8EA7BB"></path>
<path d="M138.898 26.2598C144.188 43.9106 151.649 60.1278 159.87 75.0769C160.147 75.5732 160.576 76.0418 160.513 76.4554C158.812 74.753 156.918 72.8301 155.002 71.2449C153.045 68.998 150.466 67.3095 148.558 65.0213C145.709 62.6435 143.012 59.5765 140.329 56.7851C140.073 56.3785 139.714 56.0408 139.396 55.6548C139.071 55.2551 138.863 54.7244 138.469 54.4625C138.441 54.9105 138.67 55.3102 138.967 55.7168C149.927 69.2393 160.707 82.9133 169.821 98.0623C169.254 94.7334 168.763 91.3217 168.604 87.6344C168.597 87.6 168.583 87.5655 168.576 87.5379C168.472 87.152 168.452 86.766 168.452 86.3732C168.452 86.1319 168.452 85.8838 168.465 85.6288C168.465 85.5254 168.465 85.422 168.465 85.3118V85.1464C168.465 84.8569 168.445 84.5605 168.389 84.2504C168.279 83.5887 167.691 82.7686 167.318 82.0449C164.718 76.924 162.18 71.9134 159.587 66.8408C159.227 65.7794 158.633 64.9799 158.155 64.015C152.043 51.7676 145.792 39.4651 139.617 27.3901C139.403 26.9697 139.237 26.4321 138.898 26.2598Z" fill="#8EA7BB"></path>
<path d="M206.855 89.6389C204.677 89.6389 202.554 89.8801 200.508 90.4177C194.181 92.0649 189.029 96.407 185.191 103.313L185.855 103.726C191.276 96.021 198.046 92.2235 206.42 92.2235C208.646 92.2235 210.984 92.4922 213.438 93.0229C223.721 95.256 234.701 101.831 244.389 107.627C251.276 111.749 257.783 115.643 263.239 117.531C265.548 118.331 268.162 118.731 270.796 118.731C272.809 118.731 274.842 118.489 276.736 118.007C281.646 116.76 285.352 114.023 287.198 110.288C291.409 108.847 295.752 106.022 299.949 103.292C303.683 100.866 307.542 98.3575 311.165 96.9446C312.811 96.3036 315.086 95.7798 317.305 95.7798C319.525 95.7798 321.814 96.3312 323.204 97.8957C324.476 99.3155 324.711 101.383 323.854 103.437C322.346 107.028 318.405 108.868 314.968 108.868C314.373 108.868 313.793 108.813 313.246 108.703C312.251 108.503 309.934 107.8 309.934 105.594C309.934 104.85 310.266 104.168 310.868 103.685C311.4 103.251 312.112 103.017 312.811 103.017C313.025 103.017 313.239 103.037 313.454 103.085L315.494 103.527L313.751 102.376C313.212 102.017 312.548 101.838 311.843 101.838C311.137 101.838 310.474 102.003 309.803 102.334C308.385 103.03 307.445 104.305 307.348 105.649C307.161 108.261 309.83 110.508 312.437 110.97C313.074 111.087 313.724 111.136 314.374 111.136C319.207 111.136 324.165 108.117 325.831 103.885C326.647 101.804 326.64 99.5291 325.811 97.6407C325.057 95.9314 323.708 94.6564 321.904 93.9603C320.659 93.4778 319.235 93.2711 317.755 93.2711C314.885 93.2711 311.815 94.0499 309.478 95.0906C306.007 96.6413 302.549 98.9709 299.202 101.225C295.399 103.782 291.804 106.208 288.249 107.538C290.22 99.9151 285.829 94.8287 280.954 92.575C279.004 91.679 276.902 91.2172 274.835 91.2172C273.791 91.2172 272.753 91.3344 271.751 91.5687C266.661 92.7541 263.335 96.5311 263.667 100.756C263.923 103.995 265.624 106.773 268.584 108.785C271.481 110.756 275.34 111.804 279.184 111.804C280.754 111.804 282.317 111.632 283.81 111.266C281.12 114.974 276.474 116.553 271.675 116.553C269.102 116.553 266.482 116.098 264.096 115.271C260.41 113.996 255.19 110.784 249.139 107.055C236.914 99.536 220.782 89.6113 206.862 89.6113M278.804 109.757C275.326 109.757 271.502 108.847 268.549 105.76C267.097 104.243 266.24 102.451 266.15 100.721C266.011 98.2403 267.381 96.214 270.001 95.0148C271.502 94.3325 273.113 93.9947 274.724 93.9947C277.614 93.9947 280.484 95.0768 282.648 97.1238C285.829 100.143 286.714 104.533 285.034 108.896C283.374 109.337 281.176 109.75 278.811 109.75" fill="#0C0C0C"></path>
<path d="M139.459 89.418C125.65 89.418 109.642 99.3427 97.5069 106.869C91.5048 110.591 86.3118 113.802 82.6608 115.084C80.296 115.911 77.7029 116.366 75.1444 116.366C70.3801 116.366 65.7749 114.788 63.1058 111.08C64.5856 111.438 66.1345 111.611 67.6903 111.611C71.4865 111.611 75.2966 110.577 78.1593 108.633C81.1326 106.614 82.8406 103.829 83.0964 100.569C83.4284 96.3446 80.13 92.5677 75.0822 91.3822C74.0796 91.1479 73.0493 91.0307 72.019 91.0307C69.9583 91.0307 67.877 91.4925 65.9409 92.3885C61.0936 94.6422 56.7442 99.7286 58.6942 107.344C55.1745 106.014 51.5927 103.588 47.831 101.031C44.5188 98.7775 41.0822 96.448 37.6317 94.8972C35.3152 93.8496 32.2658 93.0777 29.4169 93.0777C27.9441 93.0777 26.5335 93.2845 25.2888 93.7669C21.4442 95.2625 19.7708 99.5288 21.3958 103.685C23.0484 107.917 27.9717 110.935 32.7706 110.935C33.4137 110.935 34.0568 110.88 34.686 110.77C37.279 110.301 39.9274 108.054 39.7407 105.449C39.6439 104.084 38.7035 102.809 37.279 102.12C36.6152 101.796 35.9307 101.631 35.2738 101.631C34.5754 101.631 33.9254 101.81 33.3791 102.168L31.6504 103.319L33.6834 102.878C33.8908 102.83 34.0982 102.809 34.3126 102.809C35.0041 102.809 35.7025 103.044 36.2349 103.471C36.8365 103.954 37.1684 104.636 37.1684 105.387C37.1684 107.599 34.852 108.302 33.8562 108.502C33.3238 108.613 32.7568 108.661 32.1828 108.661C28.7739 108.661 24.8532 106.828 23.3527 103.237C22.4952 101.183 22.7303 99.1083 23.9957 97.6954C25.3787 96.1378 27.5845 95.5795 29.8526 95.5795C32.1206 95.5795 34.3126 96.1034 35.9445 96.7443C39.5333 98.1572 43.3641 100.666 47.0635 103.092C51.2331 105.821 55.541 108.647 59.7175 110.081C62.5249 115.801 69.2738 118.551 75.9673 118.551C78.5673 118.551 81.1534 118.138 83.4975 117.317C88.9118 115.429 95.3702 111.542 102.202 107.413C111.814 101.624 122.711 95.0489 132.918 92.8158C135.352 92.2851 137.675 92.0163 139.881 92.0163C148.199 92.0163 154.913 95.8139 160.286 103.519L160.95 103.106C157.133 96.1861 152.009 91.844 145.703 90.2037C143.684 89.673 141.589 89.4317 139.438 89.4317M68.0637 109.543C65.7265 109.543 63.5414 109.123 61.8957 108.688C60.2154 104.291 61.1143 99.8803 64.309 96.8615C66.4456 94.849 69.2738 93.7876 72.1227 93.7876C73.7131 93.7876 75.3104 94.1184 76.7971 94.8007C79.397 96 80.7592 98.0263 80.6209 100.507C80.5172 102.237 79.6736 104.029 78.2353 105.546C75.3104 108.633 71.5142 109.543 68.0637 109.543Z" fill="#0C0C0C"></path>
<path d="M147.285 111.866C147.174 111.784 147.119 111.687 147.119 111.577C147.112 111.563 147.105 111.522 147.098 111.466C147.091 111.411 147.084 111.336 147.077 111.239C147.036 110.956 146.96 110.743 146.849 110.605C146.58 110.288 146.351 110.102 146.179 110.047C146.089 110.019 145.805 109.998 145.342 109.998H144.962C144.872 109.992 144.775 109.985 144.692 109.978C144.609 109.971 144.519 109.978 144.429 109.978C143.931 109.978 143.62 110.054 143.475 110.212C143.344 110.364 143.274 110.584 143.274 110.874C143.274 110.901 143.274 110.956 143.274 111.025C143.274 111.094 143.274 111.177 143.274 111.267C143.274 111.349 143.274 111.439 143.274 111.529C143.274 111.618 143.274 111.694 143.274 111.763V112.962C143.274 112.962 143.274 113.031 143.261 113.086C143.254 113.127 143.254 113.162 143.261 113.19C143.261 113.217 143.267 113.252 143.274 113.279C143.281 113.348 143.323 113.417 143.399 113.479C143.468 113.527 143.662 113.548 143.966 113.548C144.27 113.548 144.491 113.527 144.637 113.486C144.782 113.445 144.872 113.403 144.906 113.362C144.948 113.32 144.989 113.217 145.031 113.052C145.072 112.879 145.086 112.721 145.086 112.562V112.321C145.086 112.197 145.107 112.107 145.155 112.045C145.217 112.025 145.307 112.025 145.425 112.059C145.466 112.087 145.522 112.183 145.598 112.349C145.674 112.507 145.715 112.693 145.715 112.9V113.1C145.715 113.245 145.701 113.341 145.681 113.389C145.681 113.41 145.681 113.458 145.701 113.52C145.715 113.589 145.722 113.638 145.722 113.665V113.975C145.722 113.975 145.736 114.058 145.757 114.285C145.771 114.403 145.784 114.506 145.791 114.609C145.798 114.713 145.805 114.802 145.805 114.885C145.805 115.188 145.757 115.381 145.667 115.478C145.577 115.574 145.487 115.595 145.397 115.547C145.328 115.54 145.273 115.45 145.224 115.278C145.211 115.216 145.197 115.161 145.183 115.106C145.169 115.05 145.155 114.995 145.141 114.947C145.003 114.478 144.733 114.189 144.339 114.079C144.236 114.051 143.98 114.03 143.565 114.03L143.261 114.306V114.906L143.295 114.995L143.281 115.044L143.295 115.092V115.174C143.295 115.174 143.281 115.243 143.281 115.278C143.288 115.354 143.281 115.602 143.247 116.015C143.233 116.257 143.219 116.463 143.212 116.649C143.205 116.829 143.198 116.98 143.198 117.104C143.198 117.573 143.247 117.869 143.337 117.993C143.447 118.124 143.586 118.2 143.765 118.221C143.807 118.228 143.869 118.235 143.959 118.241C144.049 118.241 144.166 118.241 144.325 118.241C144.422 118.241 144.554 118.255 144.72 118.283C144.879 118.31 144.996 118.324 145.065 118.324C145.252 118.331 145.515 118.303 145.867 118.235C146.268 118.159 146.614 117.986 146.898 117.725C147.064 117.58 147.188 117.421 147.285 117.263C147.382 117.104 147.479 116.939 147.582 116.767L147.893 116.27L148.046 115.774C148.108 115.664 148.17 115.622 148.246 115.636C148.322 115.636 148.398 115.705 148.467 115.843C148.516 115.933 148.537 116.057 148.537 116.201C148.537 116.456 148.46 116.78 148.308 117.187L148.101 117.704C148.08 117.787 148.052 117.876 148.032 117.973C148.011 118.062 147.983 118.152 147.963 118.241C147.88 118.545 147.81 118.717 147.755 118.758C147.686 118.8 147.603 118.814 147.513 118.807C147.472 118.8 147.43 118.793 147.389 118.793C147.347 118.793 147.299 118.793 147.25 118.779C147.195 118.786 147.126 118.793 147.029 118.793H146.69L142.7 118.724C142.659 118.724 142.59 118.724 142.493 118.745C142.396 118.765 142.32 118.758 142.286 118.758C142.292 118.758 142.286 118.758 142.244 118.758C142.209 118.758 142.161 118.765 142.099 118.779C142.037 118.793 141.988 118.793 141.947 118.793H141.4C141.324 118.8 141.262 118.807 141.214 118.807C141.165 118.807 141.117 118.807 141.069 118.807C141.02 118.807 140.979 118.807 140.944 118.807C140.73 118.793 140.578 118.731 140.502 118.621C140.502 118.483 140.55 118.393 140.64 118.352C140.702 118.345 140.799 118.331 140.944 118.317C141.207 118.317 141.407 118.29 141.539 118.235C141.822 118.117 141.967 117.766 141.967 117.173C141.967 117.111 141.967 117.049 141.967 116.987C141.967 116.925 141.961 116.87 141.947 116.815C141.94 116.76 141.933 116.663 141.926 116.518C141.919 116.374 141.912 116.188 141.905 115.96V115.726C141.905 115.622 141.905 115.505 141.919 115.367C141.926 115.223 141.933 115.099 141.933 114.995V113.183C141.933 113.093 141.933 112.983 141.947 112.859C141.954 112.735 141.961 112.631 141.961 112.549V110.86C141.933 110.474 141.822 110.219 141.636 110.088C141.615 110.067 141.532 110.04 141.4 110.005C141.269 109.957 141.186 109.936 141.158 109.936C141.069 109.978 140.903 109.998 140.667 110.005C140.529 109.978 140.446 109.909 140.412 109.805C140.37 109.723 140.391 109.654 140.467 109.599C140.55 109.537 141.027 109.509 141.891 109.509H142.631C142.7 109.509 142.776 109.509 142.866 109.523C142.949 109.53 143.019 109.537 143.067 109.537H143.751C143.751 109.537 143.807 109.537 143.876 109.523C143.938 109.516 143.993 109.509 144.035 109.509H146.794C147.209 109.461 147.485 109.53 147.617 109.709C147.624 109.716 147.631 109.998 147.631 110.55C147.645 111.094 147.645 111.384 147.631 111.404C147.631 111.639 147.548 111.784 147.389 111.852H147.285V111.866Z" fill="#8EA7BB"></path>
<path d="M155.402 111.99C155.382 111.928 155.354 111.866 155.326 111.79C155.299 111.714 155.264 111.645 155.229 111.563C155.105 111.273 154.911 110.991 154.635 110.722C154.158 110.26 153.508 110.026 152.699 110.026C152.526 110.026 152.367 110.039 152.222 110.06C152.028 110.088 151.807 110.198 151.551 110.37C151.267 110.563 151.074 110.763 150.984 110.963C150.928 111.08 150.901 111.225 150.901 111.404C150.901 111.611 150.942 111.797 151.025 111.949C151.177 112.224 151.53 112.479 152.083 112.7C152.09 112.707 152.291 112.748 152.678 112.817L153.176 112.907C153.293 112.92 153.432 112.948 153.598 112.989C153.764 113.031 153.957 113.079 154.172 113.141C155.07 113.479 155.658 114.161 155.935 115.174C156.025 115.512 156.073 115.843 156.073 116.16C156.073 117.056 155.734 117.793 155.05 118.379C155.036 118.393 154.911 118.455 154.676 118.551C154.621 118.565 154.559 118.586 154.483 118.613C154.407 118.641 154.317 118.675 154.213 118.71C153.535 118.903 152.989 118.999 152.574 118.999C151.993 118.999 151.454 118.91 150.963 118.724L150.514 118.551C150.32 118.455 150.182 118.413 150.099 118.434C150.043 118.448 149.981 118.489 149.912 118.558C149.891 118.613 149.822 118.675 149.705 118.758C149.58 118.813 149.463 118.786 149.345 118.689C149.283 118.627 149.269 118.358 149.31 117.883C149.317 117.717 149.317 117.593 149.31 117.49C149.304 117.421 149.297 117.352 149.297 117.283C149.297 117.214 149.297 117.145 149.297 117.076V116.546C149.283 116.36 149.269 116.222 149.255 116.132C149.241 116.043 149.234 116.008 149.234 116.022C149.241 115.932 149.255 115.85 149.283 115.787C149.304 115.725 149.366 115.643 149.469 115.553C149.622 115.553 149.753 115.643 149.864 115.829C149.871 115.843 149.905 115.98 149.967 116.242C150.016 116.49 150.085 116.773 150.175 117.097C150.23 117.235 150.355 117.414 150.555 117.641C150.631 117.724 150.693 117.793 150.742 117.841C150.79 117.89 150.825 117.931 150.846 117.952C150.901 118.007 150.956 118.055 151.011 118.089C151.067 118.131 151.122 118.165 151.171 118.193C151.309 118.255 151.613 118.331 152.076 118.413C152.263 118.441 152.436 118.462 152.602 118.469C152.768 118.475 152.927 118.469 153.086 118.455C153.397 118.413 153.736 118.269 154.109 118.014C154.22 117.959 154.386 117.841 154.607 117.669C154.856 117.359 154.981 116.987 154.981 116.546C154.981 116.318 154.939 116.077 154.856 115.843C154.586 115.119 153.95 114.63 152.941 114.388L152.305 114.237C151.413 114.03 150.783 113.727 150.403 113.334C150.057 112.982 149.884 112.541 149.884 112.024C149.884 111.225 150.154 110.598 150.686 110.143C150.763 110.074 151.018 109.964 151.454 109.805C152 109.612 152.533 109.516 153.044 109.516C153.556 109.516 154.026 109.598 154.414 109.771L154.621 109.86C154.773 109.929 154.898 109.943 154.981 109.908L155.064 109.86C155.064 109.86 155.112 109.819 155.147 109.778C155.174 109.736 155.243 109.688 155.354 109.626C155.492 109.571 155.61 109.605 155.7 109.716C155.748 109.778 155.769 109.943 155.769 110.205V110.701C155.817 110.901 155.886 111.232 155.976 111.687C155.997 111.797 156.004 111.893 155.99 111.99C155.99 112.135 155.935 112.224 155.817 112.259C155.693 112.259 155.561 112.169 155.423 111.99H155.402Z" fill="#8EA7BB"></path>
<path d="M159.724 112.749C159.682 112.742 159.648 112.722 159.62 112.68C159.592 112.639 159.572 112.584 159.565 112.501C159.551 112.418 159.544 112.308 159.537 112.163C159.537 112.122 159.537 112.074 159.551 111.998C159.565 111.922 159.565 111.853 159.572 111.777C159.572 111.701 159.579 111.626 159.592 111.55C159.599 111.474 159.606 111.419 159.606 111.371V110.992C159.606 110.233 159.627 109.834 159.675 109.785C159.779 109.682 160.194 109.634 160.941 109.634H161.356L161.612 109.668H163.167C163.167 109.668 163.223 109.668 163.257 109.655H163.942L164.405 109.71H165.242C165.511 109.682 165.754 109.655 165.968 109.648C166.182 109.634 166.362 109.627 166.507 109.627H166.818C166.874 109.627 166.95 109.627 167.047 109.648C167.15 109.661 167.233 109.661 167.302 109.661H167.627C168.188 109.661 168.519 109.661 168.644 109.661C168.761 109.661 168.665 109.655 168.347 109.641C168.699 109.648 168.914 109.71 168.983 109.827C169.031 109.889 169.045 109.999 169.031 110.165C169.01 110.482 168.997 110.668 168.997 110.723V112.074C168.997 112.177 168.997 112.149 169.01 112.005C169.003 112.349 168.941 112.563 168.824 112.639C168.706 112.715 168.616 112.728 168.547 112.687C168.436 112.625 168.34 112.411 168.257 112.053C168.25 112.012 168.243 111.97 168.236 111.922C168.229 111.874 168.215 111.819 168.201 111.757L168.153 111.688L168.132 111.598L168.118 111.529L168.063 111.44C168.035 111.378 167.994 111.302 167.952 111.212C167.911 111.123 167.856 111.012 167.793 110.902C167.648 110.585 167.42 110.385 167.123 110.302C166.777 110.213 166.383 110.178 165.94 110.199C165.553 110.22 165.283 110.302 165.131 110.433C165.021 110.523 164.965 110.716 164.958 110.998V111.598C164.972 111.901 164.972 112.232 164.958 112.591C164.944 112.728 164.931 112.908 164.91 113.128C164.889 113.349 164.882 113.604 164.861 113.9C164.868 114.045 164.875 114.231 164.875 114.445V115.196C164.875 115.244 164.875 115.299 164.875 115.368C164.875 115.437 164.868 115.52 164.855 115.609C164.848 115.699 164.841 115.782 164.841 115.851C164.841 115.919 164.841 115.975 164.841 116.016V116.409C164.841 116.554 164.841 116.726 164.855 116.919C164.855 116.995 164.861 117.098 164.875 117.222C164.889 117.346 164.896 117.456 164.896 117.56C164.882 117.904 164.938 118.132 165.055 118.228C165.131 118.297 165.249 118.332 165.401 118.332C165.463 118.332 165.546 118.332 165.664 118.311C165.781 118.29 165.857 118.29 165.913 118.29C166.134 118.29 166.279 118.366 166.327 118.511C166.348 118.614 166.314 118.697 166.224 118.766L165.47 118.883C165.415 118.883 165.29 118.869 165.097 118.849C164.896 118.828 164.772 118.814 164.723 118.814H164.488C164.488 118.814 164.44 118.814 164.405 118.8H164.218C164.218 118.8 164.163 118.814 164.129 118.814H163.755L163.306 118.869C163.16 118.89 162.96 118.89 162.704 118.856C162.545 118.842 162.414 118.821 162.324 118.8C162.234 118.78 162.165 118.745 162.123 118.711C162.082 118.676 162.061 118.642 162.061 118.601C162.061 118.559 162.061 118.518 162.082 118.476C162.137 118.359 162.22 118.325 162.324 118.359H162.773C162.974 118.359 163.133 118.297 163.25 118.18C163.368 118.063 163.43 117.849 163.451 117.553C163.444 117.615 163.437 117.581 163.437 117.45V115.864C163.437 115.809 163.437 115.733 163.451 115.63C163.458 115.527 163.465 115.416 163.465 115.285V114.961C163.465 114.831 163.479 114.617 163.499 114.327C163.52 114.114 163.52 113.9 163.485 113.693C163.444 113.376 163.465 112.956 163.534 112.418V112.115C163.534 112.06 163.534 111.984 163.548 111.888C163.555 111.791 163.562 111.722 163.562 111.674C163.555 111.598 163.548 111.46 163.541 111.26C163.534 111.061 163.527 110.868 163.52 110.681C163.52 110.564 163.485 110.468 163.416 110.378C163.299 110.247 163.091 110.192 162.787 110.22H161.791C161.522 110.22 161.314 110.268 161.162 110.371C161.121 110.399 161.065 110.461 160.982 110.537C160.899 110.619 160.809 110.723 160.699 110.854C160.56 111.019 160.422 111.343 160.291 111.826C160.242 111.936 160.222 112.094 160.222 112.315C160.201 112.404 160.173 112.473 160.139 112.522C160.111 112.577 160.076 112.625 160.042 112.666C160.007 112.708 159.966 112.742 159.917 112.777C159.848 112.777 159.793 112.777 159.751 112.763L159.724 112.749Z" fill="#8EA7BB"></path>
<path d="M170.753 117.464C170.96 117.616 171.064 117.816 171.057 118.057C171.057 118.188 171.029 118.298 170.967 118.395C170.912 118.491 170.836 118.567 170.739 118.629C170.649 118.684 170.538 118.719 170.428 118.732C170.31 118.746 170.2 118.732 170.082 118.677C169.861 118.581 169.716 118.402 169.653 118.16C169.64 118.064 169.646 117.96 169.674 117.857C169.702 117.754 169.743 117.657 169.799 117.581C169.854 117.499 169.923 117.43 169.999 117.382C170.075 117.333 170.172 117.299 170.269 117.299C170.428 117.299 170.594 117.354 170.753 117.471V117.464Z" fill="#8EA7BB"></path>
<path d="M178.982 117.574C179.058 117.601 179.106 117.608 179.141 117.588H181.416L182.238 117.608C182.453 117.601 182.605 117.581 182.688 117.553C182.799 117.526 182.909 117.436 183.027 117.298C183.041 117.257 183.068 117.209 183.103 117.146C183.137 117.084 183.172 117.009 183.213 116.926C183.22 116.864 183.31 116.747 183.49 116.568H183.594L183.677 116.65C183.684 116.857 183.677 117.036 183.642 117.181C183.531 117.539 183.442 117.884 183.366 118.208C183.296 118.49 183.207 118.67 183.096 118.752C183.103 118.745 182.819 118.739 182.252 118.739C182.197 118.739 182.128 118.739 182.038 118.745C181.948 118.745 181.837 118.759 181.706 118.773C181.575 118.787 181.464 118.794 181.367 118.801C181.277 118.801 181.194 118.807 181.139 118.807H180.759C180.634 118.807 180.51 118.807 180.378 118.794C180.247 118.78 180.15 118.78 180.088 118.78C180.026 118.78 180.005 118.78 180.019 118.78H178.753C178.546 118.794 178.373 118.794 178.235 118.78C178.041 118.773 177.917 118.739 177.861 118.69C177.806 118.642 177.771 118.566 177.771 118.484C177.785 118.408 177.799 118.332 177.806 118.256C177.813 118.18 177.861 118.07 177.944 117.932C178.055 117.753 178.117 117.636 178.145 117.574C178.186 117.477 178.221 117.374 178.262 117.277C178.304 117.181 178.339 117.084 178.38 116.981C178.491 116.74 178.594 116.561 178.705 116.43C178.885 116.216 179.224 115.933 179.735 115.596L180.233 115.258C180.482 115.086 180.724 114.886 180.966 114.652C181.208 114.417 181.443 114.141 181.685 113.838C181.761 113.776 181.844 113.687 181.941 113.569C182.031 113.452 182.142 113.321 182.252 113.163C182.315 113.025 182.349 112.756 182.37 112.363C182.377 111.977 182.315 111.64 182.169 111.357C182.059 111.15 181.851 110.95 181.54 110.757C181.402 110.675 181.222 110.592 180.994 110.516C180.779 110.434 180.613 110.378 180.51 110.365C180.496 110.365 180.448 110.365 180.358 110.385C180.275 110.399 180.15 110.413 179.998 110.427C179.68 110.454 179.5 110.489 179.466 110.516C178.947 110.771 178.657 111.164 178.581 111.695C178.532 112.039 178.615 112.301 178.823 112.467C178.968 112.577 179.092 112.591 179.196 112.515C179.265 112.46 179.32 112.405 179.355 112.336C179.39 112.274 179.431 112.232 179.479 112.212C179.604 112.212 179.721 112.267 179.825 112.37C179.908 112.453 179.963 112.577 179.991 112.729C180.019 112.977 179.929 113.204 179.715 113.425C179.542 113.597 179.307 113.68 179.009 113.68C178.968 113.68 178.933 113.68 178.906 113.68C178.878 113.68 178.843 113.673 178.802 113.659C178.712 113.638 178.636 113.618 178.574 113.604C178.518 113.59 178.47 113.576 178.442 113.569C178.318 113.521 178.221 113.466 178.138 113.404C178.076 113.342 177.979 113.149 177.834 112.811C177.758 112.598 177.758 112.253 177.834 111.791C177.91 111.392 177.993 111.123 178.076 110.985C178.304 110.592 178.581 110.309 178.899 110.13C179.203 109.958 179.632 109.855 180.185 109.82C180.862 109.772 181.492 109.875 182.066 110.13C182.308 110.241 182.522 110.365 182.716 110.502C182.909 110.647 183.082 110.806 183.227 110.985C183.614 111.46 183.808 111.936 183.808 112.405C183.808 112.646 183.767 112.901 183.691 113.177C183.587 113.611 183.289 114.031 182.785 114.438C182.37 114.776 181.913 115.072 181.429 115.32L180.641 115.713C179.708 116.182 179.113 116.767 178.857 117.457C178.878 117.498 178.926 117.526 179.002 117.553L178.982 117.574Z" fill="#8EA7BB"></path>
<path d="M191.561 110.177C191.989 110.384 192.356 110.673 192.674 111.046C193.324 111.824 193.649 112.886 193.649 114.237C193.649 114.368 193.649 114.498 193.635 114.616C193.628 114.74 193.614 114.864 193.601 114.988C193.531 115.615 193.317 116.256 192.964 116.918C192.536 117.752 192.01 118.31 191.388 118.592C190.973 118.779 190.6 118.868 190.275 118.868C189.811 118.868 189.286 118.682 188.712 118.317C188.304 118.055 187.924 117.524 187.585 116.718C187.294 116.022 187.142 115.457 187.135 115.015C187.128 114.547 187.135 114.126 187.163 113.747C187.191 113.375 187.232 113.037 187.294 112.748C187.509 111.755 187.944 111.011 188.608 110.529C188.719 110.446 188.843 110.363 188.988 110.294C189.134 110.218 189.3 110.156 189.473 110.094C189.846 109.963 190.157 109.895 190.413 109.895C190.793 109.895 191.174 109.984 191.561 110.17V110.177ZM188.511 114.533V115.16C188.511 115.705 188.574 116.235 188.712 116.745C188.912 117.476 189.224 117.958 189.652 118.193C189.853 118.303 190.074 118.351 190.316 118.351C190.627 118.351 190.89 118.275 191.104 118.131C191.547 117.848 191.865 117.262 192.059 116.373C192.197 115.787 192.266 115.188 192.266 114.581V113.54C192.266 112.197 191.976 111.273 191.388 110.756C191.104 110.508 190.779 110.384 190.413 110.384C190.371 110.384 190.33 110.384 190.288 110.384C190.247 110.384 190.205 110.391 190.164 110.405C189.853 110.467 189.618 110.584 189.445 110.763C188.823 111.418 188.518 112.672 188.518 114.533H188.511Z" fill="#8EA7BB"></path>
<path d="M195.15 118.848C194.673 118.848 194.389 118.772 194.313 118.628C194.258 118.545 194.258 118.455 194.299 118.373C194.32 118.345 194.368 118.318 194.43 118.297C194.5 118.276 194.569 118.262 194.659 118.249C194.749 118.235 194.832 118.228 194.928 118.228C195.018 118.228 195.108 118.221 195.198 118.207C195.288 118.2 195.371 118.18 195.44 118.145C195.509 118.111 195.571 118.056 195.627 117.98C195.682 117.904 195.724 117.801 195.751 117.67C195.779 117.539 195.8 117.38 195.8 117.18C195.8 117.139 195.807 117.084 195.827 116.994C195.848 116.912 195.855 116.843 195.855 116.794V116.167L195.8 115.533V115.361C195.8 115.285 195.813 115.202 195.834 115.106C195.855 115.016 195.869 114.961 195.869 114.947V114.368L195.924 112.494C195.931 112.452 195.938 112.411 195.938 112.37C195.938 112.328 195.938 112.28 195.952 112.246C195.972 112.087 195.986 111.935 195.986 111.804C195.986 111.35 195.883 111.039 195.675 110.881C195.592 110.805 195.482 110.764 195.35 110.764C195.281 110.764 195.177 110.784 195.046 110.819C194.908 110.853 194.811 110.874 194.749 110.881L194.583 110.915C194.479 110.895 194.424 110.86 194.396 110.826C194.354 110.75 194.354 110.667 194.396 110.585C194.444 110.509 194.596 110.426 194.845 110.343C194.949 110.323 195.046 110.295 195.15 110.274C195.253 110.254 195.35 110.226 195.454 110.205L196.021 110.068C196.09 110.047 196.159 110.019 196.228 109.999C196.297 109.978 196.374 109.95 196.45 109.916C196.678 109.84 196.858 109.799 196.982 109.799C197.037 109.799 197.086 109.813 197.12 109.833C197.21 109.902 197.266 110.123 197.272 110.502C197.286 110.812 197.286 111.012 197.259 111.101L197.12 115.926V117.311C197.12 117.422 197.12 117.49 197.134 117.518C197.162 117.828 197.259 118.042 197.425 118.166C197.535 118.249 197.694 118.283 197.902 118.269C198.171 118.249 198.344 118.242 198.413 118.256C198.469 118.269 198.524 118.29 198.572 118.311C198.628 118.331 198.662 118.373 198.69 118.435C198.69 118.497 198.662 118.579 198.6 118.676C198.496 118.793 198.102 118.841 197.404 118.814C197.355 118.807 197.286 118.8 197.196 118.786C197.107 118.772 196.989 118.759 196.858 118.745C196.754 118.703 196.581 118.69 196.325 118.69C196.249 118.69 196.166 118.69 196.076 118.703C195.986 118.71 195.89 118.724 195.779 118.738C195.627 118.752 195.502 118.766 195.405 118.779C195.316 118.793 195.253 118.8 195.219 118.8L195.15 118.855V118.848Z" fill="#8EA7BB"></path>
<path d="M205.945 113.962C205.945 113.962 206.076 114.01 206.242 114.086C206.408 114.162 206.595 114.286 206.802 114.472C206.94 114.596 207.106 114.775 207.293 115.002C207.5 115.257 207.625 115.45 207.666 115.595C207.687 115.685 207.701 115.823 207.701 116.002C207.701 116.767 207.514 117.36 207.134 117.794C206.491 118.524 205.633 118.89 204.562 118.89C204.43 118.89 204.292 118.89 204.147 118.876C204.001 118.862 203.856 118.848 203.697 118.834C203.186 118.772 202.812 118.669 202.57 118.531C202.197 118.318 201.927 118.021 201.747 117.649C201.63 117.422 201.561 117.153 201.54 116.849C201.498 116.401 201.561 116.043 201.727 115.774C201.962 115.375 202.183 115.085 202.397 114.906C202.473 114.844 202.598 114.754 202.771 114.637C202.943 114.52 203.165 114.389 203.434 114.23C203.358 114.189 203.268 114.134 203.165 114.065C203.061 113.989 202.95 113.9 202.819 113.796C202.778 113.741 202.729 113.679 202.674 113.596C202.619 113.521 202.542 113.424 202.459 113.321C202.121 112.893 201.941 112.549 201.927 112.266C201.906 111.777 202.01 111.377 202.238 111.088C202.294 111.026 202.376 110.943 202.494 110.84C202.612 110.736 202.764 110.612 202.957 110.474C203.296 110.226 203.836 110.061 204.568 109.978C205.246 109.902 205.806 109.937 206.242 110.095C206.947 110.35 207.362 110.764 207.493 111.343C207.521 111.467 207.542 111.591 207.542 111.715C207.542 112.059 207.321 112.473 206.871 112.942C206.774 113.059 206.581 113.204 206.304 113.383C206.2 113.452 206.104 113.521 206.007 113.589C205.91 113.658 205.813 113.727 205.709 113.789C205.737 113.907 205.82 113.962 205.938 113.962H205.945ZM202.826 115.843C202.812 115.885 202.784 115.94 202.75 116.016C202.715 116.091 202.674 116.195 202.625 116.326C202.619 116.353 202.612 116.388 202.612 116.415C202.612 116.443 202.612 116.477 202.612 116.512C202.612 116.691 202.695 116.946 202.854 117.277C203.047 117.683 203.289 117.98 203.587 118.152C203.801 118.29 204.126 118.386 204.548 118.428C204.776 118.455 205.066 118.407 205.419 118.276C205.751 118.152 206.014 117.987 206.193 117.78C206.304 117.649 206.394 117.435 206.47 117.146C206.546 116.884 206.588 116.65 206.588 116.443C206.588 116.374 206.588 116.326 206.574 116.305C206.532 116.202 206.408 116.022 206.193 115.761C205.972 115.506 205.848 115.375 205.834 115.354C205.709 115.237 205.55 115.147 205.35 115.085C205.274 115.058 205.198 115.03 205.115 115.002C205.039 114.982 204.956 114.954 204.873 114.933C204.762 114.885 204.61 114.809 204.423 114.692C204.292 114.623 204.188 114.589 204.119 114.589C204.015 114.589 203.87 114.63 203.676 114.713C203.351 114.858 203.116 115.071 202.971 115.347C202.95 115.388 202.902 115.547 202.833 115.836L202.826 115.843ZM203.255 112.239C203.296 112.321 203.358 112.411 203.441 112.501C203.524 112.59 203.621 112.673 203.732 112.762C203.842 112.852 203.953 112.935 204.078 113.024C204.195 113.114 204.313 113.197 204.43 113.286C204.651 113.459 204.852 113.541 205.025 113.541H205.094C205.094 113.541 205.149 113.534 205.184 113.514C205.225 113.493 205.274 113.465 205.336 113.424C205.398 113.383 205.481 113.328 205.592 113.252C205.82 113.079 205.965 112.969 206.021 112.914C206.228 112.707 206.373 112.439 206.463 112.108C206.477 112.032 206.484 111.956 206.484 111.887C206.484 111.418 206.359 111.06 206.11 110.812C205.792 110.509 205.405 110.364 204.942 110.364C204.734 110.364 204.527 110.392 204.313 110.447C204.022 110.516 203.766 110.667 203.545 110.908C203.317 111.163 203.192 111.412 203.186 111.66C203.172 111.908 203.192 112.101 203.255 112.252V112.239Z" fill="#8EA7BB"></path>
</g>
<defs>
<clipPath id="clip0_213_190">
<rect width="353" height="119" fill="white"></rect>
</clipPath>
</defs>
</svg>