<svg width="341" height="116" viewBox="0 0 341 116" fill="none" xmlns="http://www.w3.org/2000/svg">
<g clip-path="url(#clip0_213_153)">
<path d="M2.40899 49.3379L3.49619 50.1716C4.12983 50.6585 4.83017 51.1921 5.53719 51.7257L6.72443 52.6262L7.02458 52.8796C7.3314 53.1464 7.64488 53.4266 7.9517 53.4933C8.14513 53.5333 8.3519 53.5466 8.56533 53.5466C8.77877 53.5466 8.96553 53.5333 9.16563 53.5266L9.71923 53.5066H10.1194H10.9999C10.9865 53.8201 10.9465 54.1536 10.9065 54.4804C10.8465 54.974 10.7864 55.4942 10.8131 55.9611C10.8331 56.328 10.9332 56.6948 11.0265 57.055L11.1599 57.5819L11.2667 58.0622C11.3534 58.4357 11.4401 58.7892 11.4601 59.1227C11.4868 59.5362 11.4601 60.0031 11.4267 60.4433L11.4001 61.077L11.38 61.6306C11.3133 63.4581 11.2466 65.1856 11.34 66.9732L11.3534 67.2066C11.3867 67.7669 11.4134 68.3005 11.3734 68.8274L11.36 68.9675C11.2133 70.9418 11.0732 72.816 10.8198 74.6703L10.8064 74.7637L10.8398 74.857C10.9532 75.1772 11.0399 75.5174 11.1333 75.8842L11.2667 76.3845L11.4334 76.9247C11.5468 77.2449 11.6669 77.6184 11.6802 77.8719C11.6935 78.1453 11.6335 78.4588 11.5668 78.7923L11.4668 79.3392L11.3867 79.8395C11.32 80.2063 11.2533 80.5798 11.2466 80.9534C11.24 81.4403 11.2933 81.9405 11.3534 82.4141L11.4334 83.1744C11.6002 85.3422 11.5601 87.3832 11.5068 89.3575L11.4934 89.8644L11.1399 90.1779L10.8931 90.3713L10.0527 91.1117C9.61918 91.5052 9.16563 91.9121 8.69873 92.2656C7.62487 91.712 6.54434 91.045 5.29707 90.1779L5.03694 89.9845C4.61673 89.6576 4.26323 89.4042 3.94974 89.3441H3.30276L3.06931 89.3708C2.6491 89.3908 2.25558 89.4108 1.86872 89.4375C1.36848 89.4642 0.881573 89.4909 0.367989 89.5109L0.0078125 89.5242V93.5395L0.174561 93.6529C0.628116 93.9531 1.10835 94.2532 1.62861 94.5734L1.98878 94.8135C2.39565 95.0936 2.85587 95.4138 3.24273 95.5005C3.50953 95.5605 3.87637 95.5738 4.25656 95.5738C4.41664 95.5738 4.57671 95.5738 4.73679 95.5738H5.14366L5.78397 95.5872L6.41762 95.6005H6.77112C7.16465 95.5672 7.58485 95.5005 7.98505 95.4404L8.48529 95.3604L8.99221 95.3004C9.42575 95.247 9.87264 95.2003 10.2061 95.0936L10.8064 94.7334L11.0332 94.5667L11.3334 94.3733L11.7736 94.0798L12.3205 93.7463C12.674 93.5395 13.0475 93.3194 13.301 93.0726L13.7946 92.3723L13.9947 92.0455L14.635 91.0783C15.1152 90.3713 15.442 89.6843 15.8022 88.9173L15.9556 88.6038C16.2558 87.9701 16.5626 87.3231 16.7493 86.5428L16.9294 85.8891L17.0895 85.2955L17.1896 84.9353C17.2829 84.6018 17.3763 84.2616 17.4097 83.9282C17.443 83.528 17.3963 83.1278 17.343 82.7409L17.2829 82.194C17.1562 80.3998 17.3096 78.6989 17.4964 76.7246L17.5631 76.0176L17.6231 75.4707C17.6698 75.1038 17.7165 74.7236 17.7165 74.3568C17.7165 73.8232 17.6364 73.2896 17.5564 72.776C17.483 72.2758 17.4097 71.7622 17.4097 71.2553C17.4097 70.7217 17.483 70.1814 17.5631 69.6145C17.6298 69.1342 17.6965 68.6407 17.7165 68.1471C17.7565 67.0466 17.7098 65.946 17.6564 64.8855C17.6298 64.3319 17.6031 63.7983 17.5898 63.2847L17.5564 62.6711C17.5364 62.3709 17.5097 62.0841 17.5297 61.8107C17.5631 61.3504 17.6898 60.8835 17.8232 60.39C17.9699 59.8364 18.1233 59.2627 18.1434 58.6691C18.17 58.0555 18.09 57.4552 18.0033 56.8816C17.9299 56.3813 17.8632 55.9078 17.8699 55.4475C17.8699 54.9406 17.9433 54.4604 18.0166 53.9468L18.11 53.1798C18.9704 53.2732 19.8575 53.3799 20.7913 53.5066L20.9047 53.5199L21.0048 53.4799C21.6451 53.1864 22.2987 52.9196 22.9524 52.6462C23.7394 52.326 24.5465 51.9925 25.3135 51.6257L26.5675 51.0187L25.1801 50.9053C24.2597 50.832 23.3726 50.7452 22.4855 50.6519C21.9119 50.5918 21.3449 50.5318 20.758 50.4851C20.211 50.4318 19.6908 50.325 19.1372 50.2116L18.7036 50.1183L18.0767 49.9782C17.5898 49.8648 17.0962 49.7514 16.5959 49.7114C16.3825 49.6981 16.1624 49.6914 15.9489 49.6914C15.7355 49.6914 15.5287 49.6914 15.322 49.7047C15.1552 49.7047 14.9818 49.7047 14.8151 49.7047C14.5616 49.7047 14.3148 49.7047 14.0614 49.6914C13.8279 49.6847 13.5878 49.6714 13.3543 49.6714C13.2143 49.6714 13.0809 49.6714 12.9408 49.6847C12.5339 49.7114 12.0804 49.8115 11.6068 49.9182L11.0532 50.0382L10.4596 50.1783C10.0394 50.285 9.56582 50.3984 9.23233 50.3984H9.22566L8.46528 50.2783L7.92502 50.1716C7.43145 50.0916 6.89785 50.0049 6.35759 49.9115C5.45048 49.7581 4.51669 49.598 3.76298 49.5113L2.40232 49.3512L2.40899 49.3379Z" fill="#FAFAFA"></path>
<path d="M60.2961 52.9199L60.1361 53.06C59.369 53.7003 58.582 54.4874 57.8149 55.2477L57.4414 55.6212L57.5348 55.8547C57.935 56.8352 58.3152 57.8357 58.6954 58.8362L58.8354 59.203L59.1356 59.163C60.0493 59.0362 60.9364 58.8762 61.7969 58.7228C62.2037 58.6494 62.6106 58.576 63.0175 58.5027L63.2709 58.4626L63.5911 56.9552C63.7578 56.1749 63.9179 55.4011 64.0913 54.6274L64.1647 54.2939L63.8379 54.1872C63.2576 53.9938 62.6906 53.787 62.1237 53.5802C61.5901 53.3802 61.0432 53.18 60.4896 52.9933L60.2895 52.9266L60.2961 52.9199Z" fill="#FAFAFA"></path>
<path d="M103.137 60.5566C102.944 60.5566 102.757 60.57 102.604 60.5833L102.45 60.5967C102.083 60.61 101.703 60.61 101.336 60.6167C100.683 60.6167 100.002 60.6167 99.3754 60.7167L97.988 60.9168L97.4544 60.9702C97.1543 60.9969 96.8341 61.0235 96.5407 61.0969C96.1805 61.1836 95.8003 61.3504 95.4268 61.5104L94.8932 61.7372L94.2729 61.944C93.8927 62.064 93.5325 62.1774 93.2124 62.3575C92.8922 62.5376 92.5987 62.8378 92.3186 63.1246L91.9184 63.5114L91.4849 63.9049L91.2914 64.0917L91.0513 64.2851L90.6178 64.6586C90.3776 64.9388 90.1642 65.2723 89.9641 65.5924L89.6439 66.0927L89.3438 66.5062C89.0703 66.8597 88.7969 67.2332 88.6501 67.5934C88.4567 68.0937 88.35 68.7073 88.2499 69.2942L88.1099 70.0746L88.0365 70.3414L87.9164 70.9751C87.9098 71.3019 87.9831 71.6687 88.0632 72.0223L88.1699 72.6025L88.2366 73.1962C88.2699 73.5497 88.31 73.9232 88.39 74.2633C88.4634 74.5835 88.5901 74.917 88.7168 75.2372L88.9169 75.8041L89.0904 76.4044C89.1904 76.7779 89.2838 77.1247 89.4305 77.4182L89.7974 77.9118L89.9908 78.1386L90.2442 78.4921L90.4844 78.8189L90.8312 79.3192C91.0446 79.646 91.2581 79.9528 91.5315 80.2263C91.8117 80.4997 92.2119 80.7532 92.5654 80.98L92.9923 81.2601L93.4191 81.5803C93.7726 81.8537 94.1462 82.1405 94.5063 82.2939C94.8732 82.454 95.3201 82.5607 95.7536 82.6675L96.2405 82.7942L96.594 82.8876L97.0943 83.021L97.3544 83.101L98.0481 83.2611H98.0614L98.7017 83.1677L98.9819 83.1143L99.4488 83.021L99.8489 82.9409L100.503 82.8542C100.883 82.8142 101.283 82.7675 101.657 82.6408L102.263 82.2939L102.477 82.1472L102.864 81.8937L103.211 81.667L103.697 81.3735C104.064 81.1601 104.445 80.9466 104.731 80.6932L105.118 80.2063L105.272 79.9861C106.432 78.4521 107.659 76.8179 108.693 75.3305L109.247 74.5368L109.52 75.3906L109.707 75.9108L109.887 76.5378C109.974 76.858 110.067 77.1781 110.181 77.4716C110.387 78.0252 110.661 78.5454 110.921 79.0457C111.188 79.5593 111.441 80.0395 111.615 80.5398L111.675 80.6998L111.828 80.7665C112.348 80.98 112.842 81.2668 113.362 81.5603C113.949 81.8937 114.549 82.2406 115.216 82.5074C115.797 82.7342 116.404 82.9142 116.997 83.0877C117.544 83.2477 118.111 83.4145 118.665 83.6213L118.765 83.6546L118.872 83.6346C119.479 83.5212 120.066 83.4545 120.632 83.3945C121.273 83.3211 121.873 83.2544 122.48 83.121C122.894 83.0276 123.314 82.8742 123.727 82.7208L124.301 82.5141L124.821 82.3473C125.275 82.2072 125.702 82.0738 126.042 81.8937C126.362 81.727 126.669 81.4202 126.989 81.1L127.496 80.6198L127.943 80.2663C128.323 79.9728 128.716 79.6727 128.97 79.3325C129.183 79.0524 129.343 78.6922 129.503 78.352L129.764 77.8118L130.05 77.3048C130.23 76.9914 130.411 76.6779 130.571 76.3444C130.744 75.9775 130.864 75.584 130.971 75.1971L131.144 74.6235L131.344 74.0699C131.504 73.6497 131.665 73.2162 131.711 72.8427C131.751 72.5025 131.745 72.1557 131.738 71.8288V71.1685L131.745 71.0685C131.765 70.5415 131.798 69.9479 131.738 69.421C131.691 69.0275 131.558 68.6006 131.424 68.1804L131.291 67.7402L131.151 67.1932C131.058 66.7997 130.958 66.3928 130.817 66.0727C130.671 65.7458 130.397 65.3857 130.137 65.0388L129.804 64.5853L129.317 63.8716L129.157 63.6315L128.79 63.1179L128.236 62.6844L127.976 62.5043L127.296 61.9773C127.036 61.7839 126.782 61.5838 126.475 61.337L126.302 61.1903L125.508 60.6967L124.694 60.6767C124.514 60.6834 124.341 60.69 124.168 60.69C123.921 60.69 123.687 60.69 123.454 60.6834C123.18 60.6834 122.92 60.67 122.653 60.67C122.26 60.67 121.866 60.6834 121.44 60.7234C121.046 60.7634 120.632 60.8568 120.219 60.9435L119.592 61.0702C117.991 61.3704 116.504 61.7572 115.23 62.1041L114.93 62.1774L114.316 62.3509L113.689 62.8244L113.516 62.9845L113.169 63.2913L112.842 63.5848L112.402 63.9316C112.035 64.2118 111.648 64.5052 111.421 64.8654C111.235 65.1589 111.068 65.5191 110.901 65.9059L110.548 66.673C110.381 67.0265 110.207 67.3933 110.067 67.7468C109.921 68.1137 109.82 68.5405 109.727 68.9608L109.62 69.421L109.467 69.9679C109.354 70.3748 109.247 70.755 109.207 71.1218C109.167 71.4953 109.18 71.8755 109.194 72.2424V72.7493V73.2495V74.0366L108.16 74.8436C107.326 75.4973 105.698 76.7579 104.204 77.8851L103.818 78.1986L102.944 78.8323C102.71 78.9256 102.37 78.979 102.037 79.0323L101.503 79.1257L101.07 79.2391C100.769 79.3258 100.369 79.4392 100.136 79.4392C100.116 79.4392 100.096 79.4392 100.076 79.4392L99.6955 79.2658L99.5088 79.1658C99.202 79.019 98.9218 78.8656 98.635 78.7189C98.2548 78.5188 97.8813 78.3253 97.5078 78.1519L97.0542 77.5116L96.6407 76.9313L96.3005 76.4778L95.7536 75.6774C95.6402 75.4239 95.5602 75.1171 95.4668 74.7969L95.3067 74.2367C94.9332 73.0628 94.6464 71.8422 94.3329 70.3748L94.2462 70.0346L94.1595 69.6611L94.2395 69.2342L94.3062 68.9608L94.4596 68.1937L94.553 67.6468C94.6064 67.3066 94.6531 66.9865 94.7531 66.7063L94.9599 66.3928L95.1533 66.126L95.4935 65.5658C95.7669 65.1122 96.0538 64.6453 96.3406 64.2451L96.474 64.2118C97.3277 64.005 98.1881 63.7982 99.0219 63.5781C100.182 64.3718 101.396 65.1656 102.604 65.9526C103.337 66.4328 104.071 66.9131 104.825 67.4133L105.452 67.6068L105.692 67.5467L105.738 67.3066C105.845 66.733 105.939 66.1194 106.032 65.4991C106.072 65.1922 106.119 64.8921 106.172 64.5919L106.239 64.2985L106.325 63.5448L105.805 62.8511L105.652 62.7044L105.018 61.9907L104.485 61.3904L104.371 61.257C104.124 60.9568 103.911 60.7234 103.657 60.65C103.504 60.61 103.331 60.5967 103.157 60.5967M120.526 80.1462L119.645 79.9061L119.185 79.7594L118.671 79.6393C118.351 79.5726 118.051 79.5126 117.818 79.3925L117.164 78.6388L116.924 78.3187L116.584 77.9051L115.997 77.1514L115.563 76.3244L115.337 75.8508L115.076 75.3839L114.69 74.5835C114.636 74.3967 114.636 74.1033 114.63 73.7965L114.61 73.2295L114.583 72.7893C114.556 72.4291 114.529 72.089 114.523 71.7688C114.523 71.462 114.556 71.1552 114.596 70.8283L114.643 70.3548L114.676 69.7145C114.676 69.3943 114.69 69.0741 114.75 68.8607L115.25 68.1404L115.563 67.7402L115.837 67.32L116.384 66.5663L117.051 66.1394L117.611 65.8192L118.045 65.5191L118.785 65.0655C119.012 64.9921 119.345 64.9655 119.672 64.9321L120.226 64.8788L120.732 64.8054C121.053 64.7587 121.359 64.712 121.66 64.6853C122.193 64.9788 122.72 65.279 123.24 65.5858C123.561 65.7725 123.881 65.966 124.208 66.146C124.461 66.5462 124.754 66.9598 125.048 67.38L125.515 68.047L125.648 68.2271L125.908 68.6273C126.008 68.8674 126.068 69.1809 126.135 69.5144L126.255 70.088L126.402 70.5949C126.495 70.9217 126.582 71.2352 126.615 71.5153C126.649 71.7888 126.615 72.1623 126.589 72.5558L126.555 73.0161L126.535 73.5897C126.535 73.9432 126.522 74.3034 126.475 74.5301C126.422 74.8103 126.262 75.1438 126.108 75.4639L125.915 75.8841L125.722 76.351C125.582 76.6845 125.455 77.0047 125.321 77.2381L124.694 77.9185L124.294 78.3053L123.987 78.6655L123.32 79.3592C123.1 79.4726 122.72 79.5526 122.38 79.626L121.913 79.7327L121.179 79.9328L120.899 80.0195L120.532 80.1196L120.526 80.1462Z" fill="#FAFAFA"></path>
<path d="M81.2922 60.7637C81.2188 60.7637 81.1454 60.7637 81.0787 60.7637C80.5518 60.777 80.0249 60.8304 79.4713 60.8904C78.9644 60.9438 78.4374 60.9971 77.9105 61.0171C77.4169 61.0371 76.85 61.0438 76.2964 61.0438L75.9229 61.0305C75.7361 61.0305 75.5227 61.0171 75.3159 61.0171C75.0424 61.0171 74.7756 61.0305 74.5756 61.0838L73.9086 61.5574L73.7485 61.7041L73.0215 62.3178L72.4278 62.8113L72.2611 62.9447L71.6808 63.5517C71.5007 63.9919 71.3406 64.4722 71.1672 64.9857C71.0071 65.4593 70.8471 65.9529 70.667 66.4064L70.627 66.4931L70.6403 66.5865C70.7537 67.607 70.827 68.5875 70.9271 69.7081L70.9604 70.1483L71.1205 70.2483C71.5341 70.5151 71.9476 70.8353 72.3545 71.1488C72.8947 71.5623 73.4617 71.9958 74.062 72.3427L74.809 72.6962L75.2559 72.8963C76.3564 73.4165 77.5303 73.9701 78.7843 74.4437L79.2979 74.6105L79.9849 74.8639L80.285 75.1641L80.4251 75.3175L80.6719 75.5909L80.9187 75.8644L81.1588 76.0912L81.8124 76.7715L81.7858 77.4919L81.7391 77.9454V78.7458V79.1127C81.4189 79.3461 81.0987 79.5996 80.7452 79.8864L80.4718 80.1265L79.7447 80.6934L78.9844 80.6534L78.5108 80.6L78.0973 80.58L77.2969 80.5333C75.9162 79.2727 74.6556 77.8454 73.435 76.4714C72.8947 75.8511 72.3478 75.2441 71.7942 74.6371L71.1339 73.9234V81.4938L71.3673 81.5939C71.7742 81.7673 72.2144 81.9607 72.6546 82.1541C73.1282 82.3609 73.6017 82.5743 74.042 82.7611L74.3021 82.8812L75.0358 83.1546C75.3359 83.2147 75.6694 83.228 76.0096 83.228C76.1363 83.228 76.2564 83.228 76.3764 83.228H76.9167L77.6304 83.2614L78.4641 83.2947L78.831 83.2814L79.4646 83.168L79.7648 83.1013C80.1249 83.0346 80.4918 82.9612 80.8586 82.8945C81.3922 82.7878 81.9191 82.6811 82.4327 82.5944L82.5261 82.581L82.5995 82.521C83.0264 82.1942 83.4599 81.8073 83.8801 81.4271L84.6672 80.7468L84.9206 80.5667L85.4409 80.1131L85.7277 79.5529L85.8411 79.2927L86.6081 77.7853L86.7215 77.5852L87.0216 76.8716L86.9883 76.1312L86.9616 75.8977L86.8949 75.2308C86.8682 74.8973 86.8349 74.5838 86.8082 74.2303V73.9301L86.7215 73.2698L86.2213 72.6295L86.0412 72.4427L85.3675 71.6623L84.7872 70.9887L84.6071 70.7686L84.0602 70.2083C83.72 70.0015 83.2865 69.8748 82.8663 69.7481L82.2927 69.5747C81.7124 69.3746 81.1188 69.1678 80.5718 68.9744C79.8448 68.7276 79.0844 68.5742 78.3507 68.4341C77.8372 68.334 77.3502 68.2407 76.8767 68.1139C76.243 67.3936 75.6694 66.7333 75.1492 66.0329L75.5093 65.2992C75.6694 64.9524 75.8295 64.6189 76.0096 64.3054L76.6566 64.2054L77.0968 64.132L77.4836 64.0586C77.7504 64.0119 78.0172 63.9586 78.244 63.9586H78.3307L78.6309 64.0786L78.871 64.192C79.5246 64.4588 80.1716 64.7256 80.7853 64.9591C81.0854 65.3192 81.3856 65.6861 81.679 66.0529C82.226 66.7266 82.7862 67.4269 83.3732 68.0873L83.9201 68.6942L84.0335 67.8872C84.3337 65.7728 84.7272 63.7051 85.1207 61.7041L85.2608 60.9971H84.8006C84.2136 60.9838 83.6267 60.9504 83.0397 60.8971C82.4794 60.8437 81.8925 60.797 81.3522 60.797" fill="#FAFAFA"></path>
<path d="M33.9822 61.2702C33.8889 61.2702 33.7888 61.2702 33.6888 61.2702C33.3419 61.2902 32.9884 61.2902 32.6349 61.2968C32.0613 61.2968 31.4743 61.3102 30.9207 61.3902C30.5472 61.4436 30.167 61.5636 29.7935 61.6904L29.2733 61.8571L28.7263 62.0038C28.3528 62.0972 27.9593 62.1973 27.6391 62.324L27.0722 62.6708L26.8654 62.8176L26.005 63.3912C25.5781 63.678 25.1513 63.9648 24.7244 64.2383L24.6377 64.2916L24.591 64.385C24.2441 65.092 23.8773 65.8524 23.5238 66.5861L23.0436 67.5532L22.9102 68.1802L22.9902 68.407L23.237 68.427C25.0379 68.6004 26.9388 68.7405 28.5596 68.8539L28.8797 68.8739L28.9531 68.5604C29.1265 67.8601 29.3066 67.1597 29.4867 66.466L29.7602 65.3922C30.1871 65.2921 30.6073 65.1921 31.0341 65.092C31.461 64.9986 31.8879 64.8986 32.3081 64.7919C32.5282 65.0854 32.775 65.3788 33.0284 65.6723L33.6421 66.426L33.7821 66.5928L34.0356 66.9263C34.1023 67.2131 34.089 67.5532 34.069 67.8801L34.0556 68.3736L34.0756 68.9406L34.089 69.5742C33.7355 69.6809 33.3619 69.7543 32.9751 69.841C32.3348 69.9811 31.6744 70.1212 31.0875 70.388L30.3338 70.7415L29.7001 71.0416L29.2933 71.2217C28.9464 71.3684 28.5863 71.5285 28.2728 71.7219C27.966 71.9154 27.6925 72.1822 27.4257 72.4423L26.9988 72.8358L26.5586 73.196L25.7049 73.9497L25.1179 74.7568L24.7577 75.2837L24.4909 75.6105C24.1041 76.0641 23.8239 76.4109 23.7439 76.7244C23.6572 77.0579 23.6639 77.5314 23.6705 77.9183V78.2518L23.6238 78.8254C23.5905 79.2123 23.5505 79.6191 23.6238 79.9793L23.9974 80.6797L24.1374 80.8798L25.0912 82.3872L25.1846 82.5472C25.3914 82.9208 25.5581 83.1942 25.8182 83.2809L26.0384 83.3143L26.5053 83.2543L26.7454 83.2142L27.5991 83.1275L28.2394 83.0875C28.6463 83.0675 29.0332 83.0475 29.3867 82.9474L29.8335 82.7273L30.0403 82.6073C31.3543 81.9603 32.735 81.2599 33.9956 80.5529L34.6426 81.2533C34.9227 81.5534 35.2028 81.8536 35.483 82.1737L35.623 82.3471L36.2634 82.8807C36.3501 82.9007 36.4501 82.9141 36.5568 82.9141C36.7169 82.9141 36.897 82.8941 37.0838 82.8741L37.3972 82.8407C38.1843 82.7874 38.978 82.7473 39.7651 82.7073L40.6388 82.6606L40.7389 82.5672C41.3792 81.967 42.0262 81.2933 42.6598 80.6463C42.98 80.3195 43.2935 79.9927 43.607 79.6858L43.687 79.6125C43.8337 79.4857 44.1672 79.1989 43.9738 78.8388L43.8804 78.6653L43.687 78.6453C43.0067 78.5653 42.3063 78.4986 41.6193 78.4319C40.8123 78.3518 40.0185 78.2718 39.2515 78.1784C39.2248 77.8049 39.1581 77.4381 39.0914 77.0779C38.998 76.5776 38.9113 76.1108 38.9313 75.6238C38.9513 75.0969 39.0847 74.5433 39.2248 73.9564C39.3582 73.3894 39.4983 72.8025 39.545 72.1955C39.6717 70.4947 39.705 68.4003 39.7317 67.2798L39.7651 66.6661C39.7984 66.2393 39.8384 65.799 39.7517 65.3922L39.4716 64.7719L39.3249 64.5051L39.018 63.8648C38.7246 63.2511 38.4244 62.6108 38.0776 62.0305L37.9842 61.8771L37.8041 61.8504C37.3439 61.7904 36.877 61.6837 36.4234 61.577C35.6497 61.4036 34.856 61.2168 34.0289 61.2168M31.3009 78.4119C30.9741 78.3252 30.6539 78.2385 30.3405 78.1451C29.9803 78.0384 29.6134 77.9383 29.2333 77.8449L29.2733 77.4781L29.3266 76.9445L29.34 76.5176L29.4 75.8573L29.8869 75.2437L30.2204 74.8701L30.4405 74.5767L30.6473 74.3032L30.8074 74.0964L31.0408 73.8096L31.6411 73.4294L32.0346 73.1893L32.5415 72.8492L32.8083 72.6691L33.2152 73.4161L33.442 73.8096L33.7288 74.3832L33.6221 75.177L33.5153 75.6572L33.4687 76.0974L33.3353 76.9178L32.6082 77.4648L32.3148 77.6649L31.9012 77.9717L31.2943 78.4119H31.3009Z" fill="#FAFAFA"></path>
<path d="M52.0452 49.4383H51.505C49.2906 49.9586 47.4363 50.3588 45.8355 50.6722L45.5287 50.7123L44.9017 50.839L44.2748 51.4193L44.088 51.6461C43.7679 51.9862 43.4944 52.293 43.2209 52.5999C42.9475 52.9 42.6873 53.1935 42.3538 53.5403C42.2404 53.6337 41.987 53.8471 42.0604 54.1873L42.107 54.3874L42.3071 54.4541C42.9675 54.6875 43.6411 54.9077 44.3215 55.1211C44.9951 55.3345 45.6621 55.5546 46.3224 55.7814C46.3024 56.1549 46.2424 56.5351 46.1757 56.9353C46.1023 57.4222 46.0156 57.9291 46.0156 58.4427C46.0156 59.0497 46.0823 59.6633 46.149 60.2569C46.1957 60.6972 46.2424 61.1307 46.2624 61.5642C46.3625 63.5452 46.3491 65.6129 46.2357 67.874C46.2157 68.2475 46.1824 68.621 46.1424 68.9879C46.0823 69.6682 46.0156 70.3686 46.049 71.0422C46.069 71.4091 46.129 71.7759 46.189 72.1294L46.2757 72.643L46.3625 73.1766C46.4292 73.5234 46.4892 73.8503 46.4892 74.1571C46.4892 74.4639 46.4292 74.7774 46.3691 75.1175L46.2757 75.6711L46.169 76.2448C46.109 76.5649 46.0356 76.8984 46.0223 77.2453C46.0023 77.7722 46.029 78.3124 46.0623 78.8327C46.0823 79.1929 46.1023 79.5597 46.109 79.9266C45.7688 80.0866 45.4287 80.2467 45.0818 80.4068C44.2281 80.807 43.3743 81.2005 42.5406 81.6207L41.6602 82.0609L42.6073 82.3277C43.1742 82.4878 43.7278 82.6546 44.2948 82.8213C45.0418 83.0414 45.7822 83.2682 46.5425 83.4683L46.6426 83.4816H47.1095C48.4835 83.4816 49.8642 83.4283 51.4116 83.3082L51.9585 83.2882C52.272 83.2815 52.5922 83.2749 52.8923 83.2215L53.6127 82.9814L53.9128 82.8613C54.88 82.5078 55.8871 82.1343 56.8076 81.7741L57.4145 81.5407L57.3145 81.6407L57.021 82.3277L57.1077 82.5479L57.3478 82.5679C57.9548 82.6145 58.5618 82.7279 59.2087 82.8547C59.9091 82.9881 60.6361 83.1215 61.3831 83.1682L61.8234 83.1815L62.5837 83.1615C62.8505 83.1548 63.124 83.1481 63.3908 83.1481C63.5575 83.1481 63.731 83.1481 63.9044 83.1481C64.1045 83.1481 64.3046 83.1548 64.5047 83.1548C64.8048 83.1548 65.105 83.1415 65.3918 83.1015L66.1455 82.888L66.4656 82.7746C66.7791 82.6746 67.0993 82.5812 67.4128 82.4878C68.1465 82.2677 68.9002 82.0343 69.5538 81.8008L70.4809 81.4673L69.5672 81.0938C69.1536 80.9271 68.7401 80.7603 68.3199 80.5936C67.4661 80.2534 66.5857 79.9066 65.7586 79.5264C65.772 79.1395 65.812 78.746 65.852 78.3591C65.912 77.7455 65.9721 77.1052 65.9587 76.4849C65.952 75.8512 65.8587 75.2176 65.7653 74.604C65.6919 74.1237 65.6185 73.6235 65.5919 73.1366C65.5518 72.4829 65.5919 71.7959 65.6185 71.1289L65.6452 70.5286C65.6786 69.8149 65.6319 69.1079 65.5919 68.4209L65.5519 67.7873C65.4585 66.0398 65.5318 64.2922 65.6119 62.5047L65.6252 62.0912L65.2117 62.1045C64.4713 62.1379 63.6242 62.2046 62.8105 62.2713L62.0635 62.3313L61.7033 62.3446L61.023 62.398L60.2893 62.7115L59.9691 62.8716C58.9953 63.3184 57.9548 63.8187 57.0344 64.2722L56.4207 64.5791L57.0077 64.9326C57.7547 65.3928 58.5884 65.9197 59.3888 66.44L59.5156 66.52L59.769 66.6667L60.1625 66.8935C60.2292 67.0736 60.1892 67.5739 60.1625 67.9407L60.1359 68.5343C60.1359 69.7683 60.1759 70.6487 60.2893 71.7826L60.356 72.2895C60.4027 72.6097 60.4427 72.9298 60.4427 73.23C60.4427 73.5301 60.4027 73.8569 60.356 74.1971L60.2893 74.7574L60.2426 75.311C60.2159 75.6645 60.1826 76.018 60.1425 76.3648C60.0958 76.725 60.0158 77.0985 59.9291 77.4854L59.8357 77.9323L59.7423 78.4592C59.689 78.806 59.629 79.1995 59.5289 79.3996L59.1621 79.7732L58.962 79.9466C58.4951 80.3868 58.0482 80.8403 57.628 81.2739L57.5679 81.3339L56.7742 81.0404C56.3273 80.8737 55.8738 80.7203 55.4136 80.5602C54.0929 80.1067 52.7256 79.6398 51.6784 78.9461C51.6717 76.5916 51.6917 74.2971 52.0119 72.056L52.1453 71.2757C52.2453 70.7754 52.3387 70.2552 52.3587 69.7349C52.3721 69.3414 52.3387 68.9345 52.3054 68.5343L52.272 67.9874C52.1987 66.7601 52.0786 65.7663 51.8652 64.6658L51.7384 64.1322C51.6584 63.812 51.5783 63.4718 51.5583 63.1584C51.545 62.6648 51.585 62.1379 51.6317 61.5776C51.6717 61.0907 51.7117 60.5904 51.7117 60.0769C51.7117 59.5633 51.6851 59.0563 51.6517 58.5428C51.6117 57.9358 51.5783 57.3689 51.5917 56.8153C51.605 56.2683 51.6917 55.7214 51.7718 55.1478C51.8585 54.5942 51.9385 54.0206 51.9585 53.4336C51.9785 52.82 51.9852 52.213 51.9919 51.5994C51.9919 51.0057 51.9919 50.4188 52.0186 49.8252L52.0319 49.4316L52.0452 49.4383Z" fill="#FAFAFA"></path>
<path d="M229.188 48.2109L228.947 48.2776C227.553 48.9246 226.153 49.5649 224.752 50.2052C224.379 50.0652 224.012 49.8918 223.632 49.7183C223.158 49.4982 222.678 49.2648 222.151 49.0914C221.784 48.9713 221.35 48.8779 220.93 48.7912L220.543 48.7112L220.05 48.5911C219.656 48.4911 219.249 48.391 218.863 48.3643C218.782 48.3643 218.696 48.3643 218.609 48.3643C218.262 48.3643 217.902 48.4044 217.549 48.4444L217.042 48.4977C215.914 48.5911 214.961 48.7779 213.88 49.0247L213.32 49.1314C212.953 49.1914 212.573 49.2581 212.273 49.3848L211.699 49.8784L211.539 50.0452C210.478 51.1124 209.518 52.0728 208.491 53.0733L208.104 53.4202C207.764 53.7203 207.417 54.0271 207.21 54.3206C207.017 54.6074 206.843 54.9742 206.663 55.3744L206.396 55.928L206.196 56.3749L206.036 56.7351L205.876 57.0219L205.603 57.5355C205.469 57.8757 205.396 58.2759 205.316 58.6561L205.169 59.3164L205.002 59.9033C204.889 60.2768 204.776 60.6637 204.716 61.0706C204.642 61.5575 204.636 62.1111 204.622 62.6914L204.602 63.5318C204.509 65.5794 204.562 67.5137 204.609 69.5614L204.622 70.2084V70.7686C204.596 71.0821 204.582 71.3823 204.622 71.6424L204.856 72.2427L204.982 72.5228L205.316 73.3499L205.563 73.9902C205.703 74.3637 205.829 74.7172 206.003 75.0374L206.323 75.491L206.53 75.7511L207.15 76.6382C207.777 77.532 208.364 78.3657 209.024 79.2795L209.264 79.633C209.598 80.1532 209.885 80.5668 210.158 80.7469C210.445 80.9336 210.839 81.0603 211.225 81.1804L211.719 81.3405C212.76 81.7207 213.733 82.0142 214.867 82.301L215.421 82.4544C215.814 82.5611 216.188 82.6678 216.541 82.7145L216.982 82.7345L217.609 82.7078C217.835 82.6945 218.069 82.6878 218.316 82.6878C218.456 82.6878 218.596 82.6878 218.736 82.6945C218.903 82.6945 219.069 82.7078 219.229 82.7078C219.483 82.7078 219.716 82.6945 219.923 82.6411L220.53 82.3743L220.823 82.2209L221.17 82.0608C223.018 81.2338 224.765 80.44 226.38 79.4929C226.76 79.9798 227.14 80.5067 227.513 81.0203C227.86 81.5006 228.207 81.9741 228.534 82.3943L228.854 82.6878L229.061 82.7212L229.381 82.5011V82.2876C229.094 77.0384 229.061 72.803 229.288 69.6814L229.368 68.5742L228.627 69.4013C228.114 69.9749 227.593 70.6286 227.093 71.2689C226.653 71.8225 226.213 72.3828 225.766 72.8964L225.559 73.3032C225.366 73.7034 225.186 74.0903 224.992 74.4705L224.772 74.924C224.612 75.2575 224.452 75.5977 224.252 75.9112C224.072 76.2046 223.772 76.4848 223.465 76.7916L223.211 77.0451L222.811 77.5119L222.191 78.1323L221.43 78.2923L220.857 78.3857L220.343 78.5124C220.043 78.5925 219.763 78.6725 219.516 78.6792L218.749 78.6058L218.169 78.5258L217.615 78.5058C217.295 78.4991 216.968 78.4924 216.728 78.4191L216.068 78.0589L215.594 77.7721L215.054 77.4986L214.414 77.1718C213.393 75.8578 212.366 74.2904 211.399 72.7896L211.239 72.5695L211.025 72.2294C210.952 71.9626 210.919 71.6091 210.885 71.2355L210.839 70.7553C210.712 69.6748 210.578 68.6076 210.445 67.5671L210.372 67.0868C210.318 66.7 210.258 66.3398 210.252 66.013C210.252 65.7062 210.285 65.346 210.332 64.9591L210.385 64.4322C210.478 63.4584 210.592 62.5113 210.779 61.264L210.852 60.6304C210.885 60.2835 210.919 59.95 210.992 59.6766C211.065 59.3697 211.179 59.0562 211.292 58.7428L211.459 58.2625L211.626 57.7289C211.726 57.4021 211.819 57.0953 211.926 56.8552L212.399 56.0681L212.713 55.5879L212.98 55.1343C213.153 54.8275 213.34 54.514 213.5 54.3073L214.18 53.6669L214.6 53.3068L215.007 52.9066L215.668 52.333L216.448 52.1729L217.008 52.0795L217.555 51.9394L218.336 51.7793L218.696 51.8594L219.043 51.9528C219.396 52.0261 219.743 52.0928 220.083 52.1529L220.67 52.2596L220.984 52.3063L221.397 52.3863L221.604 52.5998L221.824 52.8332C222.371 53.3601 222.951 53.9137 223.445 54.394C223.965 54.9009 224.379 55.5412 224.765 56.1615L225.192 56.8085C226.266 58.4026 227.38 60.0167 228.474 61.6108L228.934 61.9577L229.168 61.9443L229.368 61.6642V61.5241C229.174 59.0029 229.114 56.1415 229.081 53.4268C229.081 53.0867 229.114 52.7398 229.161 52.3796L229.221 51.8394C229.268 51.3391 229.314 50.8322 229.368 50.3386C229.428 49.785 229.488 49.2314 229.528 48.6245L229.501 48.4244L229.201 48.2176L229.188 48.2109Z" fill="#FAFAFA"></path>
<path d="M290.068 54.5059V54.9061C290.048 55.9866 290.095 56.9404 290.141 57.9475C290.161 58.3944 290.181 58.8413 290.201 59.3082L290.215 59.7351L290.635 59.6684C291.302 59.5617 291.949 59.4416 292.589 59.3216C293.083 59.2215 293.576 59.1281 294.083 59.0414L294.343 59.0014L294.39 58.7413C294.504 58.141 294.637 57.5674 294.777 56.9937C294.91 56.4468 295.044 55.8932 295.144 55.3263L295.224 54.9127L294.804 54.8794C293.323 54.7526 291.976 54.6393 290.455 54.5392L290.055 54.5125L290.068 54.5059Z" fill="#FAFAFA"></path>
<path d="M279.43 55.8945L279.01 56.3748C278.49 56.9684 277.983 57.582 277.469 58.1957C277.203 58.5158 276.943 58.8293 276.676 59.1428C276.155 59.7631 275.742 60.4701 275.342 61.1504C275.142 61.4973 274.935 61.8508 274.748 62.1443L273.988 62.9647C273.381 63.605 272.76 64.272 272.187 64.979L271.887 65.3458L272.314 65.5593C272.614 65.7127 272.921 65.8527 273.227 65.9928C273.794 66.2663 274.381 66.5464 274.928 66.8466C274.975 67.2201 275.075 67.5802 275.175 67.9271C275.282 68.3206 275.388 68.6941 275.408 69.0543L275.362 69.7146L275.322 70.1148C275.248 71.182 275.148 72.2625 275.048 73.3164C274.942 74.4036 274.888 75.4308 274.882 76.5646L274.868 76.9448C274.862 77.245 274.848 77.5585 274.882 77.8453C274.928 78.1988 275.048 78.5389 275.175 78.8658L275.335 79.3527C275.482 79.8329 275.622 80.3198 275.755 80.8201L275.795 80.9801L275.942 81.0535L276.749 81.4937C277.443 81.8672 278.156 82.2541 278.897 82.6076L278.984 82.6476H279.084C279.517 82.6209 279.944 82.5609 280.378 82.5076L280.678 82.4742L281.258 82.4208C281.591 82.3942 281.945 82.3675 282.278 82.2941C282.625 82.2207 282.952 82.094 283.266 81.9673L283.773 81.7739L284.339 81.5938C284.66 81.5004 284.98 81.4003 285.273 81.2803L285.38 81.2403L285.447 81.1536C285.747 80.72 286.06 80.2931 286.374 79.8596C286.994 79.0058 287.634 78.1254 288.175 77.265L288.835 76.2111L287.701 76.7181C286.821 77.1116 285.914 77.4984 285 77.8786L284.52 78.0854L284.146 78.2588L283.512 78.5189C283.352 78.5456 283.186 78.5523 283.019 78.5523C282.765 78.5523 282.512 78.5323 282.245 78.5056C281.938 78.4789 281.625 78.4522 281.291 78.4522C281.211 78.4522 281.138 78.4522 281.058 78.4522L280.898 77.8853L280.698 77.1649L280.544 76.658C280.431 76.2845 280.311 75.8977 280.284 75.6108C280.264 75.3174 280.297 74.9905 280.338 74.6437L280.398 73.9767L280.431 73.4298C280.458 72.9962 280.491 72.5493 280.478 72.1025C280.471 71.5755 280.411 71.0419 280.358 70.535C280.291 69.8414 280.224 69.1944 280.251 68.5741C280.277 67.9804 280.398 67.3735 280.504 66.7999C280.571 66.4464 280.638 66.0862 280.684 65.7327C280.871 65.7327 281.051 65.7327 281.231 65.7327C282.972 65.7327 284.353 65.5526 285.914 65.3392L286.38 65.2725L286.414 64.9856C286.494 64.2786 286.601 63.5916 286.701 62.9113C286.774 62.4044 286.847 61.8975 286.914 61.3772L286.981 60.8903L285.207 61.1304C283.873 61.3105 282.579 61.4906 281.218 61.6507C280.851 59.7831 280.244 58.1423 279.637 56.5015L279.417 55.9012L279.43 55.8945Z" fill="#FAFAFA"></path>
<path d="M263.889 61.2168L263.742 61.2902C263.416 61.4569 263.042 61.6437 262.609 61.8504L262.175 62.0906L261.621 62.364H261.481L261.161 62.3974C260.721 62.5108 260.374 62.8309 260.141 63.3312C259.707 63.4579 259.274 63.5846 258.84 63.7113L258.046 63.9448L257.739 63.598L257.646 63.5113L257.619 63.2978L257.519 62.7442L257.426 62.5108H255.458L254.898 62.4908C254.691 62.4774 254.485 62.4641 254.278 62.4641C254.058 62.4641 253.844 62.4774 253.637 62.5241L252.91 62.8976L252.664 63.051L251.843 63.5379C251.223 63.9048 250.643 64.2449 250.076 64.5518L249.716 64.7385L249.936 65.0787C250.262 65.6056 250.716 66.1325 251.15 66.6395L251.67 67.2531L251.863 67.4865L252.217 67.9401C252.343 68.1669 252.437 68.447 252.544 68.7472L252.757 69.3274L252.984 69.8077L253.317 70.6347C253.364 70.9616 253.357 71.3618 253.351 71.7419V72.1755L253.344 72.6157C253.344 73.5628 253.344 74.4166 253.317 75.237V75.7239C253.317 76.0507 253.317 76.3976 253.264 76.6577L253.111 76.9445L252.957 77.2246L252.624 77.905L252.41 78.3719C252.27 78.6787 252.13 78.9988 251.977 79.2323L251.563 79.6992L251.283 79.986C250.969 80.3261 250.663 80.673 250.363 81.0198C250.062 81.3533 249.776 81.6868 249.489 82.007L249.402 82.0937L249.115 82.714L249.182 83.0141H249.495C251.216 83.0141 252.924 82.9274 254.578 82.8474C256.332 82.7607 258.166 82.674 260.014 82.674H260.848L260.634 82.2204C261.241 82.2871 261.868 82.3805 262.502 82.4672C263.976 82.674 265.483 82.8941 267.077 82.8941C267.518 82.8941 267.958 82.8807 268.405 82.8407C269.138 82.7807 269.879 82.6273 270.606 82.4739C271.226 82.3471 271.813 82.2204 272.367 82.1604L273 82.087L272.64 81.5668C272.253 81.0132 271.793 80.4529 271.346 79.9126L270.773 79.2123L270.532 78.9455L270.219 78.5319C270.139 78.2985 270.099 77.9983 270.059 77.6715L269.979 77.1046L269.859 76.5443C269.785 76.2241 269.712 75.924 269.699 75.6705L269.739 74.9835L269.779 74.49L269.805 73.943L269.832 73.216C269.872 72.5557 269.832 71.9287 269.785 71.255L269.752 70.8015C269.672 69.6276 269.579 68.2669 269.439 66.973L269.412 66.5794C269.392 66.2593 269.372 65.9324 269.292 65.6523L268.972 65.052L268.832 64.8319L268.465 64.1849C268.165 63.658 267.871 63.1377 267.564 62.6108L267.491 62.4841L267.344 62.4374C266.704 62.244 266.097 62.0239 265.477 61.8038C264.996 61.6303 264.509 61.4636 264.016 61.2968L263.862 61.2501L263.889 61.2168ZM260.221 81.6134L260.094 81.5001L259.927 81.34C259.474 80.8798 259.067 80.4862 258.573 80.0193L258.366 79.8392L258.04 79.5124C257.98 79.2856 257.98 78.9722 257.98 78.672V78.1451L257.953 77.6515C257.946 77.3314 257.94 76.9979 257.886 76.6844L257.753 75.9907L257.633 75.3971L257.519 74.8835L257.386 74.1631L257.459 73.7763L257.519 73.5228L257.553 73.3361L257.659 72.8025L257.773 72.3222C257.86 71.9887 257.946 71.6486 257.946 71.3084C257.946 70.9816 257.873 70.6548 257.799 70.3679L257.719 69.9677C257.659 69.6209 257.599 69.2807 257.539 68.9139C259.02 67.8667 260.714 66.9863 262.355 66.1259L262.835 65.8791L263.035 66.1459L263.476 66.7462L263.736 67.093L264.256 67.8867C264.369 68.1202 264.463 68.4537 264.569 68.8072L264.716 69.2674L264.87 69.701C265.01 70.0811 265.15 70.4747 265.183 70.7815C265.323 72.2088 265.276 73.7829 265.236 75.177V75.317V75.8039C265.236 76.1641 265.236 76.5043 265.19 76.7644L264.89 77.5248L264.65 78.0584L264.616 78.1384C264.456 78.5653 264.296 78.9722 264.156 79.359C262.815 80.0994 261.541 80.8464 260.467 81.4867L260.241 81.6268L260.221 81.6134Z" fill="#FAFAFA"></path>
<path d="M313.855 61.3574L313.494 61.3708C313.248 61.4308 312.921 61.4975 312.587 61.5709C312.234 61.6509 311.86 61.7309 311.56 61.7976L311.313 61.8443L310.82 61.9644L310.393 62.3779L310.366 62.4646C309.933 62.598 309.499 62.7248 309.066 62.8515C308.452 63.0316 307.838 63.2117 307.238 63.4051L307.211 63.2117L307.131 62.7248L307.091 62.3979H305.13L304.61 62.3713C304.417 62.3579 304.217 62.3446 304.023 62.3446C303.816 62.3446 303.61 62.3579 303.416 62.4046L302.782 62.7648L302.542 62.9315C302.122 63.1983 301.702 63.4584 301.288 63.7119C300.928 63.932 300.581 64.1521 300.248 64.3589L299.908 64.5657L300.135 64.8925C300.548 65.4861 301.002 66.1131 301.442 66.7067L301.595 66.9201L301.815 67.1869L302.055 67.5071C302.162 67.7339 302.236 68.0207 302.322 68.3208L302.489 68.8944L302.682 69.428L302.963 70.2551C303.029 70.5353 303.063 70.8554 303.103 71.1956L303.176 71.7959L303.263 72.3095C303.329 72.6563 303.396 73.0165 303.396 73.2966C303.396 73.5701 303.323 73.8902 303.256 74.197L303.143 74.744L303.069 75.3643C303.036 75.6844 303.003 75.9979 302.929 76.2714L302.549 77.1051L302.302 77.5854L302.082 78.0923C301.949 78.4058 301.822 78.7059 301.675 78.9394L301.068 79.7064L300.728 80.0933L300.301 80.6269L300.041 80.947L298.234 80.2066C297.427 79.8798 296.593 79.5397 295.792 79.1862C295.819 78.806 295.892 78.4191 295.952 78.0122C296.053 77.4453 296.153 76.865 296.159 76.2714C296.159 75.7378 296.126 75.1842 296.079 74.6506C296.059 74.3304 296.033 74.0103 296.019 73.6968C295.992 73.0765 295.972 72.4629 295.952 71.8426C295.926 70.8354 295.899 69.7882 295.819 68.7344L295.739 67.9006C295.679 67.347 295.619 66.8268 295.652 66.3399C295.686 65.7529 295.772 65.166 295.852 64.599C295.932 64.0521 296.012 63.4851 296.039 62.8648L296.019 62.6714L295.886 62.5713L295.566 62.498L295.325 62.538C294.905 62.5914 294.498 62.6314 294.098 62.6714C293.645 62.7181 293.204 62.7581 292.764 62.8115L292.464 62.8381L291.75 62.9315L291.13 63.2383L290.863 63.3918C290.063 63.8053 289.162 64.2722 288.409 64.7124L287.922 64.9992L288.369 65.346C288.662 65.5662 288.962 65.7929 289.256 66.013C289.816 66.4332 290.39 66.8601 290.923 67.3137C291.057 68.8011 291.023 70.3085 290.997 71.9026C290.983 72.5896 290.97 73.2899 290.97 73.9836C290.97 74.2904 290.983 74.5972 290.99 74.9041C291.01 75.4243 291.037 75.9179 290.99 76.3981C290.963 76.6916 290.897 77.0251 290.83 77.3719L290.743 77.8121L290.67 78.2857C290.623 78.6059 290.576 78.946 290.49 79.1595L290.196 79.4796L290.003 79.6731L289.523 80.18C289.196 80.5335 288.876 80.8736 288.509 81.2338C288.415 81.3072 288.189 81.4806 288.215 81.7941L288.242 82.0809L288.529 82.1276C290.136 82.4077 291.864 82.6812 293.791 82.7346L294.372 82.7679L295.105 82.8079L295.506 82.7812L296.219 82.5411L296.513 82.4144C297.64 82.0009 298.54 81.654 299.274 81.3539L299.921 81.0871L299.741 81.6207L299.794 81.8941L300.068 81.9275L300.868 82.0342L301.549 82.1276L302.029 82.201C302.396 82.261 302.769 82.3277 303.156 82.3277C303.216 82.3277 303.269 82.3277 303.323 82.3277C303.823 82.3277 304.283 82.221 304.757 82.1343C305.237 82.0476 305.684 81.9675 306.137 81.9542C306.217 81.9542 306.298 81.9542 306.378 81.9542C306.831 81.9542 307.271 82.0009 307.732 82.0409C308.192 82.0809 308.665 82.1276 309.152 82.1276H309.899L309.639 81.5807C309.479 81.2538 309.246 80.9403 309.026 80.6402L308.765 80.28L308.499 79.9132L307.925 79.0261L307.672 78.3124L307.491 77.7788L307.298 77.3186L307.038 76.5849C307.011 76.3381 307.031 76.0246 307.038 75.7178L307.058 75.3376C307.085 74.4705 307.125 73.5501 307.251 72.5829L307.331 72.0827C307.391 71.7358 307.458 71.3757 307.451 71.0222C307.451 70.5219 307.338 70.035 307.245 69.5748C307.171 69.2279 307.098 68.8944 307.071 68.5743L307.818 67.9673C308.165 67.6672 308.519 67.367 308.912 67.1403C309.266 66.9402 309.659 66.7734 310.073 66.6067L310.846 66.2798L312.547 65.4861L312.934 65.9663L313.281 66.4066L313.601 66.7601L314.168 67.4804C314.395 67.9073 314.548 68.3809 314.715 68.8878C314.862 69.3413 315.015 69.8082 315.229 70.2685C315.048 71.6958 314.868 73.2166 314.795 74.7973V75.4376C314.795 75.7912 314.795 76.1246 314.742 76.4315L314.588 76.805L314.488 77.0318L314.235 77.6387C314.035 78.099 313.841 78.5525 313.681 78.9861C313.294 79.2528 312.874 79.5263 312.454 79.7998C312.047 80.0733 311.64 80.3334 311.233 80.6135L310.84 81.0938L310.826 81.2938L311.02 81.5006L311.12 81.5273C311.487 81.634 311.887 81.7274 312.294 81.8274L312.947 81.9875L313.514 82.1476C313.941 82.2743 314.381 82.4077 314.815 82.4544C315.142 82.4878 315.502 82.4944 315.849 82.5011L316.409 82.5144L316.903 82.5478L317.67 82.5878L318.03 82.5745C318.423 82.5345 318.81 82.4011 319.184 82.2677L319.691 82.1076C319.991 82.0209 320.278 81.9475 320.565 81.8808L321.345 81.6807L321.798 81.554L321.578 81.1338C320.718 79.4996 319.724 77.532 318.917 75.3309C318.984 74.9908 319.037 74.6439 319.077 74.2971L319.15 73.7968L319.251 73.2499C319.324 72.8764 319.397 72.4895 319.411 72.096C319.417 71.7092 319.364 71.3223 319.311 70.9421L319.244 70.4019C319.084 68.8144 318.97 67.1002 318.91 65.4461V65.326L318.837 65.2327C318.61 64.9325 318.357 64.5923 318.09 64.2588C317.843 63.9454 317.603 63.6252 317.376 63.3251L317.23 63.0983L316.816 62.5847L316.256 62.3446L316.009 62.2579L315.382 62.0111C314.848 61.8043 314.328 61.5975 313.821 61.3974" fill="#FAFAFA"></path>
<path d="M242.197 61.8906C242.117 61.8906 242.037 61.8906 241.957 61.904C241.583 61.9573 241.196 61.984 240.816 62.0107C240.242 62.0507 239.655 62.0974 239.122 62.2241C238.815 62.2975 238.522 62.4176 238.241 62.5376L237.768 62.7177L237.268 62.8778C236.967 62.9712 236.667 63.0645 236.394 63.1913C236.04 63.3447 235.713 63.5648 235.4 63.7782L235 64.045C234.5 64.3518 234.059 64.632 233.652 64.9455L233.559 65.0188L233.526 65.1322C233.259 65.9526 233.012 66.8064 232.765 67.6534C232.652 68.0403 232.539 68.4272 232.432 68.814L232.285 69.3076H232.799C233.006 69.3009 233.206 69.3009 233.399 69.3009C233.999 69.3009 234.546 69.3009 235.093 69.3143C235.633 69.3209 236.167 69.3276 236.734 69.3276C236.901 69.3276 237.081 69.3276 237.254 69.3276H237.594L237.628 68.9874C237.654 68.6606 237.694 68.3404 237.734 68.027L237.795 67.52L237.828 67.0131C237.848 66.693 237.868 66.3328 237.941 66.126L238.361 65.6925L238.662 65.419L239.175 64.9121C239.582 65.1922 239.996 65.459 240.409 65.7192C240.783 65.9526 241.156 66.1927 241.523 66.4395C241.583 66.8797 241.656 67.3133 241.73 67.7402C241.81 68.2737 241.897 68.8007 241.97 69.3409C240.776 70.0013 239.349 70.6949 238.081 71.3086L237.955 71.3686L237.428 71.602C237.101 71.7421 236.767 71.8822 236.467 72.0689L235.947 72.5092L235.747 72.7026L235.087 73.2895L234.373 73.9298L234.166 74.0966L233.619 74.6569C233.426 75.017 233.332 75.4706 233.239 75.9175L233.112 76.4711L233.012 76.8046L232.859 77.3248L232.772 77.5783L232.612 78.3187L232.825 79.059L232.912 79.2858L233.232 80.1662C233.426 80.7132 233.619 81.2534 233.806 81.7804L233.859 81.9404L234.013 82.0071L234.339 82.2939C234.606 82.5541 234.873 82.8209 235.213 82.8609H235.293C235.48 82.8609 235.7 82.8009 236 82.7008L236.267 82.6208L236.794 82.474L237.168 82.3606L237.908 82.1939C238.308 82.1139 238.688 82.0338 239.048 81.8937L239.609 81.5936L239.809 81.4735L240.376 81.1467C240.816 80.8933 241.25 80.6331 241.663 80.413C241.977 80.6998 242.283 80.9866 242.584 81.2868C242.99 81.6736 243.391 82.0672 243.824 82.434L243.951 82.5407L244.118 82.5207C244.705 82.454 245.318 82.4073 245.918 82.3606C246.485 82.3206 247.052 82.2739 247.586 82.2139L247.739 82.1939L247.833 82.0805C248.586 81.1934 249.414 80.1862 250.174 79.2324L250.414 78.4988L250.327 78.292L250.101 78.272C248.867 78.1586 247.553 78.0719 246.365 77.9918H246.212C246.345 76.2443 246.565 74.4968 246.779 72.8026L246.939 71.5487L247.052 70.8283C247.146 70.2947 247.239 69.7345 247.219 69.2409C247.206 68.8474 247.112 68.4538 247.026 68.0736L246.906 67.5334C246.565 65.6925 246.119 64.1451 245.692 62.7377L245.625 62.5109L245.385 62.4776C245.045 62.4309 244.711 62.3575 244.378 62.2841L243.811 62.1708L243.411 62.0841C243.01 61.9973 242.57 61.8973 242.19 61.8973M239.329 78.2853L238.502 77.8184L237.681 77.3515C237.828 76.898 237.981 76.4578 238.135 76.0175C238.295 75.5373 238.462 75.0637 238.615 74.5768L238.935 74.33C239.515 73.8765 240.096 73.4296 240.689 72.9827L241.136 73.7364L241.47 74.3234C241.383 74.6569 241.303 74.9637 241.21 75.2772L241.003 76.0442L240.949 76.351L240.889 76.6378L240.309 77.2448L240.042 77.4983L239.382 78.232L239.335 78.2853H239.329Z" fill="#FAFAFA"></path>
<path d="M332.622 61.9168C332.475 61.9168 332.335 61.9168 332.195 61.9368C331.875 61.9635 331.555 61.9769 331.241 61.9969C330.694 62.0169 330.134 62.0502 329.594 62.1436C329.08 62.2303 328.587 62.3704 328.113 62.5105C327.633 62.6505 327.173 62.7839 326.712 62.8573L326.612 62.8706L326.532 62.9307C326.139 63.2508 325.745 63.6043 325.358 63.9578L324.705 64.5381L324.498 64.6982L324.004 65.1918L323.824 65.8121L323.758 66.1122C323.664 66.4124 323.578 66.7058 323.484 66.9926C323.317 67.5262 323.137 68.0732 322.997 68.6668L322.891 69.1203L323.358 69.1337C324.258 69.1604 325.112 69.2004 325.919 69.2404C326.466 69.2604 326.993 69.2871 327.5 69.3071H327.773L327.866 69.0603C328.04 68.6001 328.207 68.1399 328.373 67.673C328.56 67.1394 328.753 66.6058 328.954 66.0922L329.614 65.8588C330.047 65.6987 330.488 65.5453 330.921 65.3919L331.295 65.8921L331.582 66.279L331.788 66.5324L332.322 67.2661V67.9598L332.289 68.4934V69.6139C331.908 69.7807 331.515 69.9274 331.108 70.0808C330.621 70.2609 330.114 70.4477 329.621 70.6811C329.134 70.9146 328.627 71.2147 328.133 71.5082L327.333 71.9751L327.033 72.1218L326.506 72.402L325.985 72.9289L325.812 73.1357C325.505 73.4691 325.238 73.7493 324.952 74.0494L324.385 74.6431L323.824 75.3901L323.758 76.0571V76.3239L323.718 76.8441L323.698 77.211L323.644 77.7446C323.584 78.2181 323.524 78.6984 323.591 79.0585L323.911 79.7922L324.018 79.9857L324.171 80.2992C324.391 80.7527 324.598 81.1662 324.832 81.6598L324.898 81.8199C325.098 82.2868 325.238 82.5736 325.505 82.6536L325.745 82.687L326.412 82.5803L326.659 82.5269C327.393 82.4269 327.98 82.3535 328.64 82.2735L328.927 82.2468L329.714 82.12L330.321 81.7599L330.548 81.5931C331.041 81.2663 331.542 80.9528 332.028 80.6393L332.509 80.3392L332.742 80.6727C333.042 81.0862 333.336 81.4997 333.643 81.9266L333.736 82.06L334.35 82.6603H335.063L335.323 82.6203L335.957 82.5803C336.25 82.5603 336.544 82.5336 336.917 82.5136H337.184L337.851 82.4669L338.612 81.8533L338.772 81.6865L339.479 80.9395C339.819 80.5793 340.139 80.2325 340.553 79.8589V78.8651C340.059 78.7451 339.552 78.6383 339.045 78.5316C338.298 78.3715 337.524 78.2048 336.797 78.0047C336.804 77.6178 336.784 77.2577 336.764 76.9042C336.737 76.4373 336.711 76.0037 336.757 75.5302C336.804 75.0032 336.937 74.4763 337.078 73.916C337.184 73.4625 337.304 73.0023 337.371 72.5354C337.424 72.2019 337.458 71.8417 337.484 71.4815L337.544 70.8679L337.625 70.3009C337.691 69.9341 337.751 69.5539 337.738 69.1871C337.725 68.8202 337.638 68.4334 337.551 68.0665L337.424 67.4595C337.118 65.6453 336.704 64.1046 336.264 62.5505L336.19 62.2837L335.91 62.2703C335.423 62.257 334.91 62.1703 334.416 62.0969C333.843 62.0035 333.256 61.9102 332.675 61.9102M331.188 77.7379L330.674 77.6445C330.007 77.5245 329.34 77.4111 328.667 77.3044V76.7908C328.667 76.4439 328.667 76.1238 328.74 75.8036C328.814 75.4701 329.014 75.1233 329.22 74.7498C329.407 74.4229 329.601 74.0828 329.721 73.7293L330.428 73.2891L330.988 72.9356C331.335 73.5959 331.682 74.2762 332.048 75.0099C331.862 75.5568 331.695 76.1171 331.522 76.6707C331.408 77.0242 331.301 77.3844 331.188 77.7446" fill="#FAFAFA"></path>
<path d="M151.654 10.459L151.587 10.7658C153.075 20.5373 154.629 29.9085 156.556 39.2197C158.21 47.197 160.125 55.4343 161.872 63.2382C162.132 64.4054 162.526 65.5993 162.633 66.6999C162.659 66.9733 162.673 67.2535 162.673 67.5269C162.673 68.7342 162.473 69.9815 162.426 71.1954C162.286 74.7638 162.266 78.1321 162.426 81.5404C162.473 81.8406 162.493 82.1274 162.499 82.4075V82.5676C162.499 82.6677 162.499 82.7677 162.499 82.8744C162.533 83.3947 162.566 83.9216 162.606 84.4552C162.613 84.5753 162.626 84.702 162.633 84.8221C162.793 88.3905 163.26 91.6921 163.807 94.9137C155.022 80.2598 144.624 67.02 134.052 53.9403C136.767 58.5425 140.095 62.8046 143.03 67.2535C145.978 71.729 148.986 76.1712 152.001 80.6333C146.751 75.3574 141.269 70.0815 135.853 64.7989C140.155 69.1077 144.464 73.4698 148.899 77.7119C149.459 78.2522 150.073 78.7991 150.627 79.3527C151.174 79.8996 151.834 80.4399 152.288 80.9935C152.988 81.8473 153.528 82.9078 154.148 83.8482C155.976 86.6096 157.67 89.3976 159.644 92.1656C159.678 92.2057 159.705 92.2524 159.738 92.2991L159.184 91.9389C146.565 80.8268 134.872 68.4407 125.354 54.5472C126.375 55.5077 127.395 56.4815 128.416 57.462C127.529 56.5749 126.648 55.6811 125.768 54.794L125.074 54.1804C134.099 67.5669 145.638 79.973 157.73 90.785C158.577 91.5387 159.584 92.2057 160.218 92.9727C160.878 93.7798 161.459 94.7136 162.292 95.4673C163.046 96.1476 164.3 96.8613 164.78 97.655C165.227 98.3954 165.294 99.049 166.021 99.3558C166.341 99.4959 166.835 99.5293 167.342 99.5293C167.762 99.5293 168.189 99.5026 168.509 99.4759C168.555 99.3892 168.622 99.3091 168.682 99.2424C168.602 99.3025 168.522 99.3625 168.435 99.4159C168.382 99.4025 168.322 99.4025 168.255 99.4025H168.195C168.055 99.4025 167.889 99.4292 167.715 99.4492C167.628 99.4559 167.542 99.4692 167.455 99.4759C167.368 99.4759 167.282 99.4892 167.195 99.4892H167.121C167.081 99.4892 167.035 99.4892 166.995 99.4892C166.841 99.4826 166.695 99.4559 166.581 99.3959C166.555 99.3892 166.535 99.3758 166.508 99.3558C166.448 87.6901 165.954 75.6976 165.954 65.1858C165.954 64.4988 165.954 63.8184 165.961 63.1314C166.014 55.0608 166.414 47.1236 166.988 39.4665C167.168 36.9986 167.255 34.5441 167.655 32.1429C167.702 31.8495 167.755 31.556 167.815 31.2625C167.808 31.2625 167.795 31.2625 167.788 31.2625C167.415 31.2625 167.288 32.7699 167.188 33.2702C166.748 35.6046 166.288 38.2526 165.948 40.0802L165.881 39.5932C165.621 42.9482 165.007 46.2965 164.5 49.6849C164 53.0532 163.66 56.4748 163.186 59.8965C161.892 53.7602 160.385 47.8106 159.118 41.6609C156.51 31.3759 154.289 20.744 151.661 10.4657M203.299 59.7631C191.527 71.9491 179.748 84.1351 169.816 97.9418C169.529 98.342 169.242 98.7355 168.882 99.0624C169.363 98.7355 170.063 98.6421 170.643 98.3687C172.284 97.5883 173.451 96.0142 174.578 94.7202C176.546 92.4458 178.4 89.9379 180.241 87.6701C182.789 84.5353 185.397 81.4471 187.905 78.3656C190.466 75.224 193.047 72.1425 195.635 69.121C198.303 66.0195 200.931 62.9313 203.299 59.7564" fill="#B5CBDA"></path>
<path d="M202.821 36.1785C202.741 36.3119 202.44 36.6788 202.387 36.6788C202.374 36.6788 202.387 36.6254 202.474 36.4787C202.127 36.9523 201.787 37.4258 201.447 37.8994C190.855 52.5732 181.477 68.3543 172.306 84.3888C171.832 85.2225 170.618 86.8834 170.445 87.7371C170.338 88.2374 170.305 88.8043 170.305 89.3579C170.305 89.9449 170.345 90.5118 170.371 90.9587H170.445C171.892 88.0506 174.133 85.4493 175.894 82.6279C177.615 79.8733 179.149 77.0319 181.003 74.2972C180.923 74.3572 180.877 74.3839 180.85 74.3839C180.776 74.3839 180.937 74.1305 181.003 73.9904C181.73 72.4363 182.864 70.9089 183.758 69.3081C187.326 62.9583 191.122 56.6819 194.737 50.3988C197.465 45.6565 200.253 40.8208 202.814 36.1719" fill="#B5CBDA"></path>
<path d="M195.429 21.0965C187.718 32.362 181.215 44.6947 175.619 57.8212C176.573 49.8573 177.72 42.0201 178.587 34.1095C178.881 31.4349 179.454 28.7403 179.214 25.9656C175.526 39.072 172.744 53.2189 170.65 67.7927C170.35 69.867 169.969 71.9614 169.829 74.0157C169.829 74.0491 169.829 74.0824 169.829 74.1158C169.816 74.4026 169.803 74.6827 169.803 74.9629C169.803 77.4574 170.45 79.892 170.45 82.3798C170.83 81.6328 171.21 80.9525 171.624 80.2521C172.017 79.5851 172.657 78.9181 172.864 78.1845C173.078 77.4041 173.084 76.5036 173.204 75.6899C173.625 72.9819 174.011 70.2406 174.385 67.4859C174.692 65.2381 174.985 62.9837 175.279 60.7292C175.319 60.4024 175.339 60.0623 175.359 59.7221C175.392 59.2152 175.425 58.7016 175.552 58.2347C175.759 57.461 176.299 56.6272 176.659 55.8068C181.955 43.5141 188.152 31.8284 195.302 21.5167C187.898 40.2325 180.461 58.9084 173.138 77.6975L173.758 76.7838L173.418 77.1506C180.421 59.6687 187.165 41.9801 194.135 24.5582C194.595 23.4043 195.229 22.3104 195.442 21.0898" fill="#B5CBDA"></path>
<path d="M195.29 21.5234C188.147 31.8418 181.944 43.5209 176.648 55.8136C176.294 56.6406 175.747 57.4744 175.541 58.2481C175.414 58.715 175.38 59.2219 175.354 59.7288C175.334 60.069 175.314 60.4091 175.267 60.736C174.974 62.9837 174.68 65.2382 174.373 67.4859C174 70.2406 173.613 72.982 173.193 75.69C173.066 76.5037 173.066 77.4108 172.846 78.1845C172.639 78.9115 171.999 79.5785 171.605 80.2522C171.185 80.9525 170.812 81.6329 170.431 82.3799C170.431 79.892 169.791 77.4575 169.784 74.9629C169.784 74.6828 169.784 74.396 169.804 74.1158C169.804 74.0825 169.804 74.0491 169.804 74.0158C169.945 71.9548 170.325 69.8671 170.625 67.7927C172.719 53.2123 175.501 39.0654 179.189 25.9656C179.316 25.6721 179.236 25.1919 179.256 24.8117C177.442 29.6341 175.994 35.01 174.353 40.4994C172.919 45.3084 171.499 50.4909 170.211 55.5801C170.185 55.7068 170.038 56.2671 169.971 56.2671C169.951 56.2671 169.938 56.2071 169.938 56.067C169.584 58.2081 169.111 60.2424 168.49 62.1433C168.23 58.5882 167.717 54.9798 167.723 51.3247C167.723 51.0779 167.723 50.8378 167.73 50.591C167.21 44.4213 167.503 37.2245 167.797 31.2549C167.737 31.5483 167.683 31.8418 167.637 32.142C167.237 34.5431 167.156 36.9977 166.976 39.4655C166.403 47.1226 166.009 55.0665 165.949 63.1305C165.949 63.8108 165.949 64.4978 165.949 65.1848C165.949 75.6966 166.436 87.6825 166.503 99.3549C166.523 99.3682 166.55 99.3815 166.57 99.3882C166.69 99.4416 166.83 99.4682 166.983 99.4816C167.023 99.4816 167.07 99.4816 167.116 99.4816H167.19C167.277 99.4816 167.363 99.4816 167.45 99.4682C167.537 99.4682 167.623 99.4549 167.71 99.4416C167.883 99.4216 168.044 99.4015 168.19 99.4015C168.21 99.4015 168.23 99.4015 168.25 99.4015C168.317 99.4015 168.384 99.4015 168.437 99.4149C169.031 99.048 169.424 98.5078 169.818 97.9542C169.804 97.9542 169.791 97.9542 169.778 97.9608C169.738 97.9742 169.698 98.0009 169.664 98.0342C169.591 98.1076 169.531 98.221 169.484 98.321C169.438 98.4144 169.391 98.4878 169.331 98.5011C169.324 98.5011 169.318 98.5011 169.304 98.5011C169.291 98.5011 169.284 98.5011 169.271 98.4944C170.078 96.3467 170.045 93.4586 170.445 90.9574H170.371C170.345 90.5039 170.305 89.9436 170.305 89.3566C170.305 88.8097 170.338 88.2428 170.445 87.7425C170.618 86.8954 171.832 85.2279 172.306 84.3942C181.477 68.3597 190.855 52.5786 201.447 37.8981C201.787 37.4246 202.134 36.951 202.474 36.4841C202.661 36.0972 202.934 35.7904 203.101 35.3902C192.802 48.7368 182.744 62.2967 173.76 76.7905L173.133 77.7043C180.456 58.9151 187.893 40.2393 195.297 21.5234" fill="#A4B7C4"></path>
<path d="M151.241 9.72542C153.222 26.0001 155.537 42.3014 158.285 57.6956C155.85 48.7712 153.356 39.9069 150.621 31.2493C151.822 43.6887 153.449 56.0748 155.45 67.6071C154.963 66.6199 154.53 65.5794 153.929 64.6857C156.431 69.5947 158.878 74.4438 161.386 79.3995C161.747 80.1065 162.32 80.8936 162.42 81.5206C162.26 78.1256 162.273 74.7573 162.42 71.1822C162.467 69.9682 162.667 68.721 162.667 67.5137C162.667 67.2336 162.654 66.9601 162.627 66.6866C162.52 65.5861 162.133 64.3922 161.867 63.2249C160.112 55.4211 158.198 47.1838 156.551 39.2065C154.63 29.8953 153.069 20.524 151.582 10.7526C151.528 10.3991 151.462 9.72542 151.235 9.71875M162.5 82.8679C162.5 83.1147 162.487 83.3481 162.487 83.5882C162.487 83.9684 162.507 84.3419 162.607 84.7155C162.607 84.7488 162.62 84.7822 162.634 84.8155C162.627 84.6955 162.614 84.5687 162.607 84.4487C162.567 83.9217 162.534 83.3948 162.5 82.8679Z" fill="#A4B7C4"></path>
<path d="M207.788 45.9032C198.084 54.6808 189.099 64.1054 181.002 74.2904C179.148 77.0251 177.614 79.8664 175.899 82.6211C174.139 85.4425 171.897 88.0438 170.443 90.9519C170.043 93.4531 170.077 96.3412 169.27 98.4889C169.283 98.4889 169.29 98.4889 169.303 98.4889C169.303 98.4889 169.316 98.4889 169.323 98.4889C169.383 98.4756 169.43 98.3955 169.476 98.3021C169.53 98.2088 169.583 98.0954 169.656 98.0153C169.69 97.982 169.73 97.9553 169.77 97.942C169.783 97.942 169.796 97.9353 169.81 97.9353C179.741 84.1219 191.52 71.9426 203.293 59.7566C203.613 59.4631 204.013 58.9429 203.987 58.536C203.606 58.7094 203.493 59.1096 203.226 59.3898L202.326 60.2435C200.531 62.0244 198.557 63.6252 196.663 65.286C195.396 66.3932 193.962 67.3603 192.661 68.4542C191.347 69.5414 190.106 70.702 188.586 71.549C188.292 72.1427 187.478 72.2827 187.205 72.8897C185.984 73.43 185.217 74.7039 184.103 75.1375C192.001 65.4327 200.111 55.5946 207.782 45.8965" fill="#8EA7BB"></path>
<path d="M125.355 54.5332C134.873 68.4267 146.566 80.8127 159.185 91.9248L159.739 92.2917C159.712 92.245 159.679 92.205 159.646 92.1583C157.678 89.3836 155.977 86.5956 154.15 83.8409C153.529 82.8937 152.989 81.8399 152.289 80.9861C151.835 80.4325 151.175 79.8923 150.628 79.3453C150.081 78.7917 149.467 78.2381 148.9 77.7045C144.471 73.4558 140.163 69.0937 135.854 64.7916C133.379 62.317 130.912 59.8625 128.417 57.4613C127.403 56.4808 126.383 55.507 125.355 54.5465" fill="#A4B7C4"></path>
<path d="M163.326 0C162.846 1.59411 162.726 3.2616 162.499 4.92241C160.871 16.6281 159.591 29.0142 159.117 41.6471C160.391 47.8034 161.892 53.7463 163.193 59.8826C163.666 56.4543 164 53.0393 164.5 49.671C165.007 46.2827 165.62 42.941 165.88 39.5794C165.06 26.3662 164.053 13.2998 163.333 0" fill="#8EA7BB"></path>
<path d="M174.859 15.3203C171.798 26.4658 169.323 38.1315 167.742 50.5842C167.742 50.831 167.742 51.0711 167.742 51.3179C167.742 54.9797 168.249 58.5882 168.509 62.1366C169.13 60.2356 169.603 58.2013 169.957 56.0669C171.591 42.527 173.378 28.8069 174.859 15.3337" fill="#8EA7BB"></path>
<path d="M133.98 25.4121C139.083 42.4938 146.28 58.1882 154.21 72.6552C154.477 73.1355 154.89 73.589 154.83 73.9892C153.19 72.3418 151.362 70.4808 149.514 68.9468C147.627 66.7724 145.139 65.1382 143.298 62.9238C140.55 60.6227 137.949 57.6546 135.361 54.9532C135.114 54.5597 134.767 54.2329 134.46 53.8594C134.147 53.4725 133.947 52.9589 133.567 52.7055C133.54 53.139 133.76 53.5259 134.047 53.9194C144.619 67.0058 155.017 80.239 163.808 94.8995C163.261 91.6779 162.788 88.3763 162.634 84.8079C162.628 84.7745 162.614 84.7412 162.608 84.7145C162.507 84.341 162.487 83.9674 162.487 83.5873C162.487 83.3538 162.487 83.1137 162.501 82.8669C162.501 82.7669 162.501 82.6668 162.501 82.5601V82.4C162.501 82.1199 162.481 81.8331 162.427 81.5329C162.321 80.8926 161.754 80.0989 161.394 79.3985C158.886 74.4428 156.438 69.5937 153.937 64.6847C153.59 63.6575 153.016 62.8838 152.556 61.95C146.66 50.0975 140.63 38.1917 134.674 26.506C134.467 26.0991 134.307 25.5789 133.98 25.4121Z" fill="#8EA7BB"></path>
<path d="M199.532 86.7493C197.431 86.7493 195.383 86.9828 193.409 87.503C187.306 89.0972 182.337 93.2992 178.635 99.9825L179.275 100.383C184.504 92.9257 191.034 89.2506 199.111 89.2506C201.259 89.2506 203.514 89.5107 205.881 90.0243C215.8 92.1853 226.391 98.5484 235.736 104.158C242.379 108.146 248.656 111.915 253.918 113.743C256.146 114.516 258.667 114.903 261.209 114.903C263.149 114.903 265.11 114.67 266.938 114.203C271.674 112.996 275.249 110.348 277.03 106.732C281.092 105.338 285.28 102.604 289.329 99.9625C292.931 97.6146 296.653 95.1868 300.148 93.8195C301.735 93.1992 303.929 92.6922 306.07 92.6922C308.212 92.6922 310.419 93.2258 311.76 94.7399C312.987 96.1139 313.214 98.1149 312.387 100.103C310.933 103.578 307.131 105.358 303.816 105.358C303.242 105.358 302.682 105.305 302.155 105.198C301.195 105.005 298.96 104.325 298.96 102.19C298.96 101.47 299.28 100.81 299.861 100.343C300.374 99.9224 301.061 99.6957 301.735 99.6957C301.942 99.6957 302.149 99.7157 302.355 99.7624L304.323 100.189L302.642 99.0754C302.122 98.7285 301.482 98.5551 300.801 98.5551C300.121 98.5551 299.481 98.7152 298.834 99.0353C297.466 99.709 296.559 100.943 296.466 102.244C296.286 104.771 298.86 106.946 301.375 107.393C301.988 107.506 302.615 107.553 303.242 107.553C307.905 107.553 312.687 104.631 314.294 100.536C315.082 98.5218 315.075 96.3207 314.274 94.4931C313.547 92.839 312.247 91.605 310.506 90.9314C309.305 90.4645 307.931 90.2644 306.504 90.2644C303.736 90.2644 300.775 91.0181 298.52 92.0252C295.172 93.526 291.837 95.7804 288.609 97.9615C284.94 100.436 281.472 102.784 278.043 104.071C279.944 96.6942 275.709 91.7718 271.007 89.5907C269.126 88.7236 267.098 88.2768 265.104 88.2768C264.097 88.2768 263.096 88.3901 262.129 88.6169C257.22 89.7641 254.012 93.4193 254.332 97.5079C254.579 100.643 256.219 103.331 259.074 105.278C261.869 107.186 265.591 108.2 269.299 108.2C270.813 108.2 272.321 108.033 273.761 107.68C271.167 111.268 266.685 112.795 262.056 112.795C259.574 112.795 257.046 112.355 254.745 111.555C251.19 110.321 246.154 107.213 240.318 103.604C228.526 96.3274 212.965 86.7227 199.538 86.7227M268.932 106.219C265.577 106.219 261.889 105.338 259.041 102.35C257.64 100.883 256.813 99.1487 256.726 97.4746C256.593 95.0734 257.914 93.1124 260.441 91.9519C261.889 91.2916 263.443 90.9647 264.997 90.9647C267.785 90.9647 270.553 92.0119 272.641 93.9929C275.709 96.9143 276.563 101.163 274.942 105.385C273.341 105.812 271.22 106.212 268.939 106.212" fill="#FAFAFA"></path>
<path d="M134.518 86.5352C121.198 86.5352 105.757 96.1399 94.0515 103.423C88.262 107.025 83.2529 110.133 79.7312 111.374C77.4501 112.174 74.9489 112.615 72.481 112.615C67.8854 112.615 63.4432 111.087 60.8686 107.499C62.296 107.846 63.7901 108.012 65.2908 108.012C68.9526 108.012 72.6277 107.012 75.3891 105.131C78.2571 103.177 79.9046 100.482 80.1514 97.3271C80.4716 93.2384 77.29 89.5833 72.4209 88.4361C71.4538 88.2093 70.46 88.0959 69.4662 88.0959C67.4785 88.0959 65.4709 88.5428 63.6033 89.4099C58.9277 91.591 54.7323 96.5134 56.6132 103.884C53.2182 102.596 49.7632 100.249 46.1347 97.774C42.9398 95.5929 39.6249 93.3385 36.2966 91.8377C34.0622 90.8239 31.1207 90.0769 28.3727 90.0769C26.952 90.0769 25.5914 90.277 24.3908 90.7439C20.6823 92.1913 19.0682 96.3199 20.6356 100.342C22.2297 104.437 26.9787 107.359 31.6076 107.359C32.2279 107.359 32.8482 107.305 33.4552 107.199C35.9564 106.745 38.511 104.571 38.3309 102.049C38.2375 100.729 37.3304 99.4948 35.9564 98.8278C35.3161 98.5143 34.6558 98.3543 34.0221 98.3543C33.3485 98.3543 32.7215 98.5277 32.1946 98.8745L30.5271 99.9884L32.4881 99.5615C32.6882 99.5148 32.8883 99.4948 33.095 99.4948C33.762 99.4948 34.4357 99.7216 34.9493 100.135C35.5296 100.602 35.8497 101.262 35.8497 101.989C35.8497 104.13 33.6153 104.811 32.6548 105.004C32.1412 105.111 31.5943 105.158 31.0407 105.158C27.7524 105.158 23.9706 103.383 22.5232 99.9084C21.6961 97.9207 21.9229 95.9131 23.1435 94.5457C24.4775 93.0383 26.6052 92.4981 28.7929 92.4981C30.9807 92.4981 33.095 93.005 34.6691 93.6253C38.1308 94.9926 41.826 97.4205 45.3944 99.7683C49.4164 102.41 53.5717 105.144 57.6004 106.532C60.3084 112.068 66.8182 114.729 73.2747 114.729C75.7826 114.729 78.2771 114.329 80.5383 113.535C85.7608 111.707 91.9905 107.946 98.5804 103.95C107.852 98.3476 118.363 91.9845 128.208 89.8234C130.556 89.3098 132.797 89.0497 134.925 89.0497C142.949 89.0497 149.425 92.7248 154.608 100.182L155.248 99.7816C151.566 93.085 146.624 88.883 140.541 87.2955C138.593 86.7819 136.572 86.5485 134.498 86.5485M65.651 106.011C63.3965 106.011 61.2888 105.604 59.7014 105.184C58.0806 100.929 58.9477 96.6601 62.0292 93.7387C64.0902 91.7911 66.8182 90.7639 69.5662 90.7639C71.1003 90.7639 72.6411 91.084 74.0751 91.7444C76.583 92.9049 77.897 94.8659 77.7636 97.2671C77.6635 98.9412 76.8498 100.675 75.4624 102.143C72.6411 105.131 68.9793 106.011 65.651 106.011Z" fill="#FAFAFA"></path>
<path d="M142.068 108.26C141.961 108.18 141.908 108.087 141.908 107.98C141.901 107.967 141.895 107.927 141.888 107.874C141.881 107.82 141.875 107.747 141.868 107.653C141.828 107.38 141.755 107.173 141.648 107.04C141.388 106.733 141.168 106.553 141.001 106.5C140.914 106.473 140.641 106.453 140.194 106.453H139.827C139.74 106.446 139.647 106.44 139.567 106.433C139.487 106.426 139.4 106.433 139.313 106.433C138.833 106.433 138.533 106.506 138.393 106.66C138.266 106.806 138.2 107.02 138.2 107.3C138.2 107.327 138.2 107.38 138.2 107.447C138.2 107.513 138.2 107.593 138.2 107.68C138.2 107.76 138.2 107.847 138.2 107.934C138.2 108.02 138.2 108.094 138.2 108.16V109.321C138.2 109.321 138.2 109.388 138.186 109.441C138.18 109.481 138.18 109.514 138.186 109.541C138.186 109.568 138.193 109.601 138.2 109.628C138.206 109.694 138.246 109.761 138.32 109.821C138.386 109.868 138.573 109.888 138.867 109.888C139.16 109.888 139.373 109.868 139.514 109.828C139.654 109.788 139.74 109.748 139.774 109.708C139.814 109.668 139.854 109.568 139.894 109.408C139.934 109.241 139.947 109.088 139.947 108.934V108.701C139.947 108.581 139.967 108.494 140.014 108.434C140.074 108.414 140.161 108.414 140.274 108.447C140.314 108.474 140.367 108.567 140.441 108.727C140.514 108.881 140.554 109.061 140.554 109.261V109.454C140.554 109.594 140.541 109.688 140.521 109.734C140.521 109.755 140.521 109.801 140.541 109.861C140.554 109.928 140.561 109.975 140.561 110.001V110.301C140.561 110.301 140.574 110.381 140.594 110.602C140.607 110.715 140.621 110.815 140.627 110.915C140.634 111.015 140.641 111.102 140.641 111.182C140.641 111.475 140.594 111.662 140.507 111.755C140.421 111.849 140.334 111.869 140.247 111.822C140.181 111.816 140.127 111.729 140.081 111.562C140.067 111.502 140.054 111.449 140.04 111.395C140.027 111.342 140.014 111.289 140 111.242C139.867 110.788 139.607 110.508 139.227 110.401C139.127 110.375 138.88 110.355 138.48 110.355L138.186 110.622V111.202L138.22 111.289L138.206 111.335L138.22 111.382V111.462C138.22 111.462 138.206 111.529 138.206 111.562C138.213 111.635 138.206 111.876 138.173 112.276C138.16 112.509 138.146 112.709 138.14 112.889C138.133 113.063 138.126 113.21 138.126 113.33C138.126 113.783 138.173 114.07 138.26 114.19C138.366 114.317 138.5 114.39 138.673 114.41C138.713 114.417 138.773 114.423 138.86 114.43C138.947 114.43 139.06 114.43 139.213 114.43C139.307 114.43 139.434 114.443 139.594 114.47C139.747 114.497 139.86 114.51 139.927 114.51C140.107 114.517 140.361 114.49 140.701 114.423C141.088 114.35 141.421 114.183 141.695 113.93C141.855 113.79 141.975 113.636 142.068 113.483C142.162 113.33 142.255 113.17 142.355 113.003L142.655 112.523L142.802 112.042C142.862 111.936 142.922 111.896 142.995 111.909C143.069 111.909 143.142 111.976 143.209 112.109C143.255 112.196 143.275 112.316 143.275 112.456C143.275 112.703 143.202 113.016 143.055 113.41L142.855 113.91C142.835 113.99 142.809 114.077 142.788 114.17C142.768 114.257 142.742 114.343 142.722 114.43C142.642 114.724 142.575 114.89 142.522 114.93C142.455 114.97 142.375 114.984 142.288 114.977C142.248 114.97 142.208 114.964 142.168 114.964C142.128 114.964 142.081 114.964 142.035 114.95C141.981 114.957 141.915 114.964 141.821 114.964H141.495L137.646 114.897C137.606 114.897 137.539 114.897 137.446 114.917C137.353 114.937 137.279 114.93 137.246 114.93C137.252 114.93 137.246 114.93 137.206 114.93C137.172 114.93 137.126 114.937 137.066 114.95C137.006 114.964 136.959 114.964 136.919 114.964H136.392C136.319 114.97 136.259 114.977 136.212 114.977C136.165 114.977 136.119 114.977 136.072 114.977C136.025 114.977 135.985 114.977 135.952 114.977C135.745 114.964 135.598 114.904 135.525 114.797C135.525 114.664 135.572 114.577 135.658 114.537C135.718 114.53 135.812 114.517 135.952 114.503C136.205 114.503 136.399 114.477 136.525 114.423C136.799 114.31 136.939 113.97 136.939 113.396C136.939 113.336 136.939 113.276 136.939 113.216C136.939 113.156 136.932 113.103 136.919 113.049C136.912 112.996 136.906 112.903 136.899 112.763C136.892 112.623 136.886 112.442 136.879 112.222V111.996C136.879 111.896 136.879 111.782 136.892 111.649C136.899 111.509 136.906 111.389 136.906 111.289V109.534C136.906 109.448 136.906 109.341 136.919 109.221C136.926 109.101 136.932 109.001 136.932 108.921V107.287C136.906 106.913 136.799 106.666 136.619 106.54C136.599 106.52 136.519 106.493 136.392 106.46C136.265 106.413 136.185 106.393 136.159 106.393C136.072 106.433 135.912 106.453 135.685 106.46C135.552 106.433 135.472 106.366 135.438 106.266C135.398 106.186 135.418 106.119 135.492 106.066C135.572 106.006 136.032 105.979 136.866 105.979H137.579C137.646 105.979 137.719 105.979 137.806 105.993C137.886 105.999 137.953 106.006 137.999 106.006H138.66C138.66 106.006 138.713 106.006 138.78 105.993C138.84 105.986 138.893 105.979 138.933 105.979H141.595C141.995 105.933 142.262 105.999 142.388 106.173C142.395 106.179 142.402 106.453 142.402 106.986C142.415 107.513 142.415 107.794 142.402 107.814C142.402 108.04 142.322 108.18 142.168 108.247H142.068V108.26Z" fill="#FAFAFA"></path>
<path d="M149.899 108.381C149.879 108.321 149.852 108.261 149.825 108.187C149.799 108.114 149.765 108.047 149.732 107.967C149.612 107.687 149.425 107.414 149.158 107.154C148.698 106.707 148.071 106.48 147.291 106.48C147.124 106.48 146.971 106.493 146.831 106.513C146.644 106.54 146.43 106.647 146.184 106.813C145.91 107 145.723 107.194 145.637 107.387C145.583 107.5 145.557 107.64 145.557 107.814C145.557 108.014 145.597 108.194 145.677 108.341C145.823 108.608 146.164 108.854 146.697 109.068C146.704 109.075 146.897 109.115 147.271 109.181L147.751 109.268C147.864 109.281 147.998 109.308 148.158 109.348C148.318 109.388 148.505 109.435 148.712 109.495C149.579 109.822 150.146 110.482 150.412 111.462C150.499 111.789 150.546 112.109 150.546 112.416C150.546 113.283 150.219 113.997 149.559 114.564C149.545 114.577 149.425 114.637 149.198 114.731C149.145 114.744 149.085 114.764 149.012 114.791C148.938 114.817 148.852 114.851 148.752 114.884C148.098 115.071 147.571 115.164 147.171 115.164C146.611 115.164 146.09 115.077 145.617 114.897L145.183 114.731C144.996 114.637 144.863 114.597 144.783 114.617C144.73 114.631 144.67 114.671 144.603 114.737C144.583 114.791 144.516 114.851 144.403 114.931C144.283 114.984 144.169 114.957 144.056 114.864C143.996 114.804 143.983 114.544 144.023 114.084C144.029 113.924 144.029 113.803 144.023 113.703C144.016 113.637 144.009 113.57 144.009 113.503C144.009 113.437 144.009 113.37 144.009 113.303V112.79C143.996 112.61 143.983 112.476 143.969 112.389C143.956 112.303 143.949 112.269 143.949 112.283C143.956 112.196 143.969 112.116 143.996 112.056C144.016 111.996 144.076 111.916 144.176 111.829C144.323 111.829 144.449 111.916 144.556 112.096C144.563 112.109 144.596 112.243 144.656 112.496C144.703 112.736 144.77 113.01 144.856 113.323C144.91 113.457 145.03 113.63 145.223 113.85C145.297 113.93 145.357 113.997 145.403 114.044C145.45 114.09 145.483 114.13 145.503 114.15C145.557 114.204 145.61 114.25 145.663 114.284C145.717 114.324 145.77 114.357 145.817 114.384C145.95 114.444 146.244 114.517 146.691 114.597C146.871 114.624 147.037 114.644 147.197 114.651C147.358 114.657 147.511 114.651 147.664 114.637C147.965 114.597 148.291 114.457 148.652 114.21C148.758 114.157 148.918 114.044 149.132 113.877C149.372 113.577 149.492 113.217 149.492 112.79C149.492 112.57 149.452 112.336 149.372 112.109C149.112 111.409 148.498 110.935 147.524 110.702L146.911 110.555C146.05 110.355 145.443 110.062 145.076 109.681C144.743 109.341 144.576 108.914 144.576 108.414C144.576 107.64 144.836 107.034 145.35 106.593C145.423 106.527 145.67 106.42 146.09 106.266C146.617 106.08 147.131 105.986 147.624 105.986C148.118 105.986 148.571 106.066 148.945 106.233L149.145 106.32C149.292 106.387 149.412 106.4 149.492 106.367L149.572 106.32C149.572 106.32 149.619 106.28 149.652 106.24C149.679 106.2 149.745 106.153 149.852 106.093C149.986 106.04 150.099 106.073 150.186 106.18C150.232 106.24 150.252 106.4 150.252 106.653V107.134C150.299 107.327 150.366 107.647 150.452 108.087C150.472 108.194 150.479 108.287 150.466 108.381C150.466 108.521 150.412 108.608 150.299 108.641C150.179 108.641 150.052 108.554 149.919 108.381H149.899Z" fill="#FAFAFA"></path>
<path d="M154.069 109.113C154.029 109.107 153.995 109.087 153.969 109.047C153.942 109.007 153.922 108.953 153.915 108.873C153.902 108.793 153.895 108.686 153.889 108.546C153.889 108.506 153.889 108.46 153.902 108.386C153.915 108.313 153.915 108.246 153.922 108.173C153.922 108.099 153.929 108.026 153.942 107.953C153.949 107.879 153.955 107.826 153.955 107.779V107.412C153.955 106.679 153.975 106.292 154.022 106.245C154.122 106.145 154.522 106.098 155.243 106.098H155.643L155.89 106.132H157.39C157.39 106.132 157.444 106.132 157.477 106.118H158.137L158.584 106.172H159.391C159.651 106.145 159.885 106.118 160.092 106.112C160.298 106.098 160.472 106.092 160.612 106.092H160.912C160.965 106.092 161.039 106.092 161.132 106.112C161.232 106.125 161.312 106.125 161.379 106.125H161.692C162.233 106.125 162.553 106.125 162.673 106.125C162.786 106.125 162.693 106.118 162.386 106.105C162.726 106.112 162.933 106.172 163 106.285C163.046 106.345 163.06 106.452 163.046 106.612C163.026 106.919 163.013 107.099 163.013 107.152V108.46C163.013 108.56 163.013 108.533 163.026 108.393C163.02 108.726 162.96 108.933 162.846 109.007C162.733 109.08 162.646 109.093 162.58 109.053C162.473 108.993 162.379 108.786 162.299 108.44C162.293 108.4 162.286 108.36 162.279 108.313C162.273 108.266 162.259 108.213 162.246 108.153L162.199 108.086L162.179 107.999L162.166 107.933L162.113 107.846C162.086 107.786 162.046 107.713 162.006 107.626C161.966 107.539 161.913 107.432 161.853 107.326C161.713 107.019 161.492 106.825 161.206 106.745C160.872 106.659 160.492 106.625 160.065 106.645C159.692 106.665 159.431 106.745 159.285 106.872C159.178 106.959 159.125 107.146 159.118 107.419V107.999C159.131 108.293 159.131 108.613 159.118 108.96C159.105 109.093 159.091 109.267 159.071 109.48C159.051 109.694 159.045 109.94 159.025 110.227C159.031 110.367 159.038 110.547 159.038 110.754V111.481C159.038 111.528 159.038 111.581 159.038 111.648C159.038 111.715 159.031 111.795 159.018 111.881C159.011 111.968 159.005 112.048 159.005 112.115C159.005 112.181 159.005 112.235 159.005 112.275V112.655C159.005 112.795 159.005 112.962 159.018 113.149C159.018 113.222 159.025 113.322 159.038 113.442C159.051 113.562 159.058 113.669 159.058 113.769C159.045 114.102 159.098 114.322 159.211 114.416C159.285 114.483 159.398 114.516 159.545 114.516C159.605 114.516 159.685 114.516 159.798 114.496C159.912 114.476 159.985 114.476 160.038 114.476C160.252 114.476 160.392 114.549 160.439 114.689C160.459 114.789 160.425 114.869 160.338 114.936L159.611 115.05C159.558 115.05 159.438 115.036 159.251 115.016C159.058 114.996 158.938 114.983 158.891 114.983H158.664C158.664 114.983 158.618 114.983 158.584 114.969H158.404C158.404 114.969 158.351 114.983 158.318 114.983H157.957L157.524 115.036C157.384 115.056 157.19 115.056 156.944 115.023C156.79 115.009 156.663 114.989 156.577 114.969C156.49 114.949 156.423 114.916 156.383 114.883C156.343 114.849 156.323 114.816 156.323 114.776C156.323 114.736 156.323 114.696 156.343 114.656C156.397 114.543 156.477 114.509 156.577 114.543H157.01C157.204 114.543 157.357 114.483 157.47 114.369C157.584 114.256 157.644 114.049 157.664 113.762C157.657 113.822 157.651 113.789 157.651 113.662V112.128C157.651 112.075 157.651 112.001 157.664 111.901C157.671 111.801 157.677 111.695 157.677 111.568V111.254C157.677 111.128 157.691 110.921 157.711 110.641C157.731 110.434 157.731 110.227 157.697 110.027C157.657 109.72 157.677 109.313 157.744 108.793V108.5C157.744 108.446 157.744 108.373 157.757 108.28C157.764 108.186 157.771 108.119 157.771 108.073C157.764 107.999 157.757 107.866 157.751 107.673C157.744 107.479 157.737 107.292 157.731 107.112C157.731 106.999 157.697 106.906 157.631 106.819C157.517 106.692 157.317 106.639 157.024 106.665H156.063C155.803 106.665 155.603 106.712 155.456 106.812C155.416 106.839 155.363 106.899 155.283 106.972C155.203 107.052 155.116 107.152 155.009 107.279C154.876 107.439 154.742 107.753 154.616 108.22C154.569 108.326 154.549 108.48 154.549 108.693C154.529 108.78 154.502 108.846 154.469 108.893C154.442 108.947 154.409 108.993 154.376 109.033C154.342 109.073 154.302 109.107 154.256 109.14C154.189 109.14 154.135 109.14 154.095 109.127L154.069 109.113Z" fill="#FAFAFA"></path>
<path d="M164.708 113.676C164.908 113.822 165.008 114.016 165.001 114.249C165.001 114.376 164.975 114.483 164.915 114.576C164.861 114.67 164.788 114.743 164.694 114.803C164.608 114.856 164.501 114.89 164.394 114.903C164.281 114.916 164.174 114.903 164.061 114.85C163.847 114.756 163.707 114.583 163.647 114.349C163.634 114.256 163.641 114.156 163.667 114.056C163.694 113.956 163.734 113.862 163.787 113.789C163.841 113.709 163.907 113.642 163.981 113.596C164.054 113.549 164.148 113.516 164.241 113.516C164.394 113.516 164.554 113.569 164.708 113.682V113.676Z" fill="#FAFAFA"></path>
<path d="M172.644 113.782C172.717 113.809 172.764 113.816 172.797 113.796H174.992L175.785 113.816C175.992 113.809 176.139 113.789 176.219 113.762C176.326 113.736 176.432 113.649 176.546 113.516C176.559 113.476 176.586 113.429 176.619 113.369C176.652 113.309 176.686 113.235 176.726 113.155C176.732 113.095 176.819 112.982 176.993 112.809H177.093L177.173 112.889C177.179 113.089 177.173 113.262 177.139 113.402C177.033 113.749 176.946 114.083 176.873 114.396C176.806 114.669 176.719 114.843 176.612 114.923C176.619 114.916 176.346 114.91 175.799 114.91C175.745 114.91 175.679 114.91 175.592 114.916C175.505 114.916 175.398 114.93 175.272 114.943C175.145 114.956 175.038 114.963 174.945 114.97C174.858 114.97 174.778 114.976 174.725 114.976H174.358C174.238 114.976 174.118 114.976 173.991 114.963C173.864 114.95 173.771 114.95 173.711 114.95C173.651 114.95 173.631 114.95 173.644 114.95H172.424C172.224 114.963 172.057 114.963 171.923 114.95C171.737 114.943 171.617 114.91 171.563 114.863C171.51 114.816 171.477 114.743 171.477 114.663C171.49 114.589 171.503 114.516 171.51 114.443C171.517 114.369 171.563 114.263 171.643 114.129C171.75 113.956 171.81 113.842 171.837 113.782C171.877 113.689 171.91 113.589 171.95 113.496C171.99 113.402 172.024 113.309 172.064 113.209C172.17 112.975 172.27 112.802 172.377 112.675C172.55 112.468 172.877 112.195 173.371 111.868L173.851 111.541C174.091 111.375 174.325 111.181 174.558 110.954C174.792 110.728 175.018 110.461 175.252 110.167C175.325 110.107 175.405 110.021 175.499 109.907C175.585 109.794 175.692 109.667 175.799 109.514C175.859 109.38 175.892 109.12 175.912 108.74C175.919 108.366 175.859 108.04 175.719 107.766C175.612 107.566 175.412 107.373 175.112 107.186C174.978 107.106 174.805 107.026 174.585 106.952C174.378 106.872 174.218 106.819 174.118 106.806C174.105 106.806 174.058 106.806 173.971 106.826C173.891 106.839 173.771 106.852 173.624 106.866C173.317 106.892 173.144 106.926 173.111 106.952C172.61 107.199 172.33 107.579 172.257 108.093C172.21 108.426 172.29 108.68 172.49 108.84C172.63 108.947 172.751 108.96 172.851 108.887C172.917 108.833 172.971 108.78 173.004 108.713C173.037 108.653 173.077 108.613 173.124 108.593C173.244 108.593 173.357 108.647 173.458 108.747C173.538 108.827 173.591 108.947 173.618 109.093C173.644 109.334 173.558 109.554 173.351 109.767C173.184 109.934 172.957 110.014 172.67 110.014C172.63 110.014 172.597 110.014 172.57 110.014C172.544 110.014 172.51 110.007 172.47 109.994C172.384 109.974 172.31 109.954 172.25 109.941C172.197 109.927 172.15 109.914 172.124 109.907C172.003 109.86 171.91 109.807 171.83 109.747C171.77 109.687 171.677 109.5 171.537 109.173C171.463 108.967 171.463 108.633 171.537 108.186C171.61 107.799 171.69 107.539 171.77 107.406C171.99 107.026 172.257 106.752 172.564 106.579C172.857 106.412 173.271 106.312 173.804 106.279C174.458 106.232 175.065 106.332 175.619 106.579C175.852 106.686 176.059 106.806 176.246 106.939C176.432 107.079 176.599 107.233 176.739 107.406C177.113 107.866 177.299 108.326 177.299 108.78C177.299 109.013 177.259 109.26 177.186 109.527C177.086 109.947 176.799 110.354 176.312 110.748C175.912 111.074 175.472 111.361 175.005 111.601L174.245 111.982C173.344 112.435 172.771 113.002 172.524 113.669C172.544 113.709 172.59 113.736 172.664 113.762L172.644 113.782Z" fill="#FAFAFA"></path>
<path d="M184.777 106.625C185.191 106.825 185.544 107.105 185.851 107.465C186.478 108.219 186.791 109.246 186.791 110.554C186.791 110.68 186.791 110.807 186.778 110.92C186.771 111.041 186.758 111.161 186.745 111.281C186.678 111.888 186.471 112.508 186.131 113.148C185.717 113.955 185.211 114.496 184.61 114.769C184.21 114.949 183.85 115.036 183.536 115.036C183.09 115.036 182.583 114.856 182.029 114.502C181.635 114.249 181.269 113.735 180.942 112.955C180.662 112.281 180.515 111.734 180.508 111.307C180.502 110.854 180.508 110.447 180.535 110.08C180.562 109.72 180.602 109.393 180.662 109.113C180.868 108.152 181.289 107.432 181.929 106.965C182.036 106.885 182.156 106.805 182.296 106.738C182.436 106.665 182.596 106.605 182.763 106.545C183.123 106.418 183.423 106.352 183.67 106.352C184.037 106.352 184.404 106.438 184.777 106.618V106.625ZM181.836 110.84V111.447C181.836 111.974 181.896 112.488 182.029 112.981C182.222 113.688 182.523 114.155 182.936 114.382C183.13 114.489 183.343 114.536 183.576 114.536C183.877 114.536 184.13 114.462 184.337 114.322C184.764 114.049 185.07 113.482 185.257 112.621C185.391 112.054 185.457 111.474 185.457 110.887V109.88C185.457 108.579 185.177 107.686 184.61 107.185C184.337 106.945 184.023 106.825 183.67 106.825C183.63 106.825 183.59 106.825 183.55 106.825C183.51 106.825 183.47 106.832 183.43 106.845C183.13 106.905 182.903 107.019 182.736 107.192C182.136 107.826 181.842 109.04 181.842 110.84H181.836Z" fill="#FAFAFA"></path>
<path d="M188.238 115.015C187.777 115.015 187.504 114.942 187.431 114.802C187.377 114.722 187.377 114.635 187.417 114.555C187.437 114.529 187.484 114.502 187.544 114.482C187.611 114.462 187.677 114.448 187.764 114.435C187.851 114.422 187.931 114.415 188.024 114.415C188.111 114.415 188.198 114.408 188.284 114.395C188.371 114.388 188.451 114.368 188.518 114.335C188.584 114.302 188.644 114.248 188.698 114.175C188.751 114.102 188.791 114.002 188.818 113.875C188.845 113.748 188.865 113.595 188.865 113.401C188.865 113.361 188.871 113.308 188.891 113.221C188.911 113.141 188.918 113.074 188.918 113.028V112.421L188.865 111.807V111.64C188.865 111.567 188.878 111.487 188.898 111.394C188.918 111.307 188.931 111.254 188.931 111.24V110.68L188.985 108.866C188.991 108.826 188.998 108.786 188.998 108.746C188.998 108.706 188.998 108.659 189.011 108.626C189.031 108.472 189.045 108.325 189.045 108.199C189.045 107.759 188.945 107.458 188.745 107.305C188.664 107.232 188.558 107.192 188.431 107.192C188.364 107.192 188.264 107.212 188.138 107.245C188.004 107.278 187.911 107.298 187.851 107.305L187.691 107.338C187.591 107.318 187.537 107.285 187.511 107.252C187.471 107.178 187.471 107.098 187.511 107.018C187.557 106.945 187.704 106.865 187.944 106.785C188.044 106.765 188.138 106.738 188.238 106.718C188.338 106.698 188.431 106.671 188.531 106.651L189.078 106.518C189.145 106.498 189.211 106.471 189.278 106.451C189.345 106.431 189.418 106.405 189.492 106.371C189.712 106.298 189.885 106.258 190.005 106.258C190.058 106.258 190.105 106.271 190.139 106.291C190.225 106.358 190.279 106.571 190.285 106.938C190.299 107.238 190.299 107.432 190.272 107.518L190.139 112.187V113.528C190.139 113.635 190.139 113.701 190.152 113.728C190.179 114.028 190.272 114.235 190.432 114.355C190.539 114.435 190.692 114.469 190.892 114.455C191.152 114.435 191.319 114.428 191.386 114.442C191.439 114.455 191.493 114.475 191.539 114.495C191.593 114.515 191.626 114.555 191.653 114.615C191.653 114.675 191.626 114.755 191.566 114.849C191.466 114.962 191.086 115.009 190.412 114.982C190.365 114.975 190.299 114.969 190.212 114.955C190.125 114.942 190.012 114.929 189.885 114.915C189.785 114.875 189.618 114.862 189.371 114.862C189.298 114.862 189.218 114.862 189.131 114.875C189.045 114.882 188.951 114.895 188.845 114.909C188.698 114.922 188.578 114.935 188.484 114.949C188.398 114.962 188.338 114.969 188.304 114.969L188.238 115.022V115.015Z" fill="#FAFAFA"></path>
<path d="M198.651 110.287C198.651 110.287 198.778 110.334 198.938 110.407C199.098 110.48 199.278 110.601 199.478 110.781C199.612 110.901 199.772 111.074 199.952 111.294C200.152 111.541 200.272 111.728 200.312 111.868C200.332 111.955 200.346 112.088 200.346 112.261C200.346 113.002 200.165 113.575 199.799 113.996C199.178 114.703 198.351 115.056 197.317 115.056C197.191 115.056 197.057 115.056 196.917 115.043C196.777 115.029 196.637 115.016 196.484 115.003C195.99 114.943 195.63 114.843 195.396 114.709C195.036 114.502 194.776 114.216 194.603 113.855C194.489 113.635 194.423 113.375 194.403 113.082C194.363 112.648 194.423 112.301 194.583 112.041C194.81 111.654 195.023 111.374 195.23 111.201C195.303 111.141 195.423 111.054 195.59 110.941C195.757 110.827 195.97 110.701 196.23 110.547C196.157 110.507 196.07 110.454 195.97 110.387C195.87 110.314 195.763 110.227 195.637 110.127C195.597 110.074 195.55 110.014 195.497 109.934C195.443 109.86 195.37 109.767 195.29 109.667C194.963 109.253 194.789 108.92 194.776 108.646C194.756 108.173 194.856 107.786 195.076 107.506C195.13 107.446 195.21 107.366 195.323 107.266C195.436 107.166 195.583 107.045 195.77 106.912C196.097 106.672 196.617 106.512 197.324 106.432C197.978 106.358 198.518 106.392 198.938 106.545C199.619 106.792 200.019 107.192 200.145 107.752C200.172 107.873 200.192 107.993 200.192 108.113C200.192 108.446 199.979 108.846 199.545 109.3C199.452 109.413 199.265 109.553 198.998 109.727C198.898 109.793 198.805 109.86 198.711 109.927C198.618 109.994 198.525 110.06 198.425 110.12C198.451 110.234 198.531 110.287 198.645 110.287H198.651ZM195.643 112.108C195.63 112.148 195.603 112.201 195.57 112.275C195.537 112.348 195.497 112.448 195.45 112.575C195.443 112.602 195.436 112.635 195.436 112.662C195.436 112.688 195.436 112.722 195.436 112.755C195.436 112.928 195.517 113.175 195.67 113.495C195.857 113.889 196.09 114.176 196.377 114.342C196.584 114.476 196.897 114.569 197.304 114.609C197.524 114.636 197.804 114.589 198.144 114.462C198.465 114.342 198.718 114.182 198.892 113.982C198.998 113.855 199.085 113.649 199.158 113.369C199.232 113.115 199.272 112.888 199.272 112.688C199.272 112.622 199.272 112.575 199.258 112.555C199.218 112.455 199.098 112.281 198.892 112.028C198.678 111.781 198.558 111.654 198.545 111.634C198.425 111.521 198.271 111.434 198.078 111.374C198.004 111.348 197.931 111.321 197.851 111.294C197.778 111.274 197.698 111.248 197.618 111.228C197.511 111.181 197.364 111.107 197.184 110.994C197.057 110.927 196.957 110.894 196.891 110.894C196.79 110.894 196.65 110.934 196.464 111.014C196.15 111.154 195.923 111.361 195.783 111.628C195.763 111.668 195.717 111.821 195.65 112.101L195.643 112.108ZM196.057 108.62C196.097 108.7 196.157 108.786 196.237 108.873C196.317 108.96 196.41 109.04 196.517 109.126C196.624 109.213 196.73 109.293 196.851 109.38C196.964 109.467 197.077 109.547 197.191 109.633C197.404 109.8 197.598 109.88 197.764 109.88H197.831C197.831 109.88 197.884 109.874 197.918 109.854C197.958 109.833 198.004 109.807 198.064 109.767C198.124 109.727 198.205 109.673 198.311 109.6C198.531 109.433 198.671 109.327 198.725 109.273C198.925 109.073 199.065 108.813 199.152 108.493C199.165 108.419 199.172 108.346 199.172 108.279C199.172 107.826 199.052 107.479 198.811 107.239C198.505 106.945 198.131 106.805 197.684 106.805C197.484 106.805 197.284 106.832 197.077 106.885C196.797 106.952 196.55 107.099 196.337 107.332C196.117 107.579 195.997 107.819 195.99 108.059C195.977 108.299 195.997 108.486 196.057 108.633V108.62Z" fill="#FAFAFA"></path>
</g>
<defs>
<clipPath id="clip0_213_153">
<rect width="340.5" height="115.163" fill="white"></rect>
</clipPath>
</defs>
</svg>